<svg width="86" height="33" viewBox="0 0 86 33" fill="none" xmlns="http://www.w3.org/2000/svg">
<g clip-path="url(#clip0_66_1011)">
<path d="M6.75836 4.55572L11.1381 17.0286H16.3068L20.7002 4.55572V17.0286H26.413V0.679199H17.2454L13.7361 10.6221L10.2132 0.679199H1.04559V17.0286H6.75836V4.55572Z" fill="white"/>
<path d="M40.8038 14.3357H48.7201L49.8491 17.0561H57.1396L48.6657 0.733887H41.0759L32.5884 17.0561H39.7157L40.8038 14.3357ZM44.7893 4.92323L47.2783 10.7992H42.3681L44.7893 4.92323Z" fill="white"/>
<path d="M68.8917 17.0286L73.3531 11.7783L77.8009 17.0286H85.6355L77.9505 8.59546L84.969 0.679199H77.3656L73.4891 5.71187L69.4902 0.679199H61.8187L68.8917 8.50024L61.1115 17.0286H68.8917Z" fill="white"/>
<path d="M17.0279 22.1565C17.7075 21.4862 18.6237 21.1104 19.5783 21.1104C20.5328 21.1104 21.449 21.4862 22.1286 22.1565C22.7399 23.0219 23.068 24.0554 23.068 25.1149C23.068 26.1744 22.7399 27.2079 22.1286 28.0733C21.4431 28.7269 20.5322 29.0915 19.5851 29.0915C18.6379 29.0915 17.7271 28.7269 17.0415 28.0733C16.4265 27.2095 16.0959 26.1753 16.0959 25.1149C16.0959 24.0544 16.4265 23.0204 17.0415 22.1565H17.0279Z" fill="white"/>
<path d="M19.5851 21.1089C19.108 21.084 18.6312 21.1649 18.1891 21.346C17.747 21.5271 17.3505 21.8038 17.0279 22.1562C16.4129 23.0201 16.0823 24.0542 16.0823 25.1146C16.0823 26.1751 16.4129 27.2092 17.0279 28.073C17.7135 28.7266 18.6243 29.0912 19.5715 29.0912C20.5186 29.0912 21.4294 28.7266 22.115 28.073C22.7262 27.2076 23.0544 26.1741 23.0544 25.1146C23.0544 24.0551 22.7262 23.0216 22.115 22.1562C21.7954 21.8074 21.4034 21.5329 20.9663 21.3519C20.5292 21.171 20.0577 21.088 19.5851 21.1089Z" fill="white"/>
<path d="M66.8514 21.1088C66.3746 21.0867 65.8988 21.1689 65.4571 21.3498C65.0154 21.5307 64.6186 21.8059 64.2943 22.1561C63.6315 22.9917 63.302 24.0433 63.3694 25.1077C63.2925 26.1819 63.6336 27.2443 64.3215 28.0729C65.0032 28.7287 65.9123 29.095 66.8582 29.095C67.8041 29.095 68.7133 28.7287 69.395 28.0729C70.0718 27.2389 70.4072 26.1793 70.3335 25.1077C70.4008 24.0433 70.0713 22.9917 69.4086 22.1561C69.0849 21.8052 68.6881 21.5295 68.2463 21.3485C67.8045 21.1675 67.3283 21.0857 66.8514 21.1088Z" fill="white"/>
<path d="M0.977783 18.4292V32.031H85.7987V18.4292H0.977783ZM11.628 22.4281H11.5192C10.9906 22.0062 10.3984 21.6711 9.76459 21.4352C9.17074 21.2246 8.54476 21.1187 7.91468 21.1223C7.41427 21.115 6.9167 21.1979 6.44574 21.3672C6.01229 21.533 5.61838 21.7878 5.28954 22.1153C4.94808 22.4749 4.68417 22.9008 4.51422 23.3666C4.3251 23.9319 4.2331 24.5252 4.24217 25.1213C4.22989 25.7299 4.3362 26.3351 4.55507 26.9031C4.72684 27.356 4.99087 27.7682 5.33038 28.1137C5.6657 28.4398 6.07016 28.6862 6.51373 28.8346C6.94991 28.9929 7.4099 29.0757 7.87391 29.0794C8.52741 29.0841 9.17659 28.9736 9.79173 28.753C10.4057 28.5251 10.9761 28.1939 11.4783 27.7736H11.5736V29.3107L10.8663 29.6099C10.5919 29.7238 10.3101 29.8192 10.0229 29.8955C9.7102 29.987 9.39232 30.0597 9.07088 30.1132C8.69768 30.1747 8.32015 30.2066 7.94191 30.2084C7.22707 30.2155 6.51559 30.11 5.83364 29.8955C5.21571 29.7124 4.64853 29.3886 4.17658 28.9497C3.70463 28.5108 3.34073 27.9686 3.11328 27.3656C2.59696 25.9373 2.59696 24.3733 3.11328 22.945C3.34409 22.3309 3.71151 21.7774 4.18779 21.3264C4.66394 20.8912 5.22404 20.558 5.83364 20.3471C6.52648 20.1165 7.2525 20.0016 7.98267 20.007C8.5667 19.9944 9.15042 20.0446 9.72374 20.1566C10.3801 20.3174 11.0183 20.5453 11.628 20.8367V22.4281ZM24.1825 27.284C23.9783 27.8877 23.6387 28.4368 23.1896 28.889C22.7529 29.3344 22.2235 29.678 21.6389 29.8955C20.9737 30.1225 20.2743 30.2329 19.5714 30.222C18.8764 30.2331 18.1851 30.1179 17.5312 29.8819C16.9403 29.6676 16.4022 29.329 15.9534 28.889C15.5117 28.4309 15.1731 27.8836 14.9604 27.284C14.7212 26.5839 14.6061 25.8474 14.6204 25.1077C14.6062 24.3769 14.7213 23.6493 14.9604 22.9586C15.1756 22.3489 15.5189 21.7924 15.967 21.3264C16.4054 20.8798 16.9405 20.5401 17.5312 20.3334C18.1848 20.0952 18.8757 19.9754 19.5714 19.9798C20.2764 19.9706 20.9771 20.0905 21.6389 20.3334C22.2235 20.5445 22.7533 20.8838 23.1896 21.3264C23.6371 21.7823 23.9805 22.3299 24.1961 22.9314C24.4389 23.6309 24.5585 24.3673 24.5498 25.1077C24.5621 25.8495 24.4375 26.5872 24.1825 27.284ZM35.1455 30.0043H28.3446V20.1566H29.7048V28.821H35.0367L35.1455 30.0043ZM46.2718 22.4145H46.163C45.6344 21.9926 45.0422 21.6575 44.4084 21.4216C43.8095 21.2121 43.1794 21.1063 42.5449 21.1088C42.049 21.1012 41.5557 21.1842 41.0895 21.3536C40.6544 21.516 40.2599 21.7713 39.9334 22.1017C39.5874 22.4577 39.3228 22.8847 39.1581 23.353C38.9624 23.9168 38.8702 24.5112 38.886 25.1077C38.8698 25.7154 38.9713 26.3205 39.1852 26.8895C39.3617 27.3432 39.6304 27.7554 39.9742 28.1001C40.3047 28.4256 40.7046 28.672 41.1439 28.821C41.5801 28.9793 42.0401 29.0621 42.5041 29.0658C43.1621 29.0715 43.816 28.961 44.4356 28.7394C45.0468 28.5144 45.6132 28.1828 46.1086 27.76H46.2174V29.297L45.4965 29.5963C45.2276 29.7125 44.9503 29.808 44.6668 29.8819C44.3536 29.9718 44.0358 30.0444 43.7147 30.0995C43.3415 30.1611 42.9639 30.193 42.5857 30.1948C41.8665 30.2009 41.1507 30.0953 40.4638 29.8819C39.8492 29.7025 39.2854 29.381 38.818 28.9434C38.3369 28.5044 37.9644 27.9596 37.7299 27.352C37.2313 25.9206 37.2313 24.3628 37.7299 22.9314C37.9659 22.3167 38.3379 21.7634 38.818 21.3128C39.2921 20.8747 39.8527 20.5411 40.4638 20.3334C41.152 20.1029 41.8736 19.988 42.5993 19.9934C43.1802 19.9962 43.7592 20.06 44.3268 20.1838C44.9825 20.3467 45.6205 20.5745 46.2311 20.8639L46.2718 22.4145ZM58.0374 30.0043H56.6772V25.1893H51.3453V30.0043H49.9851V20.1566H51.3453V24.0059H56.6772V20.1566H58.0374V30.0043ZM71.4624 27.284C71.2532 27.8853 70.9142 28.4333 70.4694 28.889C70.0253 29.3317 69.4921 29.6747 68.9053 29.8955C68.245 30.1236 67.5498 30.2341 66.8514 30.222C66.1519 30.2332 65.456 30.118 64.7975 29.8819C64.2107 29.6674 63.6772 29.3287 63.2333 28.889C62.7868 28.4347 62.4475 27.8863 62.2403 27.284C61.9965 26.5847 61.8768 25.8482 61.8867 25.1077C61.8766 24.3761 61.9963 23.6484 62.2403 22.9586C62.4455 22.3473 62.7848 21.7896 63.2333 21.3264C63.6774 20.8803 64.2169 20.5409 64.8111 20.3334C66.1314 19.8678 67.5713 19.8678 68.8916 20.3334C69.4744 20.5481 70.0035 20.8869 70.4423 21.3264C70.8856 21.7831 71.2244 22.3308 71.4352 22.9314C71.6844 23.6293 71.8043 24.3668 71.7888 25.1077C71.8075 25.8466 71.697 26.583 71.4624 27.284ZM83.8128 30.0043H82.0582L76.9847 21.2176V30.0043H75.6246V20.1566H77.828L82.4526 28.1817V20.1566H83.8128V30.0043Z" fill="white"/>
</g>
<defs>
<clipPath id="clip0_66_1011">
<rect width="84.8209" height="31.325" fill="white" transform="translate(0.977783 0.679199)"/>
</clipPath>
</defs>
</svg>
