<svg width="115" height="75" viewBox="0 0 115 75" fill="none" xmlns="http://www.w3.org/2000/svg">
<g clip-path="url(#clip0_66_980)">
<path d="M76.9673 10.7595L66.1807 16.0435L72.7482 18.5695C73.5018 18.7461 74.2093 19.081 74.8236 19.5518C75.438 20.0226 75.9453 20.6185 76.3119 21.3003C76.9263 22.9524 76.0252 24.4133 75.2332 25.6558L71.6423 31.2402C67.3823 37.9215 63.1132 44.5937 58.835 51.2567C58.835 49.195 58.835 47.1606 58.835 45.0716C60.4735 39.9286 62.0664 34.772 63.6138 29.6018L64.9109 25.1916C64.9883 25.0212 65.0298 24.8367 65.0329 24.6496C65.036 24.4625 65.0006 24.2768 64.9289 24.1039C64.8572 23.9311 64.7507 23.7748 64.6161 23.6448C64.4815 23.5149 64.3216 23.4139 64.1463 23.3483L57.5925 20.1533L51.0523 23.3756C50.8771 23.4412 50.7172 23.5422 50.5825 23.6721C50.4479 23.8021 50.3414 23.9584 50.2697 24.1312C50.198 24.3041 50.1626 24.4898 50.1657 24.6769C50.1688 24.864 50.2103 25.0485 50.2877 25.2189C50.711 26.6935 51.1479 28.1545 51.5848 29.6291C53.1232 34.8084 54.7115 39.965 56.35 45.0989C56.35 47.1606 56.35 49.195 56.35 51.284C52.0718 44.621 47.8027 37.9488 43.5427 31.2675L39.9518 25.6422C39.4382 25.0545 39.0724 24.3526 38.8848 23.595C38.6972 22.8375 38.6932 22.046 38.8731 21.2866C39.2397 20.6049 39.747 20.0089 40.3614 19.5381C40.9757 19.0673 41.6832 18.7325 42.4368 18.5558L49.0179 16.0299L38.2041 10.7595L41.5629 16.3985L36.0058 18.5422C32.1008 12.4435 28.2049 6.33566 24.3181 0.21875C35.405 4.15105 46.4646 8.11066 57.5925 11.9064C68.7067 8.11066 79.78 4.15105 90.8532 0.21875C86.9755 6.33566 83.0842 12.4435 79.1792 18.5422L73.6084 16.3985L76.9809 10.7595" fill="white"/>
<path fill-rule="evenodd" clip-rule="evenodd" d="M74.2229 66.2075V68.7335H87.8084C87.9402 68.7372 88.0681 68.6894 88.1651 68.6001C88.262 68.5108 88.3202 68.3872 88.3273 68.2556V66.74C88.3202 66.6085 88.262 66.4849 88.1651 66.3956C88.0681 66.3063 87.9402 66.2584 87.8084 66.2622L74.2229 66.2075ZM70.8094 74.6047V63.8454H88.4092C88.7702 63.8137 89.1339 63.8542 89.4791 63.9644C89.8243 64.0747 90.1441 64.2525 90.4199 64.4876C90.6956 64.7227 90.9218 65.0104 91.0853 65.3338C91.2488 65.6572 91.3463 66.0099 91.3721 66.3714V68.5969C91.4305 69.2156 91.2469 69.8329 90.86 70.3192C90.473 70.8054 89.9127 71.1228 89.2967 71.2048L91.6315 74.6183H87.7948L85.7876 71.3277H74.2365V74.6183L70.8094 74.6047Z" fill="white"/>
<path d="M21.328 74.6185H3.71452C2.95981 74.6481 2.22416 74.3773 1.66878 73.8654C1.1134 73.3536 0.783585 72.6424 0.75164 71.8878V66.6038C0.783585 65.8491 1.1134 65.138 1.66878 64.6261C2.22416 64.1142 2.95981 63.8434 3.71452 63.873H21.328V66.7403H4.3426C4.21087 66.7366 4.08289 66.7844 3.98596 66.8737C3.88903 66.963 3.83082 67.0866 3.82375 67.2182V71.1368C3.83082 71.2684 3.88903 71.392 3.98596 71.4813C4.08289 71.5706 4.21087 71.6185 4.3426 71.6147H21.3689L21.328 74.6185ZM44.676 63.8457V71.8742C44.644 72.6288 44.3142 73.3399 43.7589 73.8518C43.2035 74.3637 42.4678 74.6345 41.7131 74.6049H27.0489C26.2942 74.6345 25.5585 74.3637 25.0032 73.8518C24.4478 73.3399 24.118 72.6288 24.086 71.8742V63.8457H27.6224V71.1915C27.6294 71.3231 27.6877 71.4467 27.7846 71.5359C27.8815 71.6252 28.0095 71.6731 28.1412 71.6693H40.6208C40.7525 71.6731 40.8805 71.6252 40.9774 71.5359C41.0744 71.4467 41.1326 71.3231 41.1396 71.1915V63.8457H44.676ZM111.43 68.7201V66.2078H97.9805C97.8488 66.204 97.7208 66.2519 97.6239 66.3412C97.5269 66.4305 97.4687 66.5541 97.4617 66.6857V68.7201C97.4617 68.7201 106.637 68.7065 111.43 68.7201ZM114.761 74.6185H111.43V71.328H97.489V74.6185H94.1711V66.5901C94.203 65.8355 94.5328 65.1243 95.0882 64.6124C95.6436 64.1006 96.3793 63.8298 97.134 63.8594H114.734L114.761 74.6185ZM50.7656 68.7338H64.5013C64.6331 68.7375 64.761 68.6897 64.858 68.6004C64.9549 68.5111 65.0131 68.3875 65.0202 68.2559V66.7403C65.0131 66.6087 64.9549 66.4851 64.858 66.3958C64.761 66.3066 64.6331 66.2587 64.5013 66.2624H50.7656V68.7338ZM65.0885 63.8457C67.2731 63.8457 68.0513 64.8561 68.0513 66.3717V68.5972C68.0513 70.1128 67.3823 71.328 65.0885 71.328H50.7656V74.6185H47.4341V63.8457H65.0885Z" fill="white"/>
</g>
<defs>
<clipPath id="clip0_66_980">
<rect width="114.009" height="74.4543" fill="white" transform="translate(0.751648 0.150391)"/>
</clipPath>
</defs>
</svg>
