<svg width="42" height="44" viewBox="0 0 42 44" fill="none" xmlns="http://www.w3.org/2000/svg">
<g clip-path="url(#clip0_66_1142)">
<path d="M29.84 37.9893L29.94 36.7894C29.9501 36.7453 29.9494 36.6994 29.9379 36.6557C29.9264 36.612 29.9044 36.5716 29.874 36.5382C29.8435 36.5048 29.8054 36.4793 29.7629 36.4638C29.7204 36.4483 29.6748 36.4434 29.63 36.4494H28.76L28.88 35.2894C28.8907 35.2457 28.8903 35.2 28.8789 35.1565C28.8675 35.113 28.8453 35.073 28.8145 35.0402C28.7837 35.0075 28.7452 34.9829 28.7025 34.9687C28.6598 34.9546 28.6143 34.9514 28.57 34.9593H27.15C27.1034 34.9536 27.0562 34.958 27.0114 34.972C26.9666 34.986 26.9253 35.0094 26.8903 35.0406C26.8553 35.0719 26.8274 35.1102 26.8084 35.1531C26.7893 35.196 26.7796 35.2424 26.78 35.2894L26.67 36.4494H25.79C25.7437 36.4466 25.6973 36.4534 25.6538 36.4693C25.6102 36.4851 25.5703 36.5097 25.5366 36.5416C25.5028 36.5734 25.476 36.6118 25.4576 36.6544C25.4393 36.697 25.4299 36.743 25.43 36.7894L25.35 37.7894C25.14 36.8394 24 36.3594 22.76 36.3594C21.12 36.3594 19.9 37.2193 19.76 38.4293V38.5094C19.5807 37.8623 19.1852 37.2961 18.6394 36.9049C18.0936 36.5138 17.4304 36.3213 16.76 36.3594C15.9087 36.3421 15.0783 36.6238 14.4133 37.1555C13.7482 37.6872 13.2906 38.4351 13.12 39.2693L13.33 36.8894C13.3407 36.8457 13.3403 36.8 13.3289 36.7565C13.3174 36.713 13.2953 36.673 13.2645 36.6402C13.2337 36.6074 13.1952 36.5829 13.1525 36.5687C13.1098 36.5546 13.0642 36.5514 13.02 36.5593H11.63C11.5837 36.5552 11.5371 36.5606 11.493 36.5752C11.4489 36.5898 11.4083 36.6133 11.3736 36.6443C11.3389 36.6752 11.3109 36.7129 11.2914 36.7551C11.2719 36.7972 11.2612 36.8429 11.26 36.8894L10.97 40.2993C10.9545 40.5955 10.8252 40.8744 10.6091 41.0775C10.3929 41.2806 10.1066 41.3923 9.81 41.3894C9.66793 41.4003 9.5252 41.3789 9.39264 41.3266C9.26009 41.2743 9.14113 41.1926 9.0448 41.0876C8.94848 40.9826 8.8773 40.8571 8.83661 40.7205C8.79593 40.584 8.78684 40.4399 8.81 40.2993L9.10999 36.8894C9.11975 36.8475 9.11941 36.804 9.10895 36.7623C9.0985 36.7206 9.07823 36.682 9.04987 36.6498C9.02151 36.6175 8.98585 36.5924 8.94587 36.5767C8.90588 36.561 8.86276 36.555 8.82001 36.5593H7.40998C7.36499 36.5566 7.31991 36.5631 7.27753 36.5785C7.23516 36.5938 7.19637 36.6177 7.16358 36.6486C7.13079 36.6796 7.10468 36.7169 7.08686 36.7583C7.06904 36.7997 7.05992 36.8443 7.06 36.8894L6.76001 40.2993C6.62001 41.9193 7.75998 43.0694 9.65998 43.0694C10.4673 43.1264 11.2656 42.8705 11.8893 42.3548C12.5131 41.839 12.9144 41.103 13.01 40.2993V40.1493C13.0105 40.5498 13.0931 40.9459 13.2527 41.3132C13.4123 41.6805 13.6455 42.0111 13.9379 42.2848C14.2303 42.5584 14.5756 42.7692 14.9526 42.9042C15.3297 43.0391 15.7304 43.0953 16.13 43.0694C16.7812 43.0857 17.4245 42.925 17.9916 42.6045C18.5586 42.284 19.0281 41.8156 19.35 41.2493C19.56 42.2493 20.46 43.0694 22.2 43.0694C23.94 43.0694 25.2 42.1994 25.33 40.9794C25.45 39.5994 24.07 39.2293 23.17 39.0493C22.27 38.8693 21.72 38.7894 21.76 38.3194C21.76 38.0094 22.14 37.7793 22.6 37.7693C22.8 37.7693 23.24 37.7694 23.36 38.1394C23.3902 38.2057 23.4399 38.2613 23.5024 38.2988C23.5649 38.3362 23.6372 38.3539 23.71 38.3493H24.95C25.0142 38.3537 25.0784 38.3412 25.1362 38.3131C25.1941 38.285 25.2436 38.2424 25.28 38.1893C25.3032 38.2426 25.3431 38.2869 25.3935 38.3158C25.4439 38.3446 25.5023 38.3564 25.56 38.3493H26.55L26.18 42.6094C26.18 42.8294 26.27 42.9393 26.49 42.9393H27.91C27.9563 42.9435 28.0029 42.9381 28.047 42.9234C28.0911 42.9088 28.1317 42.8853 28.1664 42.8544C28.2011 42.8235 28.2291 42.7858 28.2486 42.7436C28.2681 42.7015 28.2788 42.6558 28.28 42.6094L28.65 38.3493H29.52C29.5646 38.3468 29.6084 38.3355 29.6487 38.316C29.689 38.2965 29.725 38.2692 29.7547 38.2358C29.7844 38.2023 29.8073 38.1633 29.8219 38.121C29.8365 38.0788 29.8427 38.034 29.84 37.9893ZM16.71 37.8894C16.9941 37.882 17.2709 37.9801 17.4869 38.1647C17.703 38.3494 17.843 38.6076 17.88 38.8894H15.37C15.4653 38.6063 15.6446 38.3589 15.884 38.1803C16.1234 38.0016 16.4115 37.9002 16.71 37.8894ZM23.28 41.0094C23.28 41.3294 22.88 41.5594 22.39 41.5794C22.1618 41.599 21.9342 41.5347 21.7501 41.3984C21.5659 41.2622 21.4379 41.0634 21.39 40.8393C21.3544 40.7911 21.3075 40.7522 21.2535 40.7261C21.1995 40.7 21.14 40.6873 21.08 40.6893H19.75C19.7035 40.6847 19.6565 40.6893 19.6119 40.703C19.5672 40.7168 19.5258 40.7393 19.49 40.7693C19.4602 40.7395 19.424 40.7169 19.3842 40.703C19.3443 40.6892 19.3019 40.6845 19.26 40.6893H17.87C17.8005 40.6787 17.7295 40.687 17.6644 40.7134C17.5992 40.7398 17.5424 40.7833 17.5 40.8393C17.3833 41.0356 17.2158 41.1968 17.0151 41.306C16.8145 41.4151 16.5882 41.468 16.36 41.4593C15.69 41.4593 15.24 40.9593 15.18 40.1493H19.55C19.77 40.1493 19.89 40.0693 19.93 39.7093C19.94 39.5161 19.94 39.3226 19.93 39.1293C20.1224 39.4503 20.389 39.7204 20.7075 39.917C21.0259 40.1137 21.3869 40.2311 21.76 40.2594C22.55 40.4194 23.32 40.5694 23.28 41.0094Z" fill="white"/>
<path d="M4.82001 36.3194C4.44936 36.2783 4.07422 36.3268 3.7262 36.4608C3.37818 36.5948 3.06743 36.8103 2.82001 37.0893V36.7894C2.8297 36.7462 2.82899 36.7013 2.818 36.6585C2.807 36.6156 2.78599 36.576 2.75672 36.5428C2.72745 36.5096 2.69075 36.4839 2.6496 36.4676C2.60845 36.4514 2.564 36.4451 2.51996 36.4494H1.08997C1.04376 36.4449 0.997182 36.4505 0.953374 36.4659C0.909566 36.4813 0.869608 36.506 0.836308 36.5383C0.803009 36.5707 0.777133 36.6099 0.760503 36.6532C0.743872 36.6966 0.736879 36.743 0.739995 36.7894L0.229985 42.5694C0.219797 42.6121 0.22019 42.6567 0.231145 42.6992C0.242099 42.7418 0.26329 42.781 0.292851 42.8136C0.322413 42.8461 0.359497 42.8709 0.400823 42.8858C0.442149 42.9008 0.486449 42.9054 0.529973 42.8993H1.95997C2.0053 42.9036 2.05106 42.8982 2.09412 42.8834C2.13719 42.8687 2.17659 42.8449 2.20972 42.8136C2.24285 42.7824 2.26891 42.7444 2.2862 42.7023C2.30349 42.6602 2.31163 42.6149 2.31 42.5694L2.62 39.0993C2.633 38.7917 2.76578 38.5012 2.99 38.2901C3.21421 38.079 3.51209 37.9639 3.82001 37.9693C3.96611 37.9568 4.11307 37.9787 4.24921 38.0332C4.38535 38.0876 4.5069 38.1732 4.60407 38.283C4.70124 38.3928 4.77135 38.5238 4.80884 38.6655C4.84634 38.8073 4.85018 38.9559 4.82001 39.0993L4.51996 42.5694C4.50926 42.613 4.50969 42.6587 4.52112 42.7022C4.53255 42.7457 4.55466 42.7857 4.58545 42.8185C4.61625 42.8513 4.65475 42.8758 4.69745 42.8899C4.74016 42.9041 4.78575 42.9073 4.83002 42.8993H6.26001C6.30534 42.9036 6.35104 42.8982 6.39411 42.8834C6.43717 42.8687 6.47658 42.8449 6.50971 42.8136C6.54284 42.7824 6.56896 42.7444 6.58625 42.7023C6.60354 42.6602 6.61162 42.6149 6.60999 42.5694L6.94001 38.7993C6.99294 38.4924 6.97753 38.1775 6.89496 37.8772C6.8124 37.5768 6.66469 37.2984 6.46229 37.0616C6.25988 36.8248 6.00779 36.6356 5.72394 36.5073C5.44009 36.379 5.13147 36.3148 4.82001 36.3194Z" fill="white"/>
<path d="M36.94 36.319C36.2181 36.3172 35.5082 36.5033 34.88 36.859C34.8813 36.8227 34.8726 36.7868 34.8549 36.7551C34.8373 36.7234 34.8114 36.6971 34.78 36.679C34.4791 36.5067 34.1443 36.4022 33.7988 36.3728C33.4533 36.3434 33.1056 36.3899 32.78 36.509C32.4618 36.6294 32.1795 36.829 31.96 37.089V36.789C31.96 36.569 31.88 36.449 31.67 36.449H30.24C30.1937 36.4463 30.1473 36.453 30.1037 36.4689C30.0601 36.4847 30.0203 36.5094 29.9865 36.5412C29.9528 36.5731 29.926 36.6115 29.9077 36.6541C29.8894 36.6967 29.88 36.7426 29.88 36.789L29.38 42.569C29.38 42.789 29.46 42.899 29.67 42.899H31.1C31.1883 42.8974 31.2732 42.8643 31.3392 42.8056C31.4052 42.7469 31.4481 42.6665 31.46 42.579L31.7 39.869C31.7068 39.6732 31.7557 39.4811 31.8435 39.306C31.9313 39.1309 32.0559 38.9768 32.2088 38.8543C32.3617 38.7318 32.5393 38.6438 32.7293 38.5963C32.9194 38.5487 33.1175 38.5429 33.31 38.579C33.1629 38.9258 33.0718 39.2937 33.04 39.669C32.9841 40.1149 33.0291 40.5677 33.1716 40.9939C33.3141 41.4201 33.5506 41.8089 33.8636 42.1314C34.1765 42.454 34.5579 42.7021 34.9796 42.8574C35.4014 43.0128 35.8526 43.0714 36.3 43.029C37.2473 43.0662 38.1728 42.7384 38.8855 42.1132C39.5981 41.488 40.0436 40.6131 40.13 39.669C40.1827 39.2302 40.1377 38.7851 39.9984 38.3657C39.859 37.9462 39.6287 37.5628 39.3239 37.2427C39.0192 36.9226 38.6474 36.6739 38.2353 36.5142C37.8232 36.3545 37.3809 36.2878 36.94 36.319ZM38.05 39.689C38.0425 40.0969 37.8785 40.4864 37.5918 40.7768C37.3052 41.0672 36.9179 41.2362 36.51 41.249C36.3176 41.2484 36.1276 41.2051 35.9539 41.1223C35.7803 41.0394 35.6271 40.919 35.5056 40.7697C35.3841 40.6205 35.2972 40.4461 35.2513 40.2592C35.2054 40.0723 35.2015 39.8775 35.24 39.689C35.2503 39.282 35.4171 38.8948 35.7059 38.6079C35.9947 38.321 36.383 38.1566 36.79 38.149C36.9801 38.1498 37.1677 38.1926 37.3394 38.2744C37.511 38.3562 37.6625 38.4749 37.7829 38.6221C37.9033 38.7692 37.9897 38.9412 38.0359 39.1256C38.082 39.3101 38.0869 39.5024 38.05 39.689Z" fill="white"/>
<path d="M40.99 22.9894H38.99C38.9271 22.9853 38.8641 22.9941 38.8048 23.0154C38.7455 23.0367 38.6911 23.0699 38.6452 23.113C38.5992 23.1562 38.5627 23.2083 38.5377 23.2662C38.5127 23.324 38.4999 23.3864 38.5 23.4494L38.01 29.1394C38.0294 28.5807 37.9314 28.0241 37.7224 27.5055C37.5135 26.987 37.1981 26.518 36.7967 26.1289C36.3953 25.7397 35.9168 25.439 35.392 25.2462C34.8672 25.0534 34.3079 24.9727 33.75 25.0094C32.569 24.9893 31.4189 25.3879 30.5037 26.1347C29.5885 26.8816 28.9672 27.9283 28.75 29.0894L29.25 23.4494C29.2615 23.3891 29.2586 23.327 29.2415 23.2681C29.2244 23.2091 29.1937 23.1551 29.1518 23.1102C29.1099 23.0654 29.058 23.0311 29.0003 23.0101C28.9427 22.9891 28.8809 22.982 28.82 22.9894H26.88C26.816 22.9822 26.7512 22.9889 26.69 23.0089C26.6287 23.0289 26.5726 23.0618 26.5252 23.1054C26.4778 23.149 26.4403 23.2023 26.4153 23.2616C26.3902 23.321 26.3782 23.385 26.38 23.4494L26.14 26.1494C25.8242 25.7259 25.4115 25.3842 24.9366 25.1528C24.4616 24.9215 23.9382 24.8071 23.41 24.8194C22.3414 24.874 21.3268 25.306 20.5467 26.0384C19.7667 26.7709 19.2717 27.7563 19.15 28.8194L19.2 28.2794C19.41 25.8394 18.29 24.7594 15.56 24.7594C13.09 24.7594 11.64 25.6894 11.27 27.5294C11.2552 27.5883 11.2547 27.65 11.2686 27.7091C11.2826 27.7683 11.3105 27.8232 11.35 27.8694C11.3902 27.9143 11.4396 27.9501 11.4948 27.9743C11.55 27.9984 11.6098 28.0104 11.67 28.0094H13.45C13.5384 28.0081 13.6243 27.9795 13.6958 27.9276C13.7674 27.8757 13.8212 27.803 13.85 27.7194C14.05 27.1494 14.44 26.9194 15.24 26.9194C16.04 26.9194 16.43 27.1794 16.4 27.5694C16.37 27.9594 16.22 28.1994 15.12 28.3494C12.94 28.6694 11.3 29.0394 10.77 30.6594C10.8964 30.2355 10.9801 29.8 11.02 29.3594C11.25 26.7194 9.77002 24.7794 7.49002 24.7794C6.92284 24.7789 6.36204 24.899 5.84482 25.1317C5.32759 25.3645 4.86578 25.7046 4.49002 26.1294L4.56003 25.4194C4.57301 25.3607 4.57186 25.2997 4.55667 25.2415C4.54148 25.1833 4.51265 25.1295 4.47262 25.0846C4.43259 25.0397 4.38247 25.0049 4.32638 24.9831C4.27029 24.9614 4.20984 24.9532 4.14999 24.9594H2.14999C2.08711 24.9553 2.02407 24.9642 1.96475 24.9854C1.90543 25.0067 1.85115 25.0399 1.8052 25.083C1.75926 25.1262 1.72263 25.1783 1.69766 25.2362C1.67269 25.294 1.65987 25.3564 1.66 25.4194L0.800017 35.3294C0.785042 35.3875 0.784409 35.4483 0.798186 35.5067C0.811962 35.5651 0.839755 35.6193 0.879118 35.6646C0.918481 35.7098 0.968232 35.7448 1.02414 35.7666C1.08004 35.7883 1.14044 35.7962 1.20004 35.7894H3.20004C3.26292 35.7935 3.32596 35.7846 3.38528 35.7634C3.4446 35.7421 3.49888 35.7089 3.54483 35.6657C3.59077 35.6226 3.6274 35.5705 3.65237 35.5126C3.67734 35.4548 3.69017 35.3924 3.69003 35.3294L3.93002 32.6094C4.2408 33.0397 4.65189 33.3875 5.12765 33.6228C5.60342 33.8581 6.12944 33.9736 6.66 33.9594C7.59216 33.9264 8.489 33.5946 9.21823 33.013C9.94745 32.4314 10.4704 31.6309 10.71 30.7294C10.6453 30.9757 10.5985 31.2264 10.57 31.4794C10.43 33.1894 11.4 34.0894 13.41 34.0894C13.8902 34.1354 14.3748 34.0789 14.8316 33.9238C15.2884 33.7686 15.7071 33.5183 16.06 33.1894V33.3294C16.0513 33.448 16.0869 33.5656 16.16 33.6594C16.2032 33.7226 16.2616 33.7739 16.3297 33.8088C16.3978 33.8438 16.4735 33.8612 16.55 33.8594H18.16C18.3049 33.8577 18.4441 33.8027 18.5511 33.705C18.658 33.6073 18.7253 33.4736 18.74 33.3294L19.04 29.9094C19.04 32.2894 20.47 33.9594 22.59 33.9594C23.1557 33.9624 23.7156 33.8455 24.2327 33.6162C24.7498 33.387 25.2124 33.0506 25.59 32.6294L25.53 33.3194C25.53 33.6194 25.65 33.7794 25.96 33.7794H27.89C27.9542 33.7849 28.0188 33.7772 28.0799 33.7566C28.1409 33.7361 28.1971 33.7033 28.2449 33.6601C28.2927 33.617 28.3311 33.5645 28.3578 33.5059C28.3845 33.4473 28.3989 33.3838 28.4 33.3194L28.69 30.0594C28.6762 30.6157 28.7786 31.1688 28.9908 31.6833C29.2029 32.1978 29.52 32.6623 29.9219 33.0472C30.3238 33.4322 30.8015 33.7291 31.3247 33.9188C31.8478 34.1086 32.4048 34.1871 32.96 34.1494C33.8882 34.1749 34.8047 33.9366 35.6029 33.4622C36.4012 32.9879 37.0486 32.2969 37.47 31.4694C37.63 31.1494 37.47 30.9394 37.15 30.9394H35.24C35.1457 30.9292 35.0504 30.9431 34.9629 30.9798C34.8755 31.0166 34.7988 31.0749 34.74 31.1494C34.5812 31.4166 34.3536 31.6364 34.081 31.7859C33.8084 31.9354 33.5008 32.0091 33.19 31.9994C32.26 31.9994 31.65 31.3094 31.57 30.2094H37.55C37.6545 30.2272 37.7619 30.2038 37.8495 30.1441C37.9371 30.0844 37.9982 29.9932 38.02 29.8894L37.72 33.3194C37.7046 33.3784 37.704 33.4403 37.7182 33.4996C37.7325 33.5589 37.7612 33.6138 37.8017 33.6593C37.8423 33.7048 37.8935 33.7396 37.9508 33.7605C38.008 33.7815 38.0697 33.788 38.13 33.7794H40.13C40.1929 33.7835 40.256 33.7747 40.3153 33.7534C40.3746 33.7321 40.4289 33.6989 40.4749 33.6557C40.5208 33.6126 40.5574 33.5605 40.5824 33.5027C40.6073 33.4448 40.6202 33.3824 40.62 33.3194L41.49 23.4094C41.5006 23.3444 41.4941 23.2778 41.4712 23.2161C41.4483 23.1543 41.4098 23.0996 41.3594 23.0573C41.309 23.0149 41.2484 22.9864 41.1837 22.9745C41.1189 22.9626 41.0522 22.9677 40.99 22.9894ZM8.55002 29.3994C8.53751 29.9569 8.31182 30.4885 7.91934 30.8847C7.52686 31.2809 6.99744 31.5116 6.44003 31.5294C6.1762 31.5301 5.91547 31.4721 5.67679 31.3597C5.4381 31.2473 5.22739 31.0832 5.0599 30.8794C4.89242 30.6755 4.77238 30.437 4.7084 30.181C4.64443 29.9251 4.63815 29.6581 4.69003 29.3994C4.71004 28.8444 4.94012 28.3178 5.33371 27.9261C5.72729 27.5344 6.25499 27.3068 6.81003 27.2894C7.07097 27.2907 7.32844 27.3494 7.56418 27.4613C7.79991 27.5732 8.00814 27.7356 8.17416 27.9369C8.34018 28.1382 8.45992 28.3736 8.52487 28.6263C8.58982 28.8791 8.5984 29.143 8.55002 29.3994ZM16.23 30.4594C16.1831 30.8905 15.9847 31.291 15.67 31.5894C15.2814 31.9383 14.7718 32.1213 14.25 32.0994C13.69 32.0994 13.42 31.8594 13.46 31.3794C13.5 30.8994 13.78 30.5394 15.09 30.2694C15.5026 30.2066 15.9058 30.0924 16.29 29.9294L16.23 30.4594ZM25.58 29.3994C25.5725 29.9568 25.3497 30.4897 24.9583 30.8867C24.567 31.2837 24.0373 31.514 23.48 31.5294C23.2162 31.5301 22.9555 31.4721 22.7168 31.3597C22.4781 31.2473 22.2674 31.0832 22.0999 30.8794C21.9325 30.6755 21.8124 30.437 21.7484 30.181C21.6844 29.9251 21.6781 29.6581 21.73 29.3994C21.75 28.8444 21.9801 28.3178 22.3737 27.9261C22.7673 27.5344 23.295 27.3068 23.85 27.2894C24.1081 27.2948 24.3619 27.3566 24.5937 27.4704C24.8254 27.5843 25.0294 27.7475 25.1914 27.9485C25.3534 28.1496 25.4694 28.3836 25.5313 28.6343C25.5933 28.8849 25.5997 29.146 25.55 29.3994H25.58ZM31.87 28.5094C32.0025 28.1236 32.2497 27.7875 32.5786 27.5462C32.9075 27.3049 33.3022 27.1699 33.71 27.1594C34.0944 27.1547 34.4676 27.2885 34.7614 27.5364C35.0552 27.7843 35.25 28.1297 35.31 28.5094H31.87Z" fill="white"/>
<path d="M14.77 22.9893C14.6769 22.989 14.5871 23.0238 14.5185 23.0868C14.4499 23.1499 14.4076 23.2364 14.4 23.3293L14.35 23.8393C14.3473 23.8829 14.3535 23.9267 14.3684 23.9679C14.3832 24.009 14.4064 24.0467 14.4364 24.0786C14.4664 24.1105 14.5026 24.1358 14.5428 24.1531C14.583 24.1705 14.6263 24.1793 14.67 24.1793H16.81C16.9032 24.1796 16.993 24.1448 17.0616 24.0817C17.1302 24.0187 17.1725 23.9321 17.18 23.8393V23.3293C17.1842 23.2861 17.1793 23.2426 17.1656 23.2014C17.1519 23.1603 17.1298 23.1224 17.1006 23.0904C17.0714 23.0584 17.0357 23.0328 16.996 23.0154C16.9563 22.998 16.9134 22.9891 16.87 22.9893H14.77Z" fill="white"/>
<path d="M19.28 20.6092C19.8967 20.6897 20.5181 20.7297 21.1401 20.7292C21.772 20.7298 22.4032 20.6897 23.03 20.6092C24.494 20.4061 25.89 19.8624 27.1057 19.0218C28.3214 18.1812 29.323 17.0672 30.03 15.7692C31.3648 13.3634 32.0957 10.6697 32.16 7.91923C32.1979 6.6263 31.8231 5.35489 31.09 4.28922C28.99 1.36922 25.4701 0.719207 22.8901 0.679207C21.2534 0.63983 19.6262 0.940323 18.1116 1.56168C16.5969 2.18304 15.2275 3.11178 14.09 4.28922C13.1935 5.31542 12.6043 6.57351 12.3901 7.91923C11.9664 10.557 12.2245 13.2594 13.1401 15.7692C13.6233 17.0601 14.4512 18.1939 15.5337 19.0472C16.6163 19.9005 17.9119 20.4408 19.28 20.6092ZM25.0101 6.80921C25.0443 6.47045 25.2017 6.15605 25.4524 5.92564C25.7031 5.69522 26.0296 5.56483 26.37 5.55921C26.5299 5.55689 26.6885 5.58853 26.8353 5.65205C26.982 5.71556 27.1136 5.8095 27.2214 5.92765C27.3291 6.0458 27.4106 6.18547 27.4603 6.33744C27.5101 6.48941 27.5271 6.65021 27.5101 6.80921C27.4758 7.14797 27.3184 7.46238 27.0677 7.69279C26.817 7.9232 26.4905 8.05359 26.15 8.05921C25.9901 8.06153 25.8316 8.02989 25.6848 7.96638C25.538 7.90286 25.4064 7.80892 25.2987 7.69077C25.1909 7.57262 25.1095 7.43295 25.0597 7.28098C25.01 7.12901 24.9931 6.96821 25.0101 6.80921ZM24.67 10.7092C24.7043 10.3704 24.8617 10.056 25.1124 9.82563C25.363 9.59522 25.6896 9.46483 26.03 9.45921C26.1899 9.45688 26.3485 9.48853 26.4952 9.55204C26.642 9.61555 26.7736 9.70949 26.8813 9.82764C26.9891 9.9458 27.0706 10.0855 27.1203 10.2374C27.1701 10.3894 27.187 10.5502 27.17 10.7092C27.1358 11.048 26.9784 11.3624 26.7277 11.5928C26.477 11.8232 26.1505 11.9536 25.81 11.9592C25.6483 11.9619 25.4878 11.9298 25.3395 11.8651C25.1912 11.8004 25.0585 11.7046 24.9504 11.5842C24.8423 11.4638 24.7614 11.3216 24.713 11.1672C24.6646 11.0128 24.65 10.8498 24.67 10.6892V10.7092ZM24.3301 14.6092C24.3643 14.2705 24.5217 13.956 24.7724 13.7256C25.0231 13.4952 25.3496 13.3649 25.6901 13.3592C25.8499 13.3569 26.0085 13.3885 26.1553 13.452C26.302 13.5155 26.4336 13.6095 26.5414 13.7276C26.6491 13.8458 26.7306 13.9855 26.7803 14.1375C26.8301 14.2894 26.8471 14.4502 26.8301 14.6092C26.7958 14.948 26.6384 15.2624 26.3877 15.4928C26.137 15.7232 25.8105 15.8536 25.47 15.8592C25.3101 15.8616 25.1516 15.8299 25.0048 15.7664C24.8581 15.7029 24.7265 15.6089 24.6187 15.4908C24.5109 15.3726 24.4295 15.233 24.3797 15.081C24.33 14.929 24.3131 14.7682 24.3301 14.6092ZM21.11 6.80921C21.1443 6.47045 21.3017 6.15605 21.5524 5.92564C21.803 5.69522 22.1296 5.56483 22.47 5.55921C22.6299 5.55689 22.7885 5.58853 22.9352 5.65205C23.082 5.71556 23.2136 5.8095 23.3213 5.92765C23.4291 6.0458 23.5106 6.18547 23.5604 6.33744C23.6101 6.48941 23.627 6.65021 23.61 6.80921C23.5758 7.14797 23.4184 7.46238 23.1677 7.69279C22.917 7.9232 22.5905 8.05359 22.25 8.05921C22.0902 8.06153 21.9316 8.02989 21.7848 7.96638C21.6381 7.90286 21.5065 7.80892 21.3987 7.69077C21.291 7.57262 21.2095 7.43295 21.1597 7.28098C21.11 7.12901 21.093 6.96821 21.11 6.80921ZM20.77 10.7092C20.8043 10.3704 20.9617 10.056 21.2124 9.82563C21.4631 9.59522 21.7896 9.46483 22.1301 9.45921C22.2899 9.45688 22.4485 9.48853 22.5953 9.55204C22.742 9.61555 22.8736 9.70949 22.9814 9.82764C23.0891 9.9458 23.1706 10.0855 23.2203 10.2374C23.2701 10.3894 23.287 10.5502 23.27 10.7092C23.2358 11.048 23.0784 11.3624 22.8277 11.5928C22.577 11.8232 22.2505 11.9536 21.91 11.9592C21.7482 11.9619 21.5878 11.9298 21.4395 11.8651C21.2912 11.8004 21.1585 11.7046 21.0504 11.5842C20.9423 11.4638 20.8613 11.3216 20.813 11.1672C20.7646 11.0128 20.7499 10.8498 20.77 10.6892V10.7092ZM20.43 14.6092C20.4643 14.2705 20.6217 13.956 20.8724 13.7256C21.123 13.4952 21.4496 13.3649 21.79 13.3592C21.9499 13.3569 22.1085 13.3885 22.2552 13.452C22.402 13.5155 22.5336 13.6095 22.6413 13.7276C22.7491 13.8458 22.8306 13.9855 22.8804 14.1375C22.9301 14.2894 22.947 14.4502 22.93 14.6092C22.8958 14.948 22.7384 15.2624 22.4877 15.4928C22.237 15.7232 21.9105 15.8536 21.5701 15.8592C21.4102 15.8616 21.2516 15.8299 21.1048 15.7664C20.9581 15.7029 20.8265 15.6089 20.7187 15.4908C20.611 15.3726 20.5295 15.233 20.4797 15.081C20.43 14.929 20.413 14.7682 20.43 14.6092ZM17.21 6.80921C17.2443 6.47045 17.4017 6.15605 17.6524 5.92564C17.9031 5.69522 18.2296 5.56483 18.5701 5.55921C18.7299 5.55689 18.8885 5.58853 19.0353 5.65205C19.182 5.71556 19.3136 5.8095 19.4214 5.92765C19.5291 6.0458 19.6106 6.18547 19.6603 6.33744C19.7101 6.48941 19.727 6.65021 19.71 6.80921C19.6758 7.14797 19.5184 7.46238 19.2677 7.69279C19.017 7.9232 18.6905 8.05359 18.35 8.05921C18.1901 8.06153 18.0316 8.02989 17.8848 7.96638C17.7381 7.90286 17.6065 7.80892 17.4987 7.69077C17.391 7.57262 17.3095 7.43295 17.2598 7.28098C17.21 7.12901 17.193 6.96821 17.21 6.80921ZM16.87 10.7092C16.9043 10.3704 17.0617 10.056 17.3124 9.82563C17.5631 9.59522 17.8896 9.46483 18.23 9.45921C18.3899 9.45688 18.5485 9.48853 18.6952 9.55204C18.842 9.61555 18.9736 9.70949 19.0813 9.82764C19.1891 9.9458 19.2705 10.0855 19.3203 10.2374C19.3701 10.3894 19.387 10.5502 19.37 10.7092C19.3358 11.048 19.1784 11.3624 18.9277 11.5928C18.677 11.8232 18.3505 11.9536 18.0101 11.9592C17.8483 11.9619 17.6878 11.9298 17.5395 11.8651C17.3912 11.8004 17.2585 11.7046 17.1504 11.5842C17.0423 11.4638 16.9614 11.3216 16.913 11.1672C16.8646 11.0128 16.85 10.8498 16.87 10.6892V10.7092ZM16.53 14.6092C16.5643 14.2705 16.7217 13.956 16.9723 13.7256C17.223 13.4952 17.5496 13.3649 17.8901 13.3592C18.05 13.3569 18.2085 13.3885 18.3553 13.452C18.502 13.5155 18.6336 13.6095 18.7414 13.7276C18.8491 13.8458 18.9306 13.9855 18.9803 14.1375C19.0301 14.2894 19.047 14.4502 19.03 14.6092C18.9958 14.948 18.8384 15.2624 18.5877 15.4928C18.337 15.7232 18.0105 15.8536 17.67 15.8592C17.5118 15.8587 17.3555 15.825 17.2111 15.7602C17.0668 15.6955 16.9377 15.6011 16.8321 15.4833C16.7265 15.3655 16.6468 15.2268 16.5983 15.0762C16.5497 14.9256 16.5332 14.7665 16.55 14.6092H16.53Z" fill="white"/>
</g>
<defs>
<clipPath id="clip0_66_1142">
<rect width="41.14" height="42.35" fill="white" transform="translate(0.26001 0.679199)"/>
</clipPath>
</defs>
</svg>
