<svg width="46" height="16" viewBox="0 0 46 16" fill="none" xmlns="http://www.w3.org/2000/svg">
<g clip-path="url(#clip0_66_1144)">
<path d="M43.0561 10.4956C43.5585 10.4956 44.0495 10.6446 44.4672 10.9237C44.8849 11.2028 45.2105 11.5995 45.4028 12.0636C45.595 12.5277 45.6453 13.0384 45.5473 13.5312C45.4493 14.0239 45.2074 14.4764 44.8522 14.8317C44.4969 15.1869 44.0443 15.4288 43.5516 15.5268C43.0589 15.6248 42.5482 15.5745 42.0841 15.3823C41.62 15.19 41.2233 14.8645 40.9442 14.4468C40.6651 14.0291 40.5161 13.538 40.5161 13.0356C40.5161 12.362 40.7837 11.7159 41.2601 11.2396C41.7364 10.7632 42.3824 10.4956 43.0561 10.4956Z" fill="white"/>
<path d="M7.46614 7.39596V10.7559H10.2261C10.002 11.0588 9.71155 11.3063 9.37703 11.4797C9.04251 11.653 8.67276 11.7475 8.2961 11.7559C6.2161 11.7559 5.1761 10.5759 5.1761 8.18594C5.1761 5.54594 6.55614 4.18594 9.27614 4.18594C10.6387 4.24175 11.9859 4.49437 13.2761 4.93594V0.93594C12.6274 0.708764 11.9573 0.547961 11.2761 0.45596C10.5126 0.328617 9.7402 0.261731 8.96614 0.255947C6.61661 0.132079 4.30875 0.912088 2.51613 2.43594C1.06874 3.92219 0.214838 5.88648 0.115373 7.95868C0.0159075 10.0309 0.67771 12.0679 1.97609 13.6859C2.62929 14.3593 3.41835 14.8859 4.29079 15.2307C5.16322 15.5755 6.09904 15.7307 7.03609 15.6859C9.16609 15.6859 11.1161 14.586 11.7461 13.176V15.4359H14.8261V7.43594L7.46614 7.39596Z" fill="white"/>
<path d="M16.3961 15.3958V0.46582H21.1761V11.5058H26.3961V15.3958H16.3961Z" fill="white"/>
<path d="M27.9161 15.0158V10.9358C28.7252 11.1879 29.5504 11.3851 30.3861 11.5258C31.1885 11.6687 32.0012 11.7456 32.8161 11.7558C33.9861 11.7558 34.5861 11.4558 34.5861 10.9358C34.5861 10.6058 34.3961 10.4458 33.5861 10.2558L31.9261 9.87578C29.0761 9.23578 27.7461 7.79577 27.7461 5.36577C27.716 4.64789 27.8498 3.93261 28.1375 3.27419C28.4251 2.61576 28.859 2.0315 29.4061 1.56578C30.7247 0.585808 32.346 0.100848 33.9861 0.195786C35.5385 0.231071 37.0833 0.425407 38.5961 0.775773V4.66579C37.8224 4.46175 37.0378 4.30149 36.2461 4.18578C35.5193 4.05893 34.7837 3.98873 34.0461 3.97579C33.0461 3.97579 32.4461 4.26578 32.4461 4.78578C32.4461 5.09578 32.7161 5.3058 33.2761 5.4558L35.2061 5.90578C38.0361 6.57578 39.3461 8.02578 39.3461 10.5058C39.374 11.2216 39.2317 11.9337 38.931 12.5839C38.6302 13.234 38.1796 13.8036 37.6161 14.2458C36.239 15.2305 34.5662 15.714 32.8761 15.6158C31.2154 15.6371 29.5597 15.4284 27.9561 14.9958" fill="white"/>
</g>
<defs>
<clipPath id="clip0_66_1144">
<rect width="45.42" height="15.43" fill="white" transform="translate(0.166077 0.21582)"/>
</clipPath>
</defs>
</svg>
