<svg width="139" height="24" viewBox="0 0 139 24" fill="none" xmlns="http://www.w3.org/2000/svg">
<g clip-path="url(#clip0_66_1136)">
<path d="M95.7201 6.68359C92.5236 6.68359 90.5378 8.56062 90.5378 11.5938C90.5378 14.627 92.5236 16.5177 95.7201 16.5177C96.3951 16.5876 97.0771 16.5102 97.7193 16.291C98.3615 16.0717 98.9486 15.7158 99.4399 15.2477C99.9312 14.7796 100.315 14.2106 100.565 13.5798C100.815 12.949 100.926 12.2714 100.889 11.5938C100.889 8.56062 98.9029 6.68359 95.7201 6.68359ZM95.7201 14.8447C95.0825 14.8447 94.4592 14.6556 93.9291 14.3014C93.399 13.9472 92.9858 13.4437 92.7418 12.8547C92.4979 12.2656 92.434 11.6175 92.5584 10.9922C92.6828 10.3668 92.9898 9.79244 93.4406 9.34161C93.8915 8.89078 94.4659 8.58375 95.0912 8.45937C95.7165 8.33498 96.3647 8.39881 96.9537 8.6428C97.5428 8.88679 98.0462 9.29997 98.4004 9.83009C98.7546 10.3602 98.9437 10.9835 98.9437 11.6211C98.9859 12.0549 98.9315 12.4927 98.7845 12.903C98.6374 13.3133 98.4013 13.6859 98.0931 13.9941C97.7849 14.3023 97.4123 14.5384 97.002 14.6855C96.5917 14.8325 96.1539 14.8869 95.7201 14.8447Z" fill="white"/>
<path d="M87.0557 6.90088H78.269L78.2418 8.64191H81.7102V16.2997H83.6145V8.64191H87.0829L87.0557 6.90088Z" fill="white"/>
<path d="M114.559 10.0429V16.2997H116.449V6.90088H114.151L111.009 12.464L107.799 6.90088H105.541V16.2997H107.418V10.0429H107.622L107.663 10.0973L110.941 15.7693H110.995L114.341 10.0429H114.559Z" fill="white"/>
<path d="M72.6923 6.90088L69.8087 11.1446H69.5366L69.4958 11.0902L66.7074 6.90088H64.4904L68.7069 13.0489V16.2997H70.6112V13.0081L70.6248 12.9809L74.8277 6.90088H72.6923Z" fill="white"/>
<path d="M123.658 6.90088H121.754V16.2997H123.658V6.90088Z" fill="white"/>
<path d="M41.136 6.90088V16.2997H48.4538L48.5218 14.5587H43.0539V6.90088H41.136Z" fill="white"/>
<path d="M33.383 6.90086H28.432V16.2997H30.3362V13.7018H33.1518C33.6254 13.762 34.1065 13.7158 34.56 13.5665C35.0134 13.4173 35.4279 13.1688 35.7732 12.8392C36.1185 12.5095 36.3859 12.107 36.556 11.6609C36.7261 11.2148 36.7945 10.7364 36.7563 10.2605C36.801 9.80705 36.7443 9.34933 36.5904 8.92046C36.4365 8.49158 36.1892 8.10228 35.8663 7.78073C35.5435 7.45919 35.1533 7.21342 34.7238 7.06125C34.2943 6.90907 33.8363 6.8543 33.383 6.90086ZM33.2198 12.0015H30.3362V8.60108H33.1518C33.3823 8.57084 33.6166 8.59469 33.8362 8.67078C34.0558 8.74686 34.2547 8.8731 34.4171 9.03942C34.5795 9.20575 34.7008 9.40758 34.7716 9.62898C34.8424 9.85038 34.8606 10.0853 34.8248 10.3149C34.8489 10.5353 34.8248 10.7583 34.7538 10.9683C34.6829 11.1784 34.5669 11.3704 34.414 11.531C34.2612 11.6916 34.0752 11.8169 33.8689 11.8982C33.6626 11.9794 33.4411 12.0147 33.2198 12.0015Z" fill="white"/>
<path d="M55.5812 6.90088L51.9223 16.2997H53.8674L54.7379 14.0146H59.4849L60.3554 16.2997H62.3413L58.6961 6.90088H55.5812ZM55.3772 12.3416L56.7374 8.65552H57.3766L58.7368 12.3416H55.3772Z" fill="white"/>
<path d="M136.185 13.1172C135.994 13.6684 135.62 14.1377 135.125 14.4469C134.63 14.7562 134.045 14.8869 133.465 14.8174C132.648 14.7643 131.882 14.4022 131.322 13.8048C130.762 13.2074 130.451 12.4193 130.451 11.6005C130.451 10.7818 130.762 9.99378 131.322 9.39635C131.882 8.79893 132.648 8.43688 133.465 8.38373C134.034 8.31578 134.609 8.4521 135.088 8.76844C135.566 9.08478 135.916 9.56059 136.077 10.1111H138.171C137.938 9.06276 137.329 8.13587 136.46 7.50469C135.591 6.8735 134.521 6.58149 133.452 6.6835C130.255 6.6835 128.269 8.56053 128.269 11.5937C128.269 14.6269 130.255 16.5176 133.452 16.5176C134.519 16.6131 135.585 16.3223 136.456 15.6983C137.327 15.0743 137.945 14.1584 138.199 13.1172H136.185Z" fill="white"/>
<path d="M9.00856 0.915568H0.0449219V18.6659H4.95524V23.7666H9.03579C9.89843 23.8012 10.7594 23.6646 11.569 23.3649C12.3787 23.0652 13.121 22.6082 13.7532 22.0203C14.3854 21.4323 14.8949 20.7251 15.2525 19.9393C15.6101 19.1535 15.8087 18.3046 15.8367 17.4418V7.2404C15.8087 6.37513 15.6093 5.52399 15.25 4.73635C14.8907 3.9487 14.3787 3.24021 13.7435 2.65191C13.1084 2.0636 12.3629 1.60722 11.5501 1.30916C10.7373 1.0111 9.87343 0.87732 9.00856 0.915568ZM8.21963 22.1888H6.53302V13.5789H8.21963V22.1888ZM14.1636 17.4418C14.1214 18.6181 13.6569 19.7399 12.8551 20.6017C12.0532 21.4635 10.9678 22.0076 9.79748 22.1344V18.6251C10.6631 18.5491 11.5019 18.2859 12.2558 17.8538C13.0096 17.4217 13.6606 16.8309 14.1636 16.1224V17.4418ZM14.1636 12.3411C14.1186 13.5166 13.6531 14.6369 12.8518 15.4981C12.0505 16.3593 10.9667 16.9042 9.79748 17.0337V13.4836C10.6638 13.4103 11.5036 13.1483 12.2578 12.7159C13.0121 12.2836 13.6625 11.6914 14.1636 10.9809V12.3411ZM9.00856 12.001H4.92801V17.0881H1.59555V2.49338H8.98133C9.63676 2.4438 10.2954 2.53007 10.9159 2.74684C11.5365 2.96361 12.1056 3.3062 12.5876 3.75311C13.0696 4.20003 13.4541 4.74163 13.7171 5.34405C13.98 5.94646 14.1157 6.59671 14.1157 7.25402C14.1157 7.91133 13.98 8.56154 13.7171 9.16395C13.4541 9.76637 13.0696 10.308 12.5876 10.7549C12.1056 11.2018 11.5365 11.5444 10.9159 11.7612C10.2954 11.9779 9.63676 12.0642 8.98133 12.0147L9.00856 12.001Z" fill="white"/>
</g>
<defs>
<clipPath id="clip0_66_1136">
<rect width="138.222" height="22.8511" fill="white" transform="translate(0.0449219 0.916016)"/>
</clipPath>
</defs>
</svg>
