<svg width="199" height="145" viewBox="0 0 199 145" fill="none" xmlns="http://www.w3.org/2000/svg">
<g clip-path="url(#clip0_66_1130)">
<path d="M117.093 144.441C117.56 143.867 117.813 143.148 117.807 142.408V130.789C117.815 130.048 117.562 129.328 117.093 128.755L116.895 128.517H122.788L125.06 134.856H125.563L127.716 128.517H133.847L133.649 128.755C133.166 129.324 132.9 130.044 132.896 130.789V142.408C132.902 143.153 133.168 143.872 133.649 144.441L133.847 144.679H127.822L128.02 144.441C128.421 143.842 128.607 143.126 128.549 142.408V134.486H128.047L126.302 139.767H124.241L122.352 134.486H121.863V142.408C121.85 143.156 122.119 143.882 122.616 144.441L122.814 144.679H116.908L117.093 144.441ZM65.153 144.679H73.7282C76.45 144.679 77.9299 143.24 77.9299 140.718V132.452C77.9299 129.93 76.45 128.491 73.7282 128.491H65.153L65.3512 128.729C65.8337 129.297 66.1003 130.017 66.1043 130.762V142.381C66.0981 143.126 65.8317 143.845 65.3512 144.415L65.153 144.679ZM70.7024 141.933V131.264H72.2483C73.2129 131.264 73.3318 131.872 73.3318 132.268V140.929C73.3318 141.326 73.2129 141.933 72.2483 141.933H70.7024ZM80.9292 144.679H86.1219L86.003 144.441C85.7322 143.828 85.6495 143.148 85.7652 142.487L85.9237 141.246H88.9891L89.1873 142.646C89.2804 143.259 89.1835 143.885 88.9098 144.441L88.7909 144.679H94.2875L94.0497 144.362C93.7759 143.731 93.6192 143.056 93.5872 142.368L91.7506 130.907C91.6051 130.218 91.6461 129.503 91.8695 128.835L91.9885 128.517H83.2811L83.4397 128.835C83.7165 129.545 83.7762 130.322 83.6114 131.066L81.8013 142.646C81.7239 143.197 81.5351 143.728 81.2463 144.204L80.9292 144.679ZM86.2805 138.5L87.2054 131.343H87.7075L88.6324 138.5H86.2805ZM96.9829 144.679H102.902L102.704 144.441C102.203 143.883 101.93 143.158 101.938 142.408V134.486H102.44L104.329 139.767H106.391L108.121 134.486H108.624V142.408C108.688 143.126 108.501 143.845 108.095 144.441L107.897 144.679H113.948L113.75 144.441C113.26 143.877 112.988 143.155 112.984 142.408V130.789C112.986 130.041 113.258 129.319 113.75 128.755L113.948 128.517H107.804L105.651 134.856H105.162L102.876 128.517H96.9829L97.1811 128.755C97.6602 129.324 97.9182 130.046 97.9078 130.789V142.408C97.9158 143.15 97.6581 143.872 97.1811 144.441L96.9829 144.679ZM0 123.408H21.2596V116.185L20.7707 116.582C19.7231 117.51 18.3498 117.985 16.9522 117.902H10.7025V110.099H14.6664C16.064 110.016 17.4373 110.491 18.4849 111.419L18.9738 111.815V102.876L18.4849 103.272C17.9698 103.738 17.3662 104.094 16.7102 104.321C16.0541 104.548 15.359 104.64 14.6664 104.593H10.7025V96.6705H16.9522C17.6448 96.6229 18.3399 96.7151 18.996 96.9419C19.6521 97.1688 20.2557 97.5257 20.7707 97.9909L21.2596 98.3738V91.1511H0L0.383176 91.6398C0.848944 92.1517 1.20613 92.7521 1.43322 93.4057C1.66031 94.0592 1.75258 94.7522 1.70447 95.4423V119.209C1.75413 119.899 1.66258 120.593 1.43542 121.246C1.20825 121.9 0.850235 122.501 0.383176 123.012L0 123.408ZM24.0343 99.9714C23.9555 101.608 24.3024 103.237 25.0411 104.699C25.7797 106.162 26.8851 107.408 28.2493 108.316L31.9621 110.957C34.935 113.109 35.926 113.941 35.926 115.407C35.926 117.308 34.1554 118.047 31.5657 118.047C29.4895 118.013 27.4496 117.498 25.6067 116.542L24.14 115.71V123.765L24.8271 123.566C25.7159 123.309 26.6369 123.18 27.5622 123.184C29.1742 123.184 31.5261 123.527 33.7194 123.527C40.709 123.527 44.6729 120.398 44.6729 114.443C44.6807 112.698 44.2386 110.981 43.3893 109.457C42.5399 107.933 41.312 106.653 39.8238 105.741L36.1109 103.1C33.9176 101.529 32.7416 100.658 32.7416 99.1391C32.7416 97.6207 33.8647 96.4984 36.5602 96.4984C38.4173 96.5345 40.2352 97.0391 41.8454 97.9645L43.2591 98.7826V90.8604L42.5853 91.0589C41.784 91.2472 40.964 91.3443 40.1409 91.349C38.6214 91.349 36.3224 91.0061 34.1687 91.0061C27.9189 91.0061 24.1004 93.9902 24.1004 99.9979M46.0999 98.5847L46.6417 98.1888C47.9797 97.1466 49.6361 96.5961 51.3322 96.6305H53.0367V118.945C53.0652 119.669 52.9503 120.392 52.6986 121.072C52.4469 121.751 52.0634 122.375 51.5701 122.906L51.1869 123.395H64.0827L63.6864 122.906C62.695 121.83 62.168 120.407 62.2197 118.945V96.6305H63.8845C65.5807 96.5961 67.2371 97.1466 68.5751 98.1888L69.1169 98.5847V91.1118H46.0339L46.0999 98.5847ZM71.5084 123.435H83.9286L83.5322 122.946C83.0651 122.435 82.7071 121.834 82.4799 121.181C82.2528 120.527 82.1612 119.834 82.2109 119.143V110.297H84.5099L89.4912 123.435H99.7576C98.7422 122.516 97.9434 121.384 97.419 120.12L93.0191 108.99C95.0671 107.669 96.1902 105.372 96.1902 102.15V99.0205C96.1902 93.9371 93.204 91.0983 87.9849 91.0983H71.4423L71.8387 91.5869C72.3045 92.0988 72.6617 92.6993 72.8888 93.3528C73.1159 94.0064 73.2081 94.6993 73.16 95.3895V119.156C73.2097 119.846 73.1181 120.54 72.891 121.193C72.6638 121.847 72.3058 122.448 71.8387 122.959L71.5084 123.435ZM82.2109 104.949V96.4984H85.1441C87.0997 96.4984 87.3507 97.621 87.3507 98.4925V102.889C87.3507 103.774 87.0997 104.949 85.1441 104.949H82.2109ZM102.11 123.435H123.369V116.212L122.88 116.608C121.833 117.536 120.459 118.011 119.062 117.928H112.812V110.125H116.776C118.174 110.042 119.547 110.517 120.594 111.445L121.083 111.841V102.902L120.594 103.299C120.079 103.764 119.476 104.12 118.82 104.347C118.164 104.574 117.469 104.667 116.776 104.619H112.812V96.6969H119.062C119.754 96.6493 120.449 96.7415 121.106 96.9684C121.762 97.1952 122.365 97.5521 122.88 98.0173L123.369 98.4003V91.1776H102.044L102.427 91.6662C102.892 92.1781 103.25 92.7786 103.477 93.4321C103.704 94.0857 103.796 94.7786 103.748 95.4688V119.236C103.798 119.926 103.706 120.619 103.479 121.273C103.252 121.927 102.894 122.527 102.427 123.038L102.11 123.435ZM127.611 123.435H147.43V116.067L146.941 116.45C145.811 117.44 144.347 117.964 142.845 117.915H138.392V95.4688C138.344 94.7786 138.436 94.0857 138.664 93.4321C138.891 92.7786 139.248 92.1781 139.714 91.6662L140.11 91.1776H127.492L127.888 91.6662C128.354 92.1781 128.711 92.7786 128.938 93.4321C129.165 94.0857 129.257 94.7786 129.209 95.4688V119.236C129.259 119.926 129.167 120.619 128.94 121.273C128.713 121.927 128.355 122.527 127.888 123.038L127.611 123.435ZM149.465 123.435H169.218V116.067L168.729 116.45C167.6 117.44 166.135 117.964 164.633 117.915H160.365V95.4688C160.317 94.7786 160.41 94.0857 160.637 93.4321C160.864 92.7786 161.221 92.1781 161.687 91.6662L162.083 91.1776H149.465L149.861 91.6662C150.327 92.1781 150.684 92.7786 150.911 93.4321C151.138 94.0857 151.23 94.7786 151.182 95.4688V119.236C151.232 119.926 151.141 120.619 150.913 121.273C150.686 121.927 150.328 122.527 149.861 123.038L149.465 123.435ZM171.742 123.435H181.955L181.77 122.906C181.274 121.68 181.137 120.339 181.374 119.038L181.665 116.608H187.967L188.311 119.381C188.464 120.574 188.314 121.786 187.875 122.906L187.677 123.435H199.066L198.67 122.801C197.953 121.581 197.473 120.237 197.256 118.84L193.596 95.931C193.357 94.5519 193.42 93.1372 193.781 91.7849L193.979 91.1511H176.419L176.617 91.7849C177.094 93.2323 177.194 94.7772 176.908 96.274L173.288 119.381C173.115 120.474 172.753 121.528 172.217 122.497L171.742 123.435ZM182.405 111.089L184.202 96.8285H185.377L187.24 111.089H182.405Z" fill="white"/>
<path d="M99.5066 65.7736L71.7991 85.8961L82.3694 53.3489L54.6751 33.2264H88.9098L99.5066 0.679199L110.09 33.2264H144.325L116.631 53.3489L127.214 85.8961L99.5066 65.7736Z" fill="white"/>
</g>
<defs>
<clipPath id="clip0_66_1130">
<rect width="199" height="144" fill="white" transform="translate(0 0.679199)"/>
</clipPath>
</defs>
</svg>
