<svg width="104" height="16" viewBox="0 0 104 16" fill="none" xmlns="http://www.w3.org/2000/svg">
<g clip-path="url(#clip0_66_1134)">
<path d="M16.5712 1.01758V4.10518H21.2774V15.6667H24.6099V4.10518H29.3025V1.01758H16.5712Z" fill="#FFFFFC"/>
<path d="M71.3594 1.01758H62.9806V4.13241H71.1417C72.3387 4.13241 72.8012 4.67647 72.8012 6.07746V6.59433H66.0003C63.4295 6.59433 62.1509 7.88649 62.1509 10.7837V11.4774C62.1509 14.4698 63.5111 15.6667 66.1363 15.6667H76.1064V6.03665C76.1064 2.35056 74.8823 1.01758 71.3594 1.01758ZM66.5851 12.5383C66.0819 12.5383 65.5106 12.2799 65.5106 11.0285C65.5106 9.77717 66.0683 9.5459 66.5851 9.5459H72.8556V12.5383H66.5851Z" fill="#FFFFFC"/>
<path d="M98.9982 1.01758H90.6194V4.13241H98.7805C99.9775 4.13241 100.44 4.67647 100.44 6.07746V6.59433H93.6391C91.0683 6.59433 89.7897 7.88649 89.7897 10.7837V11.4774C89.7897 14.4698 91.1499 15.6667 93.7751 15.6667H103.691V6.03665C103.732 2.35056 102.521 1.01758 98.9982 1.01758ZM94.1696 12.5383C93.6663 12.5383 93.095 12.2799 93.095 11.0285C93.095 9.77717 93.6527 9.5459 94.1696 9.5459H100.44V12.5383H94.1696Z" fill="#FFFFFC"/>
<path d="M30.3634 1.01758V4.10518H35.0697V15.6667H38.4021V4.10518H43.0947V1.01758H30.3634Z" fill="#FFFFFC"/>
<path d="M76.7729 1.01758V4.10518H81.4655V15.6667H84.798V4.10518H89.5042V1.01758H76.7729Z" fill="#FFFFFC"/>
<path d="M60.8995 10.5388V6.15906C60.8995 2.30975 59.4169 1.01758 56.0572 1.01758H47.1481V15.6667H56.2068C59.7841 15.6667 60.8995 13.8985 60.8995 10.5388ZM57.499 10.6068C57.499 11.967 57.0365 12.5519 55.8396 12.5519H50.3988V4.13241H55.8396C57.0365 4.13241 57.499 4.69008 57.499 6.09107V10.6068Z" fill="#FFFFFC"/>
<path d="M11.8786 12.1575C11.8786 12.0215 7.36274 3.3571 6.81867 2.50018C6.55048 1.97893 6.13947 1.54481 5.63365 1.24855C5.12783 0.952283 4.54814 0.80614 3.96232 0.827187C2.60214 0.827187 0.997131 1.42566 0.997131 4.6901V15.6532H4.27513V6.51274C4.27513 5.85985 4.27513 4.88052 4.27513 4.6901C4.27513 4.49967 4.27513 4.37723 4.35674 4.32282C4.43835 4.26841 4.54716 4.32281 4.60156 4.48604C4.65597 4.64926 8.7909 12.7559 9.67501 14.1433C9.9441 14.6599 10.3538 15.0898 10.8569 15.3835C11.3599 15.6771 11.9357 15.8225 12.5178 15.8028C13.878 15.8028 15.4966 15.2043 15.4966 11.9398V0.990402H12.1778V10.1308C12.1778 10.7837 12.1778 11.7494 12.1778 11.9535C12.1778 12.1575 12.1778 12.2663 12.0962 12.3071C12.0146 12.3479 11.9466 12.3071 11.8786 12.1575Z" fill="#FFFFFC"/>
</g>
<defs>
<clipPath id="clip0_66_1134">
<rect width="102.735" height="14.9756" fill="white" transform="translate(0.997131 0.854004)"/>
</clipPath>
</defs>
</svg>
