<svg width="60" height="21" viewBox="0 0 60 21" fill="none" xmlns="http://www.w3.org/2000/svg">
<g clip-path="url(#clip0_66_1145)">
<path d="M59.5694 4.56871V4.26151L59.4027 4.18067C59.4521 3.86947 59.4298 3.55153 59.3376 3.24964C59.2454 2.94775 59.0854 2.66938 58.8692 2.43451C58.4904 2.10996 58.0448 1.86718 57.5619 1.72223C57.0791 1.57729 56.57 1.5335 56.0684 1.59377C55.0688 1.61505 54.0718 1.70146 53.0842 1.85246C52.4007 1.85246 51.7505 2.01414 51.267 2.03031L51.117 1.85246C50.3947 1.32525 49.52 1.03119 48.6163 1.01172C46.7491 1.01172 44.7985 4.24535 44.6151 5.42562V5.63581L44.7152 5.81366C44.902 6.138 45.069 6.47272 45.2153 6.81608C44.5055 6.36027 43.6652 6.13389 42.8146 6.16936C42.0899 6.11067 41.3616 6.22772 40.6951 6.50996C40.0287 6.7922 39.4451 7.23077 38.9969 7.78617C38.6922 7.27311 38.2482 6.85103 37.7131 6.56592C37.1781 6.28082 36.5726 6.14364 35.9627 6.16936C35.2466 6.09343 34.5226 6.20484 33.8659 6.492C33.2092 6.77916 32.6438 7.23161 32.2283 7.80234V6.36338H28.0938V17.1799H32.3784V11.327C32.3784 10.2114 32.7451 9.38682 33.8121 9.38682C34.8791 9.38682 35.2292 10.3084 35.2292 11.327V17.1799H39.497V11.327C39.497 10.2114 39.8638 9.38682 40.9474 9.38682C42.0311 9.38682 42.3478 10.3084 42.3478 11.327V17.1799H44.6818V17.2769V17.1799H46.5324V14.9487C46.6367 14.7815 46.7313 14.6087 46.8158 14.4313C47.324 15.7067 47.4903 17.0863 47.2992 18.441L47.0825 18.829L47.3826 19.1524C47.7715 19.5847 48.3122 19.8613 48.8997 19.9285C49.0664 20.3165 49.4832 20.7854 50.5668 20.7854C51.1291 20.779 51.6887 20.7084 52.234 20.5752L52.9675 20.4297L52.7841 19.9931H52.9342C55.1848 19.7506 55.2848 16.0643 55.1848 13.0732C55.6405 12.6942 56 12.2184 56.2351 11.6827L56.3185 11.521L56.1684 10.3084C57.5188 9.27364 59.8861 6.13702 59.5694 4.56871ZM55.4515 9.98504L55.6182 11.4078L55.3849 11.812C55.4911 11.115 55.3374 10.4041 54.9514 9.80719C54.9514 9.80719 54.3512 10.1791 54.4179 10.3569C54.6095 10.7419 54.8443 11.1052 55.1181 11.4402L54.8014 12.5234H54.9181C54.5846 12.863 54.3679 12.766 54.7513 11.4563L54.4346 11.0521C54.5828 12.9573 54.5828 14.8705 54.4346 16.7757C52.7674 13.2348 54.2679 6.39571 54.4346 6.21786L53.9011 5.86216C54.0511 5.5388 54.4179 5.31244 54.7347 5.61964V4.68189L55.6849 3.72797L56.1851 3.88965L55.4682 4.64955V6.02384C56.5852 6.16936 57.3687 7.17178 57.5021 7.15561L58.3357 5.5388C58.2227 4.61339 58.0275 3.69918 57.7522 2.80638L56.0851 2.43451C55.316 2.59324 54.5963 2.9256 53.9845 3.40461C53.096 3.25928 52.1888 3.25928 51.3004 3.40461C50.5914 2.63416 49.6329 2.12092 48.5829 1.94947L47.6327 2.53153C49.7833 2.88723 49.2164 4.35852 49.9166 4.61722C49.0664 4.87591 48.7997 5.42562 49.9166 6.58973C49.9166 6.75141 50 7.64066 50.5502 7.44664C50.5502 7.44664 50.5502 6.16936 50.7502 6.04001L50.2834 6.12085L49.8333 5.74899L50.4168 5.45796C50.5168 5.57114 50.8002 5.76516 50.8169 5.92684L51.1337 5.26394L51.2337 7.10711L51.7505 7.34963C52.534 8.70775 53.0675 17.3739 53.0675 17.3739C53.2509 17.4816 53.4564 17.5489 53.6696 17.5713C53.8827 17.5936 54.0983 17.5704 54.3012 17.5032C54.0511 18.5057 53.6177 19.2332 52.8675 19.3141L52.284 19.1039C52.3922 18.4723 52.3922 17.8277 52.284 17.196C52.284 17.8589 51.6338 17.4547 51.6338 17.4547C51.6583 18.2924 51.7927 19.1237 52.0339 19.9285C48.5996 20.6237 49.7666 18.9099 49.1998 19.1847C48.6329 19.4596 47.8661 18.6673 47.8661 18.6673C48.5496 17.4871 47.3326 13.639 46.7991 12.3941C46.7474 12.7296 46.6637 13.0598 46.549 13.3804C46.4635 13.6336 46.3633 13.8819 46.2489 14.1241V14.2373L46.1489 14.4151L45.9822 14.69C45.9363 14.7717 45.8803 14.8477 45.8155 14.9163V15.0133L45.5988 15.2882L45.6821 14.3828L45.7821 14.1079L45.8822 13.8169L45.9822 13.4935L46.0822 13.1702C46.1198 13.065 46.1477 12.9568 46.1656 12.8468V12.766C46.1656 12.6528 46.1656 12.5396 46.1656 12.4103C46.1656 12.2971 46.1656 12.1839 46.2489 12.0546V11.6827V11.3108C46.2411 11.2789 46.2411 11.2457 46.2489 11.2138C46.2416 11.09 46.2416 10.9658 46.2489 10.842C46.2406 10.7127 46.2406 10.5831 46.2489 10.4539V9.9527C46.2489 9.82336 46.2489 9.69401 46.2489 9.5485V9.45149C46.2572 9.31688 46.2572 9.18191 46.2489 9.04729C46.257 8.90727 46.257 8.76693 46.2489 8.62692C46.2567 8.59502 46.2567 8.5618 46.2489 8.52991C46.0647 7.4783 45.6923 6.46602 45.1486 5.5388C45.3153 4.34236 47.1825 1.59377 48.5663 1.64228C49.0997 1.64228 50.7502 2.03032 50.7169 2.70938C52.8675 2.87106 59.0526 0.914715 58.6858 4.21302L58.4524 4.56871L58.9192 4.7789C59.2193 6.00768 56.6686 9.41916 55.4515 9.98504Z" fill="white"/>
<path d="M51.3837 12.0221L50.8003 11.9574L50.4001 11.246L50.7169 9.67773L50.0667 9.95259L49.8333 11.0197L50.6335 12.2L51.3837 12.0221Z" fill="white"/>
<path d="M25.8098 10.3083C25.8098 8.23874 25.8098 6.08838 20.4917 6.08838C17.8409 6.08838 14.8568 6.5896 14.7234 9.62921H18.7078C18.7078 9.1765 18.9913 8.52977 20.375 8.52977C21.0585 8.52977 21.7754 8.78846 21.7754 9.5322C21.7754 10.2759 21.1919 10.3891 20.6084 10.4861C18.4244 10.8742 14.2733 10.761 14.2733 14.1725C14.2733 16.436 16.0738 17.4061 18.2244 17.4061C18.8881 17.4582 19.5555 17.3695 20.1802 17.1461C20.805 16.9227 21.3721 16.5701 21.8421 16.1126C21.8333 16.4579 21.884 16.8022 21.9921 17.1312H26.36C25.9467 16.3952 25.7669 15.557 25.8432 14.7222L25.8098 10.3083ZM21.7087 13.3155C21.7094 13.5392 21.6623 13.7606 21.5703 13.9657C21.4783 14.1708 21.3434 14.3551 21.1742 14.5071C21.005 14.659 20.8051 14.7753 20.5872 14.8485C20.3693 14.9217 20.1381 14.9503 19.9082 14.9324C19.5986 14.9613 19.2892 14.8757 19.0419 14.6928C18.7946 14.51 18.6277 14.2433 18.5745 13.9461C18.5745 13.2185 19.0746 12.976 20.0249 12.782C20.6012 12.6715 21.1611 12.4923 21.692 12.2484L21.7087 13.3155Z" fill="white"/>
<path d="M8.42162 7.67299C8.15254 7.15206 7.73005 6.72031 7.20769 6.43248C6.68534 6.14465 6.08663 6.01368 5.48745 6.05618C4.79827 6.03849 4.11316 6.16395 3.47808 6.42415C2.843 6.68434 2.27265 7.07326 1.80529 7.5648C1.33793 8.05633 0.984371 8.63912 0.768337 9.27406C0.552302 9.909 0.478788 10.5814 0.552726 11.2462C0.552726 14.1564 2.05315 16.5331 5.35408 16.5331C5.94343 16.5424 6.52596 16.4099 7.04962 16.1476C7.57327 15.8852 8.02174 15.501 8.35493 15.0295V16.0319C8.35493 16.9212 8.05485 18.5057 6.68779 18.5057C6.43021 18.477 6.18307 18.3905 5.96602 18.2529C5.74897 18.1154 5.56798 17.9307 5.43744 17.7134C5.35408 17.5841 5.25406 17.4386 5.20404 17.3415H0.969511C1.36962 20.2518 4.17041 20.9471 6.82116 20.9471C12.0726 20.9471 12.6561 17.9236 12.6561 15.7732V6.36338H8.3716L8.42162 7.67299ZM6.75448 13.8816C5.22071 13.8816 4.83727 12.4588 4.83727 11.23C4.83727 10.0012 5.55414 9.09579 6.67112 9.09579C7.7881 9.09579 8.53832 10.0497 8.53832 11.23C8.53832 12.4103 8.35493 13.9462 6.78782 13.9462L6.75448 13.8816Z" fill="white"/>
</g>
<defs>
<clipPath id="clip0_66_1145">
<rect width="59" height="20" fill="white" transform="translate(0.58606 0.930664)"/>
</clipPath>
</defs>
</svg>
