<svg width="117" height="50" viewBox="0 0 117 50" fill="none" xmlns="http://www.w3.org/2000/svg">
<g clip-path="url(#clip0_66_1132)">
<path d="M22.7669 27.2958H28.6244L25.6342 19.4995L22.7669 27.2958Z" fill="white"/>
<path d="M84.0862 28.2516C83.7307 28.2225 83.373 28.2689 83.0367 28.388C82.7004 28.5071 82.3932 28.696 82.1352 28.9423C81.8772 29.1887 81.6744 29.4869 81.54 29.8174C81.4056 30.1478 81.3427 30.503 81.3554 30.8595C81.3481 31.4837 81.5882 32.0853 82.0231 32.533C82.458 32.9807 83.0525 33.2381 83.6766 33.2489C84.372 33.2806 85.0612 33.1048 85.6564 32.7437L85.5608 28.3882C85.074 28.3011 84.5807 28.2554 84.0862 28.2516Z" fill="white"/>
<path d="M55.4678 23.1725C55.1052 23.1783 54.7477 23.2592 54.418 23.4102C54.0882 23.5612 53.7934 23.779 53.5522 24.0497C53.3109 24.3205 53.1285 24.6384 53.0164 24.9833C52.9043 25.3282 52.8649 25.6926 52.9009 26.0534H58.2259C58.282 25.6728 58.2504 25.2844 58.1335 24.9179C58.0166 24.5513 57.8176 24.2163 57.5515 23.9384C57.2854 23.6605 56.9594 23.4469 56.5983 23.3142C56.2372 23.1815 55.8505 23.133 55.4678 23.1725Z" fill="white"/>
<path d="M112.582 0.984863H3.93824C-1.19839 16.8456 -1.19839 33.9229 3.93824 49.7836H112.582C117.718 33.9229 117.718 16.8456 112.582 0.984863ZM35.5605 34.7371C34.5638 34.7371 33.5807 34.6142 32.5703 34.6142C31.5599 34.6142 30.5905 34.7371 29.5801 34.7371V34.0817C30.2082 34.0817 30.5496 33.6585 30.5496 32.9894C30.5157 32.4695 30.4005 31.9581 30.2082 31.4738L29.1705 28.7431H22.2617L21.4561 31.351C21.3258 31.8365 21.257 32.3365 21.2513 32.8392C21.2513 33.5492 21.6063 34.109 22.3163 34.109V34.7644C21.4561 34.7644 20.6369 34.6415 19.7631 34.6415C18.8892 34.6415 18.0836 34.7644 17.2234 34.7644V34.109C18.4113 33.8769 19.5309 31.0916 20.0907 29.6716L26.3578 13.6966H26.7128L33.1984 30.3542C34.2361 32.9894 34.4955 33.9588 35.5605 34.0817V34.7371ZM47.2345 35.0238C46.265 34.6791 45.4607 33.9821 44.9817 33.0713L43.2613 34.5869C42.6264 34.9304 41.9054 35.0822 41.1859 35.0238C40.3661 35.0295 39.554 34.8659 38.8005 34.5431C38.0469 34.2203 37.3682 33.7454 36.8067 33.148C36.2453 32.5507 35.8132 31.8438 35.5377 31.0717C35.2622 30.2996 35.1491 29.479 35.2055 28.6611C35.1523 27.7874 35.2869 26.9124 35.6002 26.0949C35.9134 25.2775 36.3981 24.5366 37.0216 23.9222C37.6451 23.3077 38.393 22.8339 39.2149 22.5326C40.0368 22.2314 40.9137 22.1096 41.7866 22.1756C42.835 22.1924 43.8662 22.4444 44.8042 22.9129V18.53C44.8042 16.8643 44.0668 16.4546 43.3022 16.3317V15.7446C44.7698 15.3963 46.1294 14.693 47.2618 13.6966H47.8626C47.8626 16.0041 47.7397 19.3219 47.7397 23.5956V30.9686C47.7397 32.0336 47.9718 32.6344 48.6545 32.6344C48.9515 32.6453 49.2439 32.559 49.4874 32.3887L49.938 32.8392C48.9395 33.438 48.0296 34.1733 47.2345 35.0238ZM57.7616 32.8938C58.8699 32.9118 59.9553 32.5771 60.861 31.9381L61.1614 32.2931L59.5639 34.6415C58.6563 34.9387 57.7063 35.0863 56.7513 35.0785C55.874 35.1326 54.995 35.0063 54.1684 34.7074C53.3419 34.4086 52.5854 33.9435 51.9457 33.3408C51.3059 32.7382 50.7965 32.0107 50.4488 31.2035C50.1012 30.3963 49.9227 29.5264 49.9243 28.6475C49.8765 26.997 50.4848 25.3948 51.616 24.192C52.7472 22.9891 54.309 22.2837 55.9593 22.2302C56.6571 22.1755 57.3586 22.266 58.0196 22.4959C58.6807 22.7259 59.2869 23.0903 59.8 23.5663C60.3132 24.0422 60.7221 24.6193 61.0011 25.2612C61.2801 25.9031 61.423 26.5959 61.4208 27.2958H52.7916C52.7175 27.9963 52.7903 28.7047 53.0055 29.3755C53.2206 30.0464 53.5733 30.665 54.041 31.1918C54.5087 31.7186 55.0812 32.1421 55.7218 32.4352C56.3625 32.7282 57.0572 32.8845 57.7616 32.8938ZM66.4318 35.0785C65.2353 35.0839 64.0567 34.7881 63.0047 34.2183L62.8272 31.4875H63.9195C64.0304 32.1428 64.3614 32.7406 64.8579 33.1825C65.3543 33.6243 65.9866 33.8837 66.6503 33.9179C66.9091 33.9403 67.1697 33.9097 67.4163 33.828C67.6629 33.7463 67.8902 33.6152 68.0844 33.4427C68.2787 33.2702 68.4357 33.0599 68.546 32.8247C68.6562 32.5895 68.7173 32.3342 68.7256 32.0746C68.7256 29.9173 62.6224 30.3542 62.6224 26.1488C62.6224 23.4181 64.8753 22.2439 67.292 22.2439C68.5792 22.3097 69.8493 22.5674 71.0604 23.0085L70.9375 25.7392H70.0501C69.9844 25.0793 69.6605 24.4721 69.1489 24.0501C68.6373 23.6281 67.9797 23.4254 67.3193 23.4863C67.0579 23.4548 66.7927 23.48 66.5419 23.5604C66.2911 23.6407 66.0606 23.7743 65.8662 23.9519C65.6717 24.1294 65.5179 24.3469 65.4152 24.5894C65.3125 24.8319 65.2634 25.0937 65.2712 25.3569C65.2712 28.1969 71.1697 27.1319 71.1697 31.2008C71.1424 33.8769 68.9851 35.0238 66.4318 35.0238V35.0785ZM77.8464 34.7644C76.9589 34.7644 76.0714 34.6688 75.1156 34.6688C74.1599 34.6688 73.4362 34.7644 72.576 34.7644V34.1636C72.7468 34.1611 72.915 34.1226 73.0699 34.0507C73.2248 33.9788 73.3628 33.875 73.4748 33.7462C73.5869 33.6174 73.6706 33.4664 73.7204 33.303C73.7702 33.1397 73.785 32.9677 73.7639 32.7983V23.2406C73.7639 21.5338 73.6137 19.3083 73.5181 18.175C73.4226 17.0418 72.9583 16.2498 72.0025 16.2498V15.5808C73.4946 15.3153 74.9 14.6921 76.0987 13.7648H76.877C76.877 15.3623 76.7541 18.2706 76.7541 21.0014V32.4979C76.7541 33.4946 76.9862 34.0271 77.9147 34.1773L77.8464 34.7644ZM88.0594 35.0785C87.5773 35.0491 87.1098 34.9018 86.6979 34.6494C86.286 34.397 85.9424 34.0474 85.6973 33.6312C84.8024 34.4655 83.6533 34.9752 82.4341 35.0785C81.945 35.1232 81.4519 35.0695 80.9839 34.9203C80.516 34.7712 80.0826 34.5297 79.7097 34.2102C79.3367 33.8907 79.0315 33.4996 78.8123 33.0601C78.5931 32.6205 78.4643 32.1415 78.4335 31.6513C78.4335 28.511 81.4237 27.2958 84.1271 27.2958C84.5914 27.2958 85.0966 27.3777 85.4925 27.3777C85.4925 25.7802 85.3833 24.0052 83.3625 24.0052C82.7758 23.9564 82.1876 24.0788 81.669 24.3575C81.1504 24.6361 80.7237 25.0592 80.4406 25.5754H79.7169V22.7627C80.9589 22.4017 82.2467 22.2224 83.54 22.2302C86.1752 22.2302 88.4281 22.9402 88.4281 25.9031C88.4281 26.9681 88.3462 28.5109 88.3189 30.1904V31.2281C88.3189 32.5935 88.551 32.9758 89.2064 32.9758C89.4145 32.9614 89.6205 32.9248 89.8208 32.8665L90.2714 33.3034L88.0594 35.0785ZM94.6679 35.0785C93.4671 35.0839 92.2841 34.7881 91.2271 34.2183L91.0496 31.4875H92.1556C92.2642 32.1438 92.5944 32.7431 93.0914 33.1854C93.5883 33.6277 94.2219 33.8862 94.8864 33.9179C95.1445 33.9403 95.4045 33.9097 95.6503 33.8278C95.8961 33.746 96.1226 33.6147 96.3158 33.442C96.5089 33.2693 96.6646 33.0589 96.7734 32.8238C96.8821 32.5886 96.9416 32.3336 96.9481 32.0746C96.9481 29.9173 90.8585 30.3542 90.8585 26.1488C90.8585 23.4181 93.0977 22.2439 95.5281 22.2439C96.8151 22.3111 98.0851 22.5688 99.2966 23.0085L99.1736 25.7392H98.2316C98.1659 25.0793 97.8419 24.4721 97.3304 24.0501C96.8188 23.6281 96.1612 23.4254 95.5008 23.4863C95.2394 23.4548 94.9741 23.48 94.7234 23.5604C94.4726 23.6407 94.2421 23.7743 94.0477 23.9519C93.8532 24.1294 93.6994 24.3469 93.5967 24.5894C93.4941 24.8319 93.4449 25.0937 93.4527 25.3569C93.4527 28.1969 99.3511 27.1319 99.3511 31.2008C99.3785 33.8769 97.2212 35.0238 94.6269 35.0238L94.6679 35.0785Z" fill="white"/>
<path d="M41.6911 23.3364C39.3563 23.3364 38.4142 25.8624 38.4142 27.8695C38.4142 30.3408 39.8888 33.2354 42.5103 33.2354C42.9601 33.2329 43.4047 33.1397 43.8176 32.9614C44.2305 32.7831 44.6032 32.5234 44.9134 32.1977V27.337C44.8724 24.538 44.1078 23.3364 41.6911 23.3364Z" fill="white"/>
</g>
<defs>
<clipPath id="clip0_66_1132">
<rect width="116.331" height="48.7851" fill="white" transform="translate(0.0879059 0.984863)"/>
</clipPath>
</defs>
</svg>
