<svg width="66" height="32" viewBox="0 0 66 32" fill="none" xmlns="http://www.w3.org/2000/svg">
<g clip-path="url(#clip0_66_1141)">
<path fill-rule="evenodd" clip-rule="evenodd" d="M21.2 13.0796L17.92 18.0796C19.9028 20.1962 22.0714 22.1306 24.4 23.8596C24.1506 22.3257 23.8168 20.8067 23.4 19.3096C22.57 16.3996 21.25 13.0996 21.25 13.0996" fill="white"/>
<path fill-rule="evenodd" clip-rule="evenodd" d="M0.509964 31.6594C0.509964 31.6594 16.68 16.1394 25.41 8.49936C30.17 4.33936 35.3 0.0893555 35.3 0.0893555C35.3 0.0893555 26.83 2.02937 22.88 3.25937C17.38 4.98937 15.77 5.99936 14.2 8.12936C12.63 10.2594 5.58002 22.4494 3.57002 25.7994C2.38424 27.6616 1.36042 29.6221 0.509964 31.6594Z" fill="white"/>
<path fill-rule="evenodd" clip-rule="evenodd" d="M10.06 10.3893C11.21 8.49934 14.06 5.38932 16.84 4.86932C14.29 3.73932 11.51 2.51934 9.70003 1.75934C8.07003 1.06934 5.12996 0.0693359 5.12996 0.0693359C5.64732 1.83769 6.26851 3.57401 6.99007 5.26932C7.77433 7.1084 8.80725 8.83117 10.06 10.3893Z" fill="white"/>
<path d="M38.65 11.7693C38.7626 11.9742 38.8179 12.2057 38.81 12.4394V16.6594C38.8283 16.7937 38.8191 16.9303 38.783 17.0609C38.7469 17.1916 38.6847 17.3135 38.6001 17.4194C38.4957 17.5327 38.3533 17.6038 38.2 17.6194H30.88V13.9593H32.29V16.3494H37.43V12.7594H30.9V11.4794H38.16C38.2634 11.4685 38.3677 11.4894 38.4588 11.5395C38.55 11.5895 38.6237 11.6663 38.67 11.7594" fill="white"/>
<path d="M46.97 11.7694C47.0936 11.9706 47.1561 12.2033 47.15 12.4394V14.1994C47.1616 14.4063 47.1203 14.6128 47.03 14.7994C46.9675 14.9094 46.8823 15.0049 46.78 15.0794C46.9086 15.1826 47.0097 15.3161 47.0743 15.4679C47.1389 15.6197 47.1648 15.7851 47.15 15.9494V17.6594H45.75V15.1594H41.3V17.6594H39.89V13.9094H45.75V12.7594H39.89V11.4894H46.43C46.5383 11.4829 46.6463 11.5055 46.743 11.5547C46.8397 11.6039 46.9216 11.678 46.9801 11.7694" fill="white"/>
<path d="M52.2 12.7693H49.69V16.3593H54.76V12.7693H52.2ZM55.9999 11.7693C56.1126 11.9742 56.1679 12.2056 56.16 12.4393V16.6593C56.1883 16.93 56.1133 17.2015 55.95 17.4193C55.844 17.5305 55.7025 17.6012 55.55 17.6193H48.84C48.6875 17.6012 48.546 17.5305 48.44 17.4193C48.2749 17.2024 48.1997 16.9302 48.2301 16.6593V12.4293C48.2228 12.1931 48.2853 11.96 48.41 11.7593C48.4708 11.6679 48.5546 11.5939 48.6528 11.5448C48.751 11.4957 48.8604 11.4731 48.97 11.4793H55.4901C55.5944 11.4707 55.6989 11.4938 55.7899 11.5455C55.8809 11.5972 55.954 11.6752 55.9999 11.7693Z" fill="white"/>
<path d="M64.32 11.7694C64.4436 11.9706 64.5061 12.2033 64.5 12.4394V14.1994C64.5191 14.4569 64.4446 14.7126 64.29 14.9194C64.193 15.0484 64.0495 15.1345 63.89 15.1594H58.65V17.6594H57.2401V13.9094H63.1001V12.7594H57.2401V11.4894H63.77C63.8783 11.4829 63.9864 11.5055 64.0831 11.5547C64.1798 11.6039 64.2615 11.678 64.32 11.7694Z" fill="white"/>
<path d="M63.3001 24.5191C63.4809 24.5171 63.6582 24.5691 63.8093 24.6683C63.9605 24.7675 64.0787 24.9095 64.1488 25.0762C64.2189 25.2429 64.2378 25.4267 64.203 25.6041C64.1682 25.7816 64.0814 25.9447 63.9535 26.0725C63.8256 26.2004 63.6626 26.2873 63.4851 26.322C63.3077 26.3568 63.1238 26.338 62.9572 26.2679C62.7905 26.1978 62.6484 26.0796 62.5492 25.9284C62.45 25.7772 62.3981 25.5999 62.4 25.4191C62.4 25.3009 62.4233 25.1839 62.4685 25.0747C62.5137 24.9655 62.5801 24.8663 62.6637 24.7827C62.7473 24.6991 62.8465 24.6328 62.9557 24.5876C63.0649 24.5424 63.1819 24.5191 63.3001 24.5191ZM63.3001 26.1491C63.4452 26.1531 63.5883 26.1137 63.7109 26.0359C63.8336 25.9582 63.9302 25.8456 63.9885 25.7126C64.0469 25.5796 64.0642 25.4323 64.0383 25.2894C64.0125 25.1465 63.9446 25.0145 63.8434 24.9104C63.7421 24.8063 63.6121 24.7348 63.47 24.7049C63.3279 24.6751 63.1801 24.6884 63.0455 24.743C62.911 24.7976 62.7957 24.8911 62.7146 25.0116C62.6335 25.132 62.5902 25.2739 62.5901 25.4191C62.5845 25.5148 62.5988 25.6105 62.6322 25.7002C62.6656 25.79 62.7175 25.8718 62.7843 25.9405C62.8511 26.0092 62.9313 26.0632 63.0202 26.0991C63.109 26.135 63.2043 26.152 63.3001 26.1491ZM62.9601 24.8691H63.3601C63.6001 24.8691 63.7201 24.9691 63.7201 25.1791C63.7259 25.2178 63.7232 25.2572 63.7123 25.2948C63.7013 25.3323 63.6823 25.367 63.6566 25.3964C63.631 25.4259 63.5992 25.4495 63.5635 25.4655C63.5278 25.4815 63.4892 25.4895 63.4501 25.4891L63.76 25.9291H63.5501L63.2401 25.4991H63.14V25.9291H62.9601V24.8691ZM63.14 25.3291H63.27C63.41 25.3291 63.5501 25.3291 63.5501 25.1791C63.5501 25.0291 63.4201 25.0291 63.3001 25.0291H63.14V25.3291Z" fill="white"/>
<path d="M46.43 20.1294V26.2694H44.9V23.7994H40.64V26.2694H39.17V20.1294H40.64V22.5194H44.9V20.1294H46.43Z" fill="white"/>
<path d="M51.43 21.4193H48.93V24.9993H53.9901V21.4193H51.43ZM55.2401 20.4193C55.3445 20.6269 55.3959 20.857 55.39 21.0893V25.3193C55.4069 25.452 55.3971 25.5867 55.361 25.7156C55.325 25.8444 55.2634 25.9647 55.18 26.0693C55.1303 26.1279 55.0692 26.1758 55.0005 26.2102C54.9317 26.2445 54.8567 26.2646 54.78 26.2693H48.08C47.9259 26.2566 47.7826 26.185 47.68 26.0693C47.5966 25.9647 47.5351 25.8444 47.499 25.7156C47.4629 25.5867 47.4531 25.452 47.4701 25.3193V21.0893C47.4609 20.8529 47.5236 20.6193 47.65 20.4193C47.7085 20.3279 47.7904 20.2538 47.887 20.2046C47.9837 20.1554 48.0917 20.1329 48.2 20.1393H54.7201C54.8295 20.1227 54.9414 20.1408 55.04 20.191C55.1386 20.2412 55.219 20.321 55.27 20.4193H55.2401Z" fill="white"/>
<path d="M65.26 21.4094H60.83V26.2694H59.36V21.4094H56.49V20.1294H65.26V21.4094Z" fill="white"/>
<path d="M38.1001 21.4093H32.3101V22.5292H38.1001V25.3293C38.1125 25.5818 38.0498 25.8323 37.92 26.0493C37.8528 26.1281 37.768 26.1899 37.6725 26.2299C37.5769 26.2699 37.4733 26.2868 37.37 26.2792H30.8501V25.0093H36.7001V23.8092H30.8501V21.0993C30.8402 20.8596 30.9029 20.6226 31.03 20.4193C31.0885 20.3279 31.1704 20.2538 31.2671 20.2046C31.3638 20.1554 31.4718 20.1328 31.5801 20.1393H38.1001V21.4093Z" fill="white"/>
</g>
<defs>
<clipPath id="clip0_66_1141">
<rect width="64.75" height="31.57" fill="white" transform="translate(0.51001 0.0693359)"/>
</clipPath>
</defs>
</svg>
