<svg width="108" height="16" viewBox="0 0 108 16" fill="none" xmlns="http://www.w3.org/2000/svg">
<g clip-path="url(#clip0_66_1161)">
<path d="M18.8076 15.2021V0.205388H27.4438L29.4231 8.39044L31.4092 0.205388H40.0453V15.2021H35.2513V4.68498L32.0666 15.2021H26.7829L23.6085 4.68498V15.2021H18.8076ZM50.8491 15.2021H47.9692L47.1474 15.1438L46.3461 14.9819L45.5722 14.7098L44.8497 14.3341L44.199 13.8644L43.6169 13.3138L43.1204 12.6984L42.73 12.0149L42.4458 11.2797L42.2677 10.5217L42.2129 9.74436V5.65345L42.2677 4.88256L42.4458 4.11815L42.73 3.38937L43.1204 2.70917L43.6169 2.08403L44.199 1.53339L44.8497 1.07021L45.5722 0.694483L46.3461 0.425642L47.1474 0.253973L47.9692 0.202148H50.8491L51.6606 0.253973L52.4688 0.425642L53.2393 0.694483L53.9584 1.07021L54.6193 1.53339L55.2014 2.08403L55.6877 2.70917L56.0849 3.38937L56.3725 4.11815L56.5437 4.88256L56.6054 5.65345V9.74436L56.5437 10.5217L56.3725 11.2797L56.0849 12.0149L55.6877 12.6984L55.2014 13.3138L54.6193 13.8644L53.9584 14.3341L53.2393 14.7098L52.4688 14.9819L51.6606 15.1438L50.8491 15.2021ZM50.7943 4.1635L50.6539 3.83959L50.421 3.55132L50.1265 3.34078L49.7841 3.2015L49.4109 3.15615L49.0376 3.2015L48.6952 3.34078L48.4007 3.55132L48.1781 3.83959L48.0309 4.1635L47.9829 4.52303V10.8942L48.0309 11.2473L48.1781 11.5712L48.4007 11.8497L48.6952 12.0668L49.0376 12.1996L49.4109 12.2514L49.7841 12.1996L50.1265 12.0668L50.421 11.8497L50.6539 11.5712L50.7943 11.2473L50.8491 10.8942V4.52303L50.7943 4.1635ZM75.107 15.2021H66.7585L63.5739 4.68498V15.2021H58.7798V0.205388H67.1523L70.3267 10.7258V0.205388H75.1207L75.107 15.2021ZM91.2014 9.74436L91.1397 10.5217L90.9685 11.2797L90.6843 12.0149L90.2871 12.6984L89.7974 13.3138L89.2152 13.8644L88.5441 14.3341L87.8592 14.7098L87.0922 14.9819L86.284 15.1438L85.4622 15.2021H77.2883V0.205388H85.4622L86.2772 0.257212L87.0853 0.428881L87.8524 0.697722L88.5749 1.07345L89.229 1.53339L89.8111 2.08403L90.3008 2.70917L90.698 3.3926L90.9822 4.11815L91.1534 4.88256L91.2151 5.65345L91.2014 9.74436ZM82.5721 3.15615V12.2481H84.0069L84.3801 12.1963L84.7225 12.0668L85.017 11.8465L85.2499 11.5647L85.3903 11.2408L85.4622 10.8942V4.52303L85.4074 4.1635L85.267 3.83959L85.0342 3.55132L84.7397 3.34078L84.3972 3.2015L84.024 3.15615H82.5721ZM102.012 15.2021H99.1355L98.3103 15.1438L97.5124 14.9819L96.7385 14.7098L96.016 14.3341L95.3619 13.8644L94.7798 13.3138L94.2867 12.6984L93.8963 12.0149L93.6087 11.2797L93.4306 10.5217L93.3758 9.74436V5.65345L93.4306 4.88256L93.6087 4.11815L93.8963 3.3926L94.2867 2.70917L94.7798 2.08403L95.3619 1.53339L96.016 1.07021L96.7385 0.694483L97.5124 0.425642L98.3103 0.253973L99.1355 0.205388H102.012L102.827 0.257212L103.635 0.428881L104.402 0.697722L105.125 1.07345L105.786 1.53663L106.351 2.08403L106.84 2.70917L107.237 3.3926L107.522 4.11815L107.696 4.88256L107.758 5.65345V9.74436L107.696 10.5217L107.522 11.2797L107.237 12.0149L106.84 12.6984L106.351 13.3138L105.772 13.8644L105.111 14.3341L104.388 14.7098L103.621 14.9819L102.813 15.1438L102.012 15.2021ZM99.1355 10.8942L99.1801 11.244L99.3273 11.5679L99.5533 11.8497L99.8478 12.0668L100.19 12.1996L100.563 12.2514L100.937 12.1996L101.279 12.0668L101.574 11.8497L101.807 11.5679L101.95 11.244L102.002 10.8942V4.52303L101.95 4.1635L101.807 3.83959L101.574 3.55132L101.279 3.34078L100.937 3.2015L100.563 3.15615L100.19 3.2015L99.8478 3.34078L99.5533 3.55132L99.3273 3.83959L99.1801 4.1635L99.1355 4.52303V10.8942ZM1.98048 0.205388L2.46331 1.82491L2.80574 3.47682L3.04545 5.15788L3.16872 6.84218V8.53944L3.05914 10.2464L2.81944 11.921L2.47701 13.5826L1.99418 15.2021L1.51477 13.5826L1.13467 11.9113L0.881271 10.2464L0.757996 8.55888V6.8519L0.881271 5.1676L1.12097 3.48654L1.50108 1.82491L1.98048 0.205388ZM5.14798 0.205388L5.62739 1.82491L5.96982 3.47682L6.2198 5.15788L6.33623 6.84218V8.53944L6.2335 10.2464L5.98352 11.921L5.64109 13.5826L5.16168 15.2021L4.67885 13.5826L4.3056 11.9113L4.05905 10.2464L3.93577 8.55888V6.8519L4.05905 5.1676L4.3056 3.48654L4.66515 1.82491L5.14798 0.205388ZM8.31207 0.205388L8.7949 1.82491L9.15787 3.47682L9.39758 5.15788L9.514 6.84218V8.53944L9.39758 10.2464L9.15787 11.921L8.7949 13.5826L8.31207 15.2021L7.83266 13.5826L7.4731 11.921L7.22655 10.2464L7.11013 8.55888V6.8519L7.22655 5.1676L7.4731 3.48654L7.83266 1.82491L8.31207 0.205388ZM11.4967 0.205388L11.9761 1.82491L12.3425 3.47682L12.5822 5.15788L12.7055 6.84218V8.53944L12.5651 10.2464L12.3254 11.921L11.959 13.5826L11.4796 15.2021L10.9967 13.5826L10.6543 11.921L10.3906 10.2464L10.2776 8.55888V6.8519L10.3906 5.1676L10.6406 3.48654L10.983 1.83463L11.4967 0.205388ZM14.6608 0.205388L15.1436 1.82491L15.5066 3.47682L15.7463 5.15788L15.873 6.84218V8.53944L15.7292 10.2464L15.4895 11.921L15.1265 13.5729L14.6436 15.1924L14.1711 13.5729L13.8081 11.9113L13.5513 10.2464L13.428 8.55888V6.8519L13.5513 5.1676L13.7944 3.48654L14.1711 1.82491L14.6608 0.205388Z" fill="white"/>
</g>
<defs>
<clipPath id="clip0_66_1161">
<rect width="107" height="15" fill="white" transform="translate(0.757996 0.202148)"/>
</clipPath>
</defs>
</svg>
