<svg width="22" height="18" viewBox="0 0 22 18" fill="none" xmlns="http://www.w3.org/2000/svg">
<path fill-rule="evenodd" clip-rule="evenodd" d="M6.44998 1.95383H15.55V3.46831C15.55 3.74004 15.8438 3.96696 16.2061 3.96696H17.4938C17.8618 3.96696 18.15 3.74369 18.15 3.46831V1.95383H20.1C20.818 1.95383 21.4 2.40445 21.4 2.96039V4.97352H0.599976V2.96039C0.599976 2.40445 1.18196 1.95383 1.89998 1.95383H3.84998V3.46831C3.84998 3.74004 4.14378 3.96696 4.50615 3.96696H5.7938C6.16178 3.96696 6.44998 3.74369 6.44998 3.46831V1.95383ZM0.599976 5.47681H21.4V16.0457C21.4 16.6017 20.818 17.0523 20.1 17.0523H1.89998C1.18196 17.0523 0.599976 16.6017 0.599976 16.0457V5.47681ZM16.2 13.026V14.0326H17.5V13.026H16.2ZM12.3 13.026V14.0326H13.6V13.026H12.3ZM8.39998 13.026V14.0326H9.69998V13.026H8.39998ZM4.49998 13.026V14.0326H5.79998V13.026H4.49998ZM16.2 10.0063V11.0129H17.5V10.0063H16.2ZM12.3 10.0063V11.0129H13.6V10.0063H12.3ZM8.39998 10.0063V11.0129H9.69998V10.0063H8.39998ZM4.49998 10.0063V11.0129H5.79998V10.0063H4.49998ZM16.2 6.98665V7.99322H17.5V6.98665H16.2ZM12.3 6.98665V7.99322H13.6V6.98665H12.3ZM8.39998 6.98665V7.99322H9.69998V6.98665H8.39998ZM4.49998 6.98665V7.99322H5.79998V6.98665H4.49998ZM16.2 0.947266H17.5V3.46368H16.2V0.947266ZM4.49998 0.947266H5.79998V3.46368H4.49998V0.947266Z" fill="#040738"/>
</svg>
