<svg width="30" height="31" viewBox="0 0 30 31" fill="none" xmlns="http://www.w3.org/2000/svg">
<g clip-path="url(#clip0_279_8892)">
<path d="M15 1.66553C22.732 1.66553 29 7.93354 29 15.6655C29 23.3975 22.732 29.6655 15 29.6655C7.26801 29.6655 1 23.3975 1 15.6655C1 7.93354 7.26801 1.66553 15 1.66553Z" stroke="white" stroke-width="2"/>
<path d="M12.7168 24.729H16.3561V15.5824H18.916L19.179 12.5242H16.4115V10.7807C16.4115 10.0611 16.5637 9.77053 17.2556 9.77053H19.2343V6.58789H16.7021C13.9345 6.58789 12.7722 7.79175 12.7722 10.075V12.5242H10.8626V15.693H12.7722L12.7168 24.729Z" fill="white"/>
</g>
<defs>
<clipPath id="clip0_279_8892">
<rect width="30" height="30" fill="white" transform="translate(0 0.665527)"/>
</clipPath>
</defs>
</svg>
