<svg width="30" height="31" viewBox="0 0 30 31" fill="none" xmlns="http://www.w3.org/2000/svg">
<g clip-path="url(#clip0_279_8893)">
<path d="M14.9991 29.6655C11.2864 29.6653 7.72581 28.1903 5.10052 25.565C2.47501 22.9395 1.00006 19.3786 1.00006 15.6655C1.00006 11.9525 2.47501 8.39155 5.10052 5.76605C7.72603 3.14054 11.287 1.66553 15 1.66553C18.713 1.66553 22.274 3.14054 24.8995 5.76605C27.5248 8.39133 28.9997 11.9519 29 15.6646C28.9965 19.3768 27.5204 22.936 24.8955 25.561C22.2705 28.1859 18.7113 29.6621 14.9991 29.6655Z" stroke="white" stroke-width="2"/>
<path d="M15 8.92642C17.1864 8.92642 17.4493 8.92642 18.3211 8.92642C18.8419 8.93007 19.3577 9.02855 19.8432 9.21702C20.2053 9.34118 20.5326 9.5499 20.7979 9.82588C21.0629 10.0947 21.2702 10.4149 21.4068 10.7668C21.5882 11.2587 21.6818 11.7786 21.6835 12.3028C21.6835 13.1607 21.6835 13.4236 21.6835 15.6238C21.6835 17.824 21.6835 18.0731 21.6835 18.9449C21.6822 19.4646 21.5885 19.98 21.4068 20.467C21.2762 20.826 21.0686 21.1521 20.7984 21.4222C20.5283 21.6924 20.2022 21.9001 19.8432 22.0307C19.3557 22.2122 18.8412 22.3105 18.3211 22.3212C17.4493 22.3212 17.1864 22.3212 15 22.3212C12.8137 22.3212 12.5369 22.3212 11.6789 22.3212C11.1544 22.3099 10.6354 22.2118 10.143 22.0307C9.79109 21.894 9.4708 21.6868 9.20195 21.4218C8.92635 21.1535 8.71375 20.8274 8.57933 20.467C8.40445 19.9782 8.31102 19.464 8.30264 18.9449C8.30264 18.0731 8.30264 17.824 8.30264 15.6238C8.30264 13.4236 8.30264 13.1607 8.30264 12.3028C8.31149 11.7792 8.40488 11.2606 8.57933 10.7668C8.71712 10.4122 8.92941 10.0913 9.20195 9.82588C9.46433 9.55292 9.78649 9.34451 10.143 9.21702C10.6334 9.02897 11.1537 8.93053 11.6789 8.92642C12.5369 8.92642 12.7998 8.92642 15 8.92642ZM15 7.4458C12.7583 7.4458 12.4815 7.4458 11.6097 7.4458C10.9236 7.45883 10.2449 7.58989 9.6033 7.83325C9.08045 8.04507 8.60872 8.36583 8.21953 8.7742C7.80257 9.18859 7.48133 9.68924 7.2785 10.241C7.0351 10.8778 6.90413 11.552 6.89117 12.2336C6.89117 13.1054 6.89117 13.3821 6.89117 15.6238C6.89117 17.8655 6.89117 18.1285 6.89117 19.0141C6.90551 19.6955 7.03643 20.3695 7.2785 21.0067C7.4815 21.5543 7.80286 22.0504 8.21953 22.4596C8.6082 22.872 9.0798 23.1974 9.6033 23.4144C10.2449 23.6578 10.9236 23.7888 11.6097 23.8019C12.4815 23.8019 12.7583 23.8019 15 23.8019C17.2417 23.8019 17.5046 23.8019 18.3902 23.8019C19.0716 23.7875 19.7457 23.6565 20.3829 23.4144C20.9273 23.1987 21.4218 22.8738 21.8359 22.4597C22.25 22.0456 22.5749 21.5511 22.7906 21.0067C23.0338 20.3703 23.1604 19.6953 23.1642 19.0141C23.1642 18.1285 23.1642 17.8517 23.1642 15.6238C23.1642 13.396 23.1642 13.1054 23.1642 12.2336C23.1635 11.5521 23.0368 10.8765 22.7906 10.241C22.5825 9.68858 22.2566 9.18807 21.8357 8.7742C21.4465 8.36583 20.9748 8.04507 20.452 7.83325C19.8148 7.59118 19.1409 7.46014 18.4594 7.4458C17.5738 7.4458 17.297 7.4458 15.0691 7.4458" fill="white"/>
<path d="M15.0001 11.4449C14.1625 11.4312 13.3399 11.667 12.6368 12.1223C11.9337 12.5776 11.3819 13.2319 11.0518 14.0017C10.7217 14.7716 10.6283 15.6223 10.7832 16.4455C10.9382 17.2687 11.3345 18.0272 11.9219 18.6244C12.5093 19.2216 13.2611 19.6304 14.0817 19.799C14.9022 19.9675 15.7544 19.8881 16.5296 19.5708C17.3048 19.2535 17.9681 18.7127 18.435 18.0172C18.9019 17.3217 19.1513 16.503 19.1514 15.6654C19.1605 15.1144 19.0599 14.5672 18.8554 14.0555C18.6509 13.5438 18.3466 13.078 17.9602 12.6851C17.5738 12.2923 17.113 11.9803 16.6048 11.7674C16.0966 11.5545 15.5511 11.4448 15.0001 11.4449ZM15.0001 18.3637C14.4527 18.3637 13.9175 18.2014 13.4624 17.8973C13.0073 17.5932 12.6527 17.161 12.4432 16.6553C12.2337 16.1496 12.179 15.5931 12.2858 15.0563C12.3925 14.5194 12.6561 14.0263 13.0432 13.6393C13.4302 13.2522 13.9232 12.9886 14.46 12.8818C14.9969 12.775 15.5535 12.8299 16.0592 13.0393C16.5649 13.2488 16.9971 13.6035 17.3012 14.0586C17.6053 14.5138 17.7676 15.0488 17.7676 15.5962C17.7676 16.3302 17.476 17.0341 16.957 17.5531C16.438 18.0721 15.7341 18.3637 15.0001 18.3637Z" fill="white"/>
<path d="M20.369 11.279C20.3663 11.4727 20.3063 11.6613 20.1967 11.821C20.0871 11.9808 19.9327 12.1046 19.753 12.1768C19.5732 12.249 19.3761 12.2665 19.1864 12.2271C18.9968 12.1876 18.8231 12.093 18.6871 11.955C18.5511 11.8171 18.4589 11.642 18.4221 11.4518C18.3853 11.2616 18.4054 11.0648 18.4802 10.8861C18.5549 10.7074 18.6809 10.5547 18.8422 10.4474C19.0034 10.34 19.1927 10.2827 19.3864 10.2827C19.5166 10.2827 19.6455 10.3086 19.7656 10.3588C19.8858 10.409 19.9947 10.4827 20.0861 10.5754C20.1775 10.6681 20.2497 10.778 20.2982 10.8988C20.3468 11.0196 20.3709 11.1488 20.369 11.279Z" fill="white"/>
</g>
<defs>
<clipPath id="clip0_279_8893">
<rect width="30" height="30" fill="white" transform="translate(0 0.665527)"/>
</clipPath>
</defs>
</svg>
