<svg width="30" height="31" viewBox="0 0 30 31" fill="none" xmlns="http://www.w3.org/2000/svg">
<g clip-path="url(#clip0_279_8898)">
<path d="M14.9991 29.6655C11.2864 29.6653 7.72581 28.1903 5.10052 25.565C2.47501 22.9395 1.00006 19.3786 1.00006 15.6655C1.00006 11.9525 2.47501 8.39153 5.10052 5.76603C7.72602 3.14052 11.287 1.66553 15 1.66553C18.713 1.66553 22.274 3.14052 24.8995 5.76603C27.5248 8.39131 28.9997 11.9519 29 15.6646C28.9965 19.3768 27.5204 22.936 24.8955 25.561C22.2705 28.1859 18.7113 29.6621 14.9991 29.6655Z" stroke="white" stroke-width="2"/>
<path d="M11.2915 12.3169H8.19189V22.3492H11.2915V12.3169Z" fill="white"/>
<path d="M9.72785 11.0023C10.0963 11.0077 10.458 10.9033 10.7669 10.7023C11.0757 10.5013 11.3178 10.2129 11.4619 9.87377C11.6061 9.53466 11.646 9.16028 11.5765 8.7984C11.507 8.43653 11.3312 8.10354 11.0716 7.842C10.812 7.58045 10.4804 7.40217 10.1191 7.32993C9.75772 7.25768 9.38308 7.29476 9.04289 7.43639C8.7027 7.57801 8.41244 7.81778 8.20912 8.1251C8.0058 8.43242 7.89865 8.79334 7.90136 9.16183C7.90134 9.64754 8.09331 10.1136 8.43547 10.4583C8.77763 10.8031 9.24215 10.9986 9.72785 11.0023Z" fill="white"/>
<path d="M16.2593 17.0909C16.2593 15.7072 16.9097 14.8354 18.155 14.8354C19.4004 14.8354 19.8432 15.638 19.8432 17.0909V22.3492H22.929V15.9977C22.929 13.3132 21.4068 12.0125 19.2897 12.0125C18.6843 12.0048 18.0872 12.1537 17.5562 12.4446C17.0253 12.7355 16.5786 13.1587 16.2593 13.673V12.2893H13.2426V22.3215H16.2177L16.2593 17.0909Z" fill="white"/>
</g>
<defs>
<clipPath id="clip0_279_8898">
<rect width="30" height="30" fill="white" transform="translate(0 0.665527)"/>
</clipPath>
</defs>
</svg>
