<svg width="30" height="31" viewBox="0 0 30 31" fill="none" xmlns="http://www.w3.org/2000/svg">
<g clip-path="url(#clip0_279_8899)">
<path d="M15.0001 29.6517H14.9991C13.1614 29.6534 11.3412 29.2929 9.64284 28.5908C7.94448 27.8887 6.40121 26.8587 5.10109 25.5598C3.80099 24.2609 2.76963 22.7185 2.06595 21.0208C1.36228 19.3231 1.00012 17.5033 1.00012 15.6655L1.00011 15.6628C0.995017 13.8209 1.35324 11.9963 2.0545 10.2933C2.75578 8.59029 3.78631 7.04235 5.08685 5.7382C6.38739 4.43406 7.93239 3.39938 9.63347 2.6934C11.3346 1.98741 13.1583 1.62402 15.0001 1.62402C18.7131 1.62402 22.2741 3.09901 24.8996 5.72452C27.5251 8.35002 29 11.911 29 15.624L29 15.6259C29.0034 17.4666 28.6439 19.2898 27.9418 20.9913C27.2398 22.6929 26.2091 24.2393 24.9087 25.5421C23.6083 26.8448 22.0639 27.8784 20.3637 28.5836C18.6634 29.2887 16.8408 29.6517 15.0001 29.6517Z" stroke="white" stroke-width="2"/>
<path d="M22.2787 8.42867C22.3961 8.41021 22.5163 8.4195 22.6295 8.45586C22.7427 8.49223 22.8457 8.55463 22.9305 8.63804C23.0153 8.72145 23.0793 8.82355 23.1175 8.93618C23.1557 9.0488 23.167 9.16884 23.1504 9.28659C23.1409 9.63491 23.1038 9.98193 23.0396 10.3244C22.8321 11.7082 22.6245 13.1611 22.4031 14.5725L21.2408 22.2663C21.2408 22.3632 21.2408 22.4738 21.2408 22.5707C21.2408 22.6676 21.2407 22.9028 21.1162 23.0689C21.0266 23.3486 20.8334 23.5834 20.576 23.725C20.3186 23.8665 20.0166 23.9041 19.7324 23.8299C19.4129 23.7812 19.1041 23.6783 18.8192 23.5255C18.5286 23.3594 18.2381 23.1934 17.9613 23.0135L15.9963 21.7128L13.7269 20.1076C13.5119 19.9569 13.3085 19.7904 13.1181 19.6095C13.0126 19.5142 12.9236 19.402 12.8551 19.2774C12.7778 19.163 12.7366 19.028 12.7366 18.8899C12.7366 18.7518 12.7778 18.6169 12.8551 18.5025C12.932 18.3798 13.0252 18.268 13.132 18.1703L15.5811 15.8318L18.0581 13.4655C18.2541 13.289 18.422 13.0837 18.5562 12.8567C18.5991 12.7669 18.6361 12.6745 18.667 12.58C18.667 12.3586 18.6669 12.234 18.3902 12.2893C18.2398 12.316 18.0949 12.3675 17.9613 12.4416C17.6616 12.5911 17.3705 12.7574 17.0895 12.9397L14.737 14.5449L10.3783 17.5062C10.1092 17.6785 9.79823 17.7741 9.47883 17.7829C9.04128 17.8254 8.59954 17.7831 8.17801 17.6583L5.07839 16.7035C4.99137 16.6757 4.91157 16.629 4.84461 16.5668C4.77765 16.5046 4.72512 16.4285 4.6909 16.3438C4.65689 16.2849 4.63904 16.2181 4.63904 16.1501C4.63904 16.082 4.65689 16.0152 4.6909 15.9563C4.75955 15.8438 4.84883 15.7453 4.9539 15.6657C5.10716 15.5521 5.27462 15.4591 5.45203 15.389L7.30623 14.5449C9.18815 13.6869 11.0977 12.8844 13.0073 12.0818L21.5175 8.59471C21.7596 8.49537 22.0172 8.43918 22.2787 8.42867Z" fill="white"/>
</g>
<defs>
<clipPath id="clip0_279_8899">
<rect width="30" height="30" fill="white" transform="translate(0 0.665527)"/>
</clipPath>
</defs>
</svg>
