<svg width="42" height="29" viewBox="0 0 42 29" fill="none" xmlns="http://www.w3.org/2000/svg">
<path d="M41.957 8.4139V0.568512H29.4986V1.9336H28.1335V0.568512H0.957031V8.4139C2.48753 8.49239 3.92944 9.15578 4.98497 10.2668C6.04051 11.3779 6.62904 12.8518 6.62904 14.3843C6.62904 15.9168 6.04051 17.3908 4.98497 18.5018C3.92944 19.6129 2.48753 20.2761 0.957031 20.3546V28.1999H28.1335V26.8977H29.4986V28.2628H41.957V20.4174C40.4265 20.3389 38.9846 19.6757 37.9291 18.5646C36.8736 17.4536 36.285 15.9795 36.285 14.447C36.285 12.9144 36.8736 11.4405 37.9291 10.3295C38.9846 9.21842 40.4265 8.55521 41.957 8.47672V8.4139ZM29.4986 24.1047H28.1335V21.3274H29.4986V24.1047ZM29.4986 18.5503H28.1335V15.773H29.4986V18.5503ZM29.4986 12.9957H28.1335V10.2184H29.4986V12.9957ZM29.4986 7.44108H28.1335V4.66378H29.4986V7.44108Z" fill="#040738"/>
</svg>
