<svg width="30" height="31" viewBox="0 0 30 31" fill="none" xmlns="http://www.w3.org/2000/svg">
<g clip-path="url(#clip0_279_8894)">
<path d="M29 15.6655C29 23.3975 22.732 29.6655 15 29.6655C7.26801 29.6655 1 23.3975 1 15.6655C1 7.93354 7.26801 1.66553 15 1.66553C22.732 1.66553 29 7.93354 29 15.6655Z" stroke="white" stroke-width="2"/>
<path d="M20.5904 10.3102C20.0725 9.99157 19.6282 9.56648 19.2871 9.0631C18.9459 8.55972 18.7156 7.98957 18.6116 7.39045C18.6116 7.26591 18.6116 7.14138 18.6116 7.03068V6.62939H15.4981V18.9864C15.4954 19.5031 15.3397 20.0073 15.0506 20.4356C14.7616 20.8639 14.3523 21.1969 13.8741 21.3927C13.396 21.5886 12.8706 21.6384 12.3642 21.5359C11.8578 21.4334 11.393 21.1833 11.0286 20.817C10.6642 20.4507 10.4166 19.9846 10.3168 19.4777C10.217 18.9708 10.2696 18.4456 10.4679 17.9685C10.6663 17.4915 11.0015 17.0838 11.4313 16.7971C11.8611 16.5103 12.3661 16.3573 12.8828 16.3573C13.1552 16.3558 13.4261 16.3978 13.6853 16.4818V14.0187V13.3268C13.4228 13.3062 13.1591 13.3062 12.8966 13.3268C11.6715 13.3269 10.4788 13.7208 9.49448 14.4503C8.51016 15.1797 7.78624 16.2062 7.42964 17.3784C7.07305 18.5505 7.10265 19.8062 7.51393 20.9602C7.92521 22.1143 8.69639 23.1056 9.7139 23.7881C10.6527 24.4248 11.7623 24.7625 12.8966 24.7567C14.4123 24.7567 15.866 24.1546 16.9378 23.0828C18.0095 22.0111 18.6116 20.5575 18.6116 19.0418V12.7318C19.8706 13.6332 21.3805 14.1171 22.9289 14.1155V10.9882C22.1218 10.9906 21.3304 10.7651 20.6457 10.3379" fill="white"/>
</g>
<defs>
<clipPath id="clip0_279_8894">
<rect width="30" height="30" fill="white" transform="translate(0 0.665527)"/>
</clipPath>
</defs>
</svg>
