<svg width="30" height="31" viewBox="0 0 30 31" fill="none" xmlns="http://www.w3.org/2000/svg">
<path d="M15 29.6932H14.9991C13.1613 29.6949 11.3412 29.3344 9.64278 28.6323C7.94442 27.9302 6.40115 26.9002 5.10103 25.6013C3.80093 24.3024 2.76957 22.76 2.06589 21.0623C1.36222 19.3646 1.00006 17.5448 1.00006 15.707L1.00005 15.7043C0.994956 13.8624 1.35318 12.0378 2.05444 10.3348C2.75571 8.63179 3.78624 7.08385 5.08679 5.7797C6.38733 4.47557 7.93233 3.44089 9.63341 2.7349C11.3345 2.02892 13.1582 1.66552 15 1.66553C18.713 1.66553 22.274 3.14052 24.8995 5.76603C27.525 8.39153 29 11.9525 29 15.6655L29 15.6674C29.0034 17.5081 28.6438 19.3313 27.9418 21.0329C27.2397 22.7344 26.209 24.2808 24.9087 25.5836C23.6083 26.8863 22.0638 27.9199 20.3636 28.6251C18.6634 29.3302 16.8407 29.6932 15 29.6932Z" stroke="white" stroke-width="2"/>
<path fill-rule="evenodd" clip-rule="evenodd" d="M22.9035 21.3776H7.09645C6.49008 21.3776 6 20.8875 6 20.2811V10.762C6 10.1556 6.49008 9.66553 7.09645 9.66553H22.9035C23.5099 9.66553 24 10.1556 24 10.762V20.2894C24 20.8875 23.5099 21.3776 22.9035 21.3776ZM20.4449 10.8201L17.7702 17.3407L17.4296 10.8201H15.2866L16.1255 20.3227H18.3101L22.5298 10.8201H20.4449ZM10.4605 12.6559H8.25925L8.59151 10.8201H15.029L14.6967 12.6559H12.5121L11.0419 12.6642L12.3958 13.3037L11.1665 20.3227H9.11481L10.4605 12.6559Z" fill="white"/>
</svg>
