<svg width="30" height="31" viewBox="0 0 30 31" fill="none" xmlns="http://www.w3.org/2000/svg">
<g clip-path="url(#clip0_279_8895)">
<path d="M15 29.6655C11.287 29.6655 7.72602 28.1905 5.10052 25.565C2.47501 22.9395 1.00006 19.3786 1.00006 15.6655C1.00006 11.9525 2.47501 8.39153 5.10052 5.76603C7.72591 3.14063 11.2867 1.66565 14.9995 1.66553C18.7116 1.66907 22.2706 3.14524 24.8955 5.77008C27.5204 8.39502 28.9965 11.9542 29 15.6664C28.9997 19.3792 27.5248 22.9397 24.8995 25.565C22.274 28.1905 18.713 29.6655 15 29.6655Z" stroke="white" stroke-width="2"/>
<path d="M7.00183 20.6884C8.44423 21.6073 10.1113 22.1127 11.8212 22.1492C13.5311 22.1858 15.2181 21.7521 16.6985 20.8956C18.1788 20.0391 19.3957 18.7926 20.2162 17.292C21.0367 15.7914 21.4293 14.0943 21.3515 12.3858C21.9904 11.9175 22.543 11.3416 22.9844 10.6838C22.3885 10.954 21.7531 11.1269 21.1025 11.1958C21.7709 10.7822 22.2636 10.1369 22.4862 9.38303C21.8446 9.76586 21.1428 10.0372 20.4106 10.1856C19.9117 9.6836 19.2638 9.35645 18.5637 9.253C17.8635 9.14956 17.1487 9.27534 16.526 9.61161C15.9033 9.94789 15.4061 10.4766 15.1086 11.1187C14.8112 11.7609 14.7294 12.4821 14.8755 13.1745C13.572 13.1093 12.2967 12.7699 11.1332 12.1786C9.96964 11.5873 8.94392 10.7573 8.12276 9.74278C7.70304 10.4656 7.57387 11.321 7.76145 12.1356C7.94902 12.9501 8.43929 13.6629 9.13288 14.1293C8.61374 14.1082 8.10662 13.966 7.65216 13.7142C7.64076 14.4782 7.89761 15.222 8.37799 15.8161C8.85838 16.4103 9.53192 16.8172 10.2813 16.966C9.79409 17.0774 9.28805 17.0774 8.80079 16.966C9.00673 17.6192 9.41279 18.1911 9.96159 18.6008C10.5104 19.0106 11.1741 19.2374 11.8589 19.2492C11.1839 19.7971 10.4074 20.2063 9.57392 20.4533C8.74041 20.7003 7.8663 20.7801 7.00183 20.6884Z" fill="white"/>
</g>
<defs>
<clipPath id="clip0_279_8895">
<rect width="30" height="30" fill="white" transform="translate(0 0.665527)"/>
</clipPath>
</defs>
</svg>
