<svg width="30" height="31" viewBox="0 0 30 31" fill="none" xmlns="http://www.w3.org/2000/svg">
<g clip-path="url(#clip0_279_8897)">
<path d="M15 29.6515H14.9991C13.1613 29.6532 11.3412 29.2927 9.64278 28.5906C7.94442 27.8885 6.40114 26.8586 5.10103 25.5597C3.80094 24.2608 2.76958 22.7184 2.0659 21.0206C1.36222 19.3229 1.00006 17.5032 1.00006 15.6654C1.00006 13.8276 1.36222 12.0078 2.0659 10.3101C2.76958 8.61239 3.80093 7.07 5.10103 5.7711C6.40115 4.47218 7.94443 3.44224 9.64278 2.74014C11.3412 2.03803 13.1613 1.67751 14.9991 1.67921H15C18.7108 1.6792 22.2698 3.15243 24.8949 5.77515C27.5199 8.39765 28.9963 11.9549 29 15.6654C28.9963 19.3758 27.5199 22.9331 24.8949 25.5556C22.2698 28.1783 18.7108 29.6515 15 29.6515Z" stroke="white" stroke-width="2"/>
<path d="M11.6652 24.2311V21.2006H7.99817C7.99951 21.1776 7.99951 21.1545 7.99817 21.1314V10.2827C7.99639 10.2388 8.00425 10.1951 8.02097 10.1545C8.03769 10.1139 8.06297 10.0774 8.09513 10.0475L10.9871 7.15542C11.0114 7.12826 11.0413 7.10673 11.0748 7.09239C11.1083 7.07804 11.1445 7.07123 11.1809 7.07239H22.7353V7.15542C22.7438 7.17769 22.7438 7.20233 22.7353 7.22461C22.7353 9.99214 22.7353 12.7597 22.7353 15.5272C22.7358 15.5669 22.7274 15.6061 22.7106 15.6421C22.6939 15.678 22.6693 15.7097 22.6385 15.7347C20.8581 17.506 19.0776 19.2864 17.2972 21.0761C17.2721 21.1068 17.2404 21.1315 17.2045 21.1483C17.1685 21.1651 17.1293 21.1735 17.0896 21.1729H14.8479C14.7903 21.1491 14.7256 21.1491 14.668 21.1729L11.7621 24.0788L11.6652 24.2311ZM21.4899 8.31777H11.6929V17.4229C11.7006 17.4501 11.7006 17.4788 11.6929 17.506H14.4604V19.6923L14.5572 19.6231L16.5361 17.6305C16.5588 17.6051 16.5864 17.5846 16.6173 17.5703C16.6482 17.5561 16.6819 17.5483 16.716 17.5475H18.9715C19.0338 17.5473 19.0935 17.5224 19.1375 17.4783L21.4622 15.1536C21.4802 15.1044 21.4802 15.0505 21.4622 15.0014V8.44231C21.5044 8.41256 21.534 8.36817 21.5453 8.31777H21.4899Z" fill="white"/>
<path d="M15.0554 10.4624H16.273V14.157H15.0554V10.4624Z" fill="white"/>
<path d="M19.6356 14.1573C19.2394 14.185 18.8418 14.185 18.4456 14.1573C18.4456 14.1573 18.4456 10.5872 18.4456 10.5042C18.4456 10.4212 19.5525 10.5042 19.6356 10.5042C19.7186 10.5042 19.6632 14.0328 19.6356 14.1573Z" fill="white"/>
</g>
<defs>
<clipPath id="clip0_279_8897">
<rect width="30" height="30" fill="white" transform="translate(0 0.665527)"/>
</clipPath>
</defs>
</svg>
