<svg width="30" height="31" viewBox="0 0 30 31" fill="none" xmlns="http://www.w3.org/2000/svg">
<g clip-path="url(#clip0_279_8896)">
<path d="M14.9991 29.6657C11.2864 29.6654 7.72581 28.1905 5.10052 25.5652C2.47556 22.9402 1.00067 19.3802 1.00006 15.668C1.01774 11.967 2.5001 8.4235 5.1232 5.8125C7.74686 3.20095 11.2981 1.73482 15 1.73486C18.713 1.73486 22.274 3.20985 24.8995 5.83536C27.5244 8.46021 28.9992 12.02 29 15.7321C28.9788 19.4321 27.4952 22.9737 24.8728 25.584C22.2497 28.195 18.7002 29.6623 14.9991 29.6657Z" stroke="white" stroke-width="2"/>
<path d="M10.2675 20.1765V10.8914C10.2687 10.7715 10.3006 10.6538 10.3599 10.5496C10.4192 10.4453 10.5041 10.3579 10.6065 10.2956C10.709 10.2333 10.8257 10.1981 10.9455 10.1934C11.0654 10.1887 11.1844 10.2146 11.2915 10.2687L20.5767 14.9043C20.693 14.9633 20.7908 15.0533 20.8591 15.1645C20.9274 15.2756 20.9635 15.4035 20.9635 15.534C20.9635 15.6644 20.9274 15.7923 20.8591 15.9034C20.7908 16.0146 20.693 16.1046 20.5767 16.1636L11.2915 20.7992C11.1844 20.8533 11.0654 20.8792 10.9455 20.8745C10.8257 20.8698 10.709 20.8346 10.6065 20.7723C10.5041 20.71 10.4192 20.6226 10.3599 20.5183C10.3006 20.4141 10.2687 20.2964 10.2675 20.1765Z" fill="white"/>
</g>
<defs>
<clipPath id="clip0_279_8896">
<rect width="30" height="30" fill="white" transform="translate(0 0.665527)"/>
</clipPath>
</defs>
</svg>
