<svg width="50" height="50" viewBox="0 0 50 50" fill="none" xmlns="http://www.w3.org/2000/svg">
<circle cx="25" cy="25" r="25" fill="#E0E721"/>
<path d="M38.065 21.1748V16.1748H30.125V17.0448H29.255V16.1748H11.935V21.1748C12.9104 21.2248 13.8294 21.6476 14.5021 22.3557C15.1748 23.0638 15.5499 24.0032 15.5499 24.9799C15.5499 25.9566 15.1748 26.8959 14.5021 27.604C13.8294 28.3121 12.9104 28.7348 11.935 28.7848V33.7848H29.255V32.9548H30.125V33.8248H38.065V28.8248C37.0896 28.7748 36.1706 28.3521 35.4979 27.644C34.8252 26.936 34.4501 25.9965 34.4501 25.0198C34.4501 24.0431 34.8252 23.1037 35.4979 22.3956C36.1706 21.6875 37.0896 21.2649 38.065 21.2148V21.1748ZM30.125 31.1748H29.255V29.4048H30.125V31.1748ZM30.125 27.6349H29.255V25.8649H30.125V27.6349ZM30.125 24.0948H29.255V22.3248H30.125V24.0948ZM30.125 20.5548H29.255V18.7848H30.125V20.5548Z" fill="#040738"/>
</svg>
