<svg width="100" height="78" viewBox="0 0 100 78" fill="none" xmlns="http://www.w3.org/2000/svg">
<g clip-path="url(#clip0_66_882)">
<path d="M28.9386 0.679199L0 14.3668V64.0281L28.9386 77.7149V0.679199Z" fill="white"/>
<path d="M91.9236 32.1736V43.4306L96.1579 43.3348V46.0494L89.3205 46.3032V32.0762L91.9236 32.1736Z" fill="white"/>
<path d="M86.3096 15.4045V26.9967L90.8011 27.279V30.0768L83.5526 29.7273V15.0659L86.3096 15.4045Z" fill="white"/>
<path d="M87.506 32.0094V34.8518L82.4654 34.7383V37.6538L86.9469 37.6883V40.4962L82.4654 40.5273V43.6436L87.6868 43.5268V46.365L79.5924 46.6666V31.7153L87.506 32.0094Z" fill="white"/>
<path d="M57.899 41.7512L61.0327 41.7159L59.4637 35.3733L57.899 41.7512ZM61.4606 31.0404L65.8816 47.1772L62.4133 47.3057L61.7709 44.7532L57.1288 44.8717L56.4814 47.5267L52.8795 47.6611L57.672 30.8984L61.4606 31.0404Z" fill="white"/>
<path d="M57.5728 11.8823L54.2079 28.3173L50.7464 28.151L48.81 17.1898L46.8694 27.9636L43.1716 27.7872L39.3535 9.6499L43.5113 10.1599L45.2316 21.2463L47.1124 10.6002L50.6892 11.0396L52.4902 21.8277L54.1104 11.4588L57.5728 11.8823Z" fill="white"/>
<path d="M47.0603 38.7263C47.4249 38.7319 47.7877 38.675 48.1332 38.5583C48.4317 38.4551 48.7046 38.2893 48.9336 38.0718C49.1563 37.8577 49.3286 37.5968 49.4381 37.3081C49.5577 36.9855 49.6167 36.6437 49.6121 36.2998C49.6144 35.961 49.5534 35.6248 49.4322 35.3084C49.3213 35.0226 49.1491 34.7645 48.9277 34.5522C48.6985 34.3333 48.4258 34.1649 48.1273 34.0582C47.7828 33.9351 47.4202 33.8704 47.0544 33.8666L44.8078 33.8154V38.7255L47.0603 38.7263ZM51.7864 32.2316C52.0601 32.4852 52.3064 32.7668 52.5213 33.0718C52.7309 33.3696 52.9074 33.6894 53.0476 34.0254C53.1899 34.369 53.2953 34.7267 53.3621 35.0925C53.4343 35.4804 53.4697 35.8742 53.468 36.2687C53.47 36.68 53.4346 37.0906 53.3621 37.4954C53.2961 37.875 53.1908 38.2467 53.0476 38.6045C52.9089 38.9498 52.7333 39.2791 52.5238 39.5867C52.3093 39.8986 52.0621 40.1867 51.7864 40.4462C51.2316 40.9751 50.5751 41.3862 49.8568 41.6544C49.4817 41.794 49.0944 41.8981 48.6998 41.9653C48.275 42.0374 47.8452 42.0759 47.4143 42.0804L44.8154 42.1123V47.9617L40.7417 48.1129V30.2681L47.4143 30.5201C47.8471 30.5348 48.2781 30.5837 48.7032 30.6663C49.0981 30.7438 49.4852 30.8563 49.8602 31.0024C50.2184 31.1435 50.5622 31.3188 50.8868 31.5258C51.2087 31.7315 51.51 31.9679 51.7864 32.2316Z" fill="white"/>
<path d="M66.6601 23.6818V18.2298C66.6634 17.8969 66.6135 17.5656 66.5121 17.2484C66.421 16.9641 66.2769 16.6996 66.0875 16.4687C65.9016 16.2461 65.6729 16.063 65.4149 15.9302C65.1366 15.7888 64.8343 15.7005 64.5237 15.6697C64.2223 15.6323 63.9166 15.6548 63.624 15.7361C63.365 15.8109 63.1283 15.9479 62.9345 16.1352C62.736 16.3322 62.5855 16.5722 62.4948 16.8367C62.3885 17.1491 62.3364 17.4773 62.3409 17.8072V23.3684C62.338 23.7067 62.39 24.0432 62.4948 24.3649C62.5889 24.6492 62.7384 24.9122 62.9345 25.1387C63.1261 25.3561 63.3609 25.5312 63.624 25.6529C63.9072 25.7825 64.2125 25.8569 64.5237 25.8722C64.8249 25.896 65.1279 25.8594 65.4149 25.7646C65.6692 25.6797 65.8997 25.5358 66.0875 25.3445C66.2793 25.1437 66.4243 24.903 66.5121 24.6396C66.6149 24.3318 66.6649 24.0088 66.6601 23.6843M68.4443 14.4422C68.927 14.9672 69.3008 15.5826 69.5441 16.2528C69.6666 16.5974 69.7581 16.9522 69.8173 17.3131C69.8785 17.698 69.9089 18.0871 69.9081 18.4768V23.9876C69.9093 24.372 69.879 24.7559 69.8173 25.1353C69.7594 25.4814 69.6679 25.8211 69.5441 26.1494C69.3052 26.7741 68.9294 27.3373 68.4443 27.7979C68.2052 28.0232 67.9412 28.2205 67.6573 28.386C67.3682 28.5562 67.0607 28.6932 66.7408 28.7944C66.4012 28.903 66.0517 28.9781 65.6974 29.0187C65.3083 29.0626 64.9163 29.0744 64.5253 29.054C64.1262 29.0372 63.7292 28.9877 63.3381 28.9061C62.9683 28.8299 62.6063 28.7197 62.2569 28.5768C61.5717 28.3008 60.9512 27.8858 60.4345 27.3581C59.9179 26.8305 59.5163 26.2015 59.2552 25.5109C59.1209 25.1555 59.0209 24.7881 58.9567 24.4136C58.8881 24.0103 58.8544 23.6019 58.8558 23.1928V17.3955C58.8558 16.5233 58.9853 15.7512 59.2384 15.09C59.4679 14.4632 59.8503 13.9036 60.3508 13.4617C60.8644 13.0256 61.4774 12.7224 62.1358 12.5786C62.8336 12.4156 63.6332 12.3845 64.5253 12.4946C64.9218 12.5419 65.3137 12.6212 65.6974 12.7315C66.0567 12.8344 66.406 12.9697 66.7408 13.1357C67.3895 13.4569 67.9684 13.9029 68.4443 14.4481" fill="white"/>
<path d="M76.8859 21.1008C77.1597 21.1297 77.4365 21.1078 77.7023 21.0361C77.9307 20.9745 78.1405 20.8581 78.3135 20.697C78.4866 20.5359 78.6176 20.3351 78.6953 20.1119C78.7872 19.8542 78.8322 19.5822 78.8282 19.3086C78.8302 19.0342 78.7853 18.7614 78.6953 18.5021C78.6117 18.2617 78.4807 18.0404 78.3102 17.8514C78.1396 17.6624 77.933 17.5094 77.7023 17.4014C77.445 17.2803 77.1689 17.2038 76.8859 17.1754L75.1791 16.9914V20.9462L76.8859 21.1008ZM79.8531 23.481L81.8979 29.6472L78.7281 29.4952L76.9692 24.0339L75.1791 23.9003V29.3229L72.0942 29.1742V13.6592L77.2155 14.286C77.543 14.3256 77.8664 14.3931 78.1824 14.4876C78.4826 14.5779 78.7737 14.6961 79.0518 14.8405C79.3255 14.9838 79.5851 15.1526 79.827 15.3446C80.0747 15.5427 80.304 15.7626 80.5123 16.0016C80.7223 16.2372 80.9095 16.492 81.0714 16.7629C81.2304 17.0294 81.363 17.3108 81.4674 17.6031C81.574 17.9018 81.6528 18.2098 81.7029 18.5231C81.7557 18.8551 81.7815 19.1909 81.7802 19.5271C81.7833 19.9612 81.7436 20.3946 81.6617 20.821C81.59 21.1968 81.4696 21.5618 81.3035 21.9065C81.1479 22.2287 80.9453 22.526 80.7023 22.7887C80.4532 23.0571 80.1673 23.2888 79.8531 23.4768" fill="white"/>
<path d="M74.572 41.4648V36.9169C74.5765 36.579 74.5309 36.2424 74.4367 35.9179C74.3561 35.6435 74.2199 35.3887 74.0364 35.1693C73.8581 34.962 73.6338 34.7992 73.3815 34.6937C73.0965 34.5766 72.7916 34.5153 72.4835 34.5131L70.5286 34.4694V43.9123L72.4835 43.8678C72.7915 43.8661 73.0963 43.8053 73.3815 43.6888C73.6335 43.5828 73.8576 43.4201 74.0364 43.2133C74.2197 42.9937 74.3559 42.7389 74.4367 42.4647C74.5306 42.1398 74.5763 41.8029 74.572 41.4648ZM72.4835 31.4506C73.2332 31.4683 73.9737 31.6205 74.6696 31.9001C75.2759 32.1483 75.821 32.5253 76.2671 33.0049C76.7092 33.4904 77.0451 34.0628 77.2533 34.6853C77.4855 35.3934 77.5991 36.1349 77.5897 36.8799V41.501C77.5991 42.246 77.4855 42.9875 77.2533 43.6956C77.0451 44.3181 76.7092 44.8904 76.2671 45.3759C75.821 45.8556 75.2759 46.2326 74.6696 46.4808C73.9739 46.7608 73.2333 46.9128 72.4835 46.9295L67.2966 47.1235V31.2573L72.4835 31.4506Z" fill="white"/>
<path d="M76.6791 48.9834V59.2338C76.6796 59.6104 76.6515 59.9864 76.595 60.3588C76.5435 60.7071 76.4611 61.0501 76.3487 61.3838C76.2404 61.7062 76.1019 62.0176 75.935 62.3139C75.7652 62.6116 75.5682 62.8928 75.3464 63.1541C75.1296 63.4071 74.8895 63.6392 74.6292 63.8473C74.3703 64.0529 74.0921 64.2329 73.7985 64.385C73.4948 64.5403 73.1777 64.6677 72.8509 64.7656C72.5031 64.8678 72.1473 64.9409 71.7873 64.9841C71.4309 65.0307 71.071 65.0453 70.7119 65.0277C70.3818 65.013 70.054 64.9637 69.7341 64.8807C69.4294 64.8011 69.1348 64.6866 68.8563 64.5396C68.5784 64.391 68.3188 64.2106 68.0828 64.0019C67.8486 63.7834 67.6404 63.5387 67.4623 63.2726C67.2809 62.9994 67.1311 62.7065 67.0158 62.3996C66.8948 62.0699 66.8067 61.7291 66.7526 61.3821C66.6904 60.998 66.6601 60.6093 66.6618 60.2202V49.4657L69.9098 49.3094V59.8286C69.9051 60.1461 69.9493 60.4623 70.041 60.7663C70.1168 61.0172 70.2455 61.249 70.4185 61.446C70.5797 61.6249 70.7841 61.7597 71.0121 61.8375C71.2637 61.919 71.5301 61.9439 71.7924 61.9106C72.064 61.8836 72.3273 61.8013 72.5659 61.6686C72.7932 61.5405 72.9912 61.3662 73.1469 61.157C73.3124 60.932 73.4366 60.6793 73.5135 60.4109C73.6005 60.1026 73.6433 59.7835 73.6405 59.4631V49.1288L76.6791 48.9834Z" fill="white"/>
<path d="M83.4946 55.2849C83.7591 55.2662 84.018 55.1999 84.2588 55.0891C84.4768 54.9874 84.6712 54.8415 84.8298 54.6606C84.9892 54.4766 85.1109 54.2631 85.1879 54.0322C85.2721 53.7734 85.3136 53.5027 85.3107 53.2306C85.314 52.9734 85.2725 52.7175 85.1879 52.4744C85.1117 52.2629 84.9893 52.0709 84.8298 51.9124C84.6689 51.7574 84.4739 51.6423 84.2605 51.5763C84.0133 51.5006 83.754 51.4721 83.4962 51.4923L81.8987 51.5931V55.4168L83.4946 55.2849ZM86.2734 57.1022L88.1862 62.7416L85.2157 63.1063L83.5686 58.1122L81.8979 58.2735V63.5129L79.0089 63.8675V48.8717L83.8015 48.6415C84.1035 48.6258 84.4063 48.6376 84.7062 48.6768C84.9838 48.714 85.2566 48.7807 85.52 48.8759C85.775 48.9692 86.019 49.0904 86.2473 49.2372C86.4798 49.3892 86.6952 49.5658 86.8897 49.764C87.087 49.9592 87.2621 50.1756 87.4118 50.4093C87.5616 50.6444 87.6854 50.8951 87.781 51.157C87.8816 51.4336 87.9557 51.7192 88.0021 52.0098C88.0516 52.3272 88.0761 52.6481 88.0752 52.9693C88.0779 53.3955 88.0414 53.8211 87.9659 54.2405C87.896 54.6212 87.7831 54.9926 87.6296 55.3479C87.4826 55.6873 87.2939 56.007 87.068 56.2999C86.8358 56.5978 86.5685 56.8667 86.2717 57.1006" fill="white"/>
<path d="M97.6192 25.6151V21.5755C97.6231 21.2732 97.5869 20.9718 97.5115 20.679C97.4498 20.4318 97.3432 20.198 97.1971 19.9892C97.0611 19.798 96.8849 19.6389 96.6808 19.5229C96.4622 19.4035 96.2217 19.3295 95.9737 19.3053L94.4376 19.1372V27.5047L95.9737 27.6013C96.2137 27.6213 96.4551 27.5883 96.6808 27.5047C96.8828 27.4264 97.0608 27.2966 97.1971 27.1283C97.3451 26.9405 97.4522 26.7239 97.5115 26.4923C97.5877 26.2054 97.6239 25.9094 97.6192 25.6126M95.9737 16.5864C96.5765 16.6534 97.1607 16.8362 97.694 17.125C98.1852 17.3951 98.6148 17.7645 98.9552 18.2097C99.3077 18.6776 99.5713 19.2061 99.7329 19.7691C99.9158 20.4102 100.006 21.0743 99.9995 21.741V25.8579C100.008 26.5096 99.918 27.1588 99.7329 27.7837C99.5772 28.3092 99.3122 28.7959 98.9552 29.212C98.612 29.6004 98.179 29.8992 97.694 30.0824C97.1437 30.2821 96.558 30.3657 95.9737 30.3278L91.9043 30.1312V16.0898L95.9737 16.5864Z" fill="white"/>
<path d="M67.5261 56.2262C67.5192 56.2004 67.5172 56.1736 67.5202 56.1472C67.5715 55.9102 67.5329 55.6758 67.5202 55.438C67.5009 55.1079 67.4362 54.7852 67.3958 54.4601C67.3958 54.4273 67.3899 54.3945 67.3866 54.3626C67.3328 54.3307 67.326 54.2937 67.3756 54.2509L67.3302 53.977C67.3084 53.8005 67.2344 53.6274 67.3067 53.4468L67.2226 53.2057C67.2 53.1909 67.1836 53.1683 67.1768 53.1422C67.1699 53.1161 67.1731 53.0884 67.1856 53.0645C67.0568 52.5635 66.8402 52.0893 66.5458 51.6639C66.2606 51.2303 65.8685 50.8773 65.4073 50.6389C65.3025 50.5817 65.2024 50.5162 65.108 50.4431C64.8972 50.2782 64.661 50.1488 64.4085 50.06C64.4015 50.0627 64.3941 50.064 64.3866 50.0638C64.3792 50.0636 64.3718 50.0619 64.365 50.0589C64.3582 50.0558 64.3521 50.0514 64.347 50.046C64.3419 50.0406 64.3379 50.0342 64.3353 50.0272C64.0235 49.9634 63.7231 49.8532 63.4441 49.7004C63.4223 49.6843 63.4025 49.6657 63.3852 49.6449C63.3435 49.6403 63.3047 49.6216 63.2751 49.592C63.2154 49.5819 63.1506 49.592 63.1069 49.5365C63.0312 49.5256 62.9455 49.5525 62.8849 49.4802C62.7571 49.4752 62.626 49.4903 62.5099 49.4164C62.4735 49.4131 62.4367 49.4165 62.4015 49.4265C62.2451 49.5105 62.0971 49.4265 61.9466 49.4063C61.8978 49.4013 61.8936 49.3399 61.8852 49.2946C61.6601 49.2896 61.4367 49.2543 61.221 49.1895C61.1647 49.2601 61.1504 49.2576 61.1016 49.1652C60.8349 49.1023 60.5649 49.0549 60.2927 49.0232C60.2482 49.0232 60.1876 49.04 60.1607 49.0181C60.0641 48.9341 59.9421 48.9341 59.8362 48.8887C59.742 48.8619 59.6546 48.9055 59.5638 48.9139C59.5058 48.9324 59.444 48.935 59.3847 48.9215C58.8895 48.9022 58.4136 49.0106 57.9402 49.1341C57.5198 49.2441 57.1246 49.4265 56.7177 49.5735C56.4733 49.6571 56.2345 49.7564 56.003 49.8709C56.0131 49.886 56.025 49.8998 56.0383 49.9121C56.0703 49.9356 56.098 49.9692 56.0526 49.9961C55.6112 50.2482 55.2118 50.5574 54.7729 50.8111C54.749 50.825 54.7243 50.8377 54.6989 50.8489C54.6838 50.8593 54.6656 50.8644 54.6472 50.8635C54.6288 50.8626 54.6113 50.8557 54.5972 50.8439C54.5878 50.8339 54.5816 50.8214 54.5794 50.808C54.5771 50.7945 54.5789 50.7807 54.5846 50.7682C54.5989 50.7153 54.6106 50.6615 54.6241 50.6086C54.6685 50.4779 54.6849 50.3394 54.672 50.202C54.6499 50.1799 54.6323 50.1538 54.6203 50.1249C54.6082 50.0961 54.6021 50.0652 54.6021 50.0339C54.6021 50.0027 54.6082 49.9718 54.6203 49.9429C54.6323 49.9141 54.6499 49.8879 54.672 49.8659C54.6867 49.7189 54.6867 49.5709 54.672 49.4239C54.614 49.3861 54.5879 49.303 54.4954 49.3114C54.449 49.3109 54.4046 49.2922 54.3719 49.2593C54.3314 49.2364 54.301 49.1993 54.2864 49.1552C54.2718 49.1111 54.2741 49.0631 54.2928 49.0206C54.3433 48.8745 54.4004 48.7299 54.461 48.5854C54.461 48.5737 54.487 48.5678 54.5005 48.5585C54.5089 48.572 54.5232 48.5854 54.5249 48.5989C54.5308 48.6678 54.5812 48.6829 54.6359 48.7014C54.6372 48.6375 54.6428 48.5738 54.6527 48.5106C54.6602 48.4663 54.6581 48.4209 54.6467 48.3775C54.6352 48.334 54.6146 48.2935 54.5863 48.2586C54.5711 48.1981 54.5551 48.1376 54.535 48.0586C54.4326 48.1205 54.338 48.1944 54.2533 48.2788C54.2427 48.2866 54.2305 48.2922 54.2177 48.2952C54.2048 48.2982 54.1915 48.2986 54.1785 48.2964C54.1339 48.2914 54.1247 48.2502 54.1221 48.2124C54.1166 48.176 54.1183 48.1389 54.1272 48.1032C54.1501 48.0289 54.1553 47.9503 54.1423 47.8737C54.1293 47.7971 54.0985 47.7246 54.0524 47.6621C54.0245 47.6256 54.0091 47.5811 54.0086 47.5352C54.0119 47.4892 54.0041 47.4431 53.986 47.4008C53.9679 47.3584 53.9399 47.3209 53.9044 47.2915C53.8699 47.2604 53.8388 47.2226 53.8648 47.1714C53.8771 47.1466 53.8971 47.1264 53.9218 47.1138C53.9465 47.1012 53.9746 47.097 54.0019 47.1016C54.028 47.1016 54.054 47.1075 54.0801 47.1075C54.0801 47.1075 54.0919 47.0949 54.0919 47.0874C54.0919 47.0798 54.0919 47.0638 54.0851 47.0622C54.0515 47.049 54.0165 47.0395 53.9809 47.0336C53.9577 47.0321 53.9356 47.0231 53.918 47.0079C53.9004 46.9928 53.8882 46.9723 53.8833 46.9496C53.8493 46.9264 53.8223 46.8943 53.8053 46.8568C53.7882 46.8193 53.7818 46.7779 53.7867 46.737C53.7963 46.6922 53.7946 46.6456 53.7816 46.6016C53.7687 46.5576 53.745 46.5175 53.7127 46.4849C53.6614 46.4791 53.6059 46.49 53.5647 46.4463L53.2965 46.4639C53.0703 46.5631 52.9602 46.6169 53.0064 46.2539C53.0064 46.1993 53.0165 46.1321 52.9602 46.106C52.9181 46.0879 52.8833 46.0564 52.861 46.0165C52.8388 45.9765 52.8305 45.9303 52.8374 45.885C52.8408 45.8621 52.8379 45.8386 52.829 45.8172C52.8201 45.7957 52.8056 45.7771 52.787 45.7632C52.6516 45.6901 52.5196 45.5952 52.3514 45.6574C52.3169 45.67 52.2842 45.6859 52.2497 45.6985C52.0815 45.7557 51.9235 45.8178 51.7452 45.7699C51.6807 45.7597 51.6148 45.7754 51.5619 45.8136C51.5897 45.8682 51.6821 45.8649 51.6754 45.9523C51.6777 45.9885 51.6713 46.0247 51.6567 46.0579C51.6421 46.0911 51.6196 46.1203 51.5913 46.143C51.5196 46.1983 51.4529 46.2599 51.3921 46.327C51.3652 46.3522 51.3156 46.3556 51.3029 46.311C51.276 46.2169 51.2012 46.1346 51.229 46.0262C51.1751 46.0283 51.1239 46.0501 51.0852 46.0875C51.0689 46.1026 51.0499 46.1142 51.0291 46.1219C51.0083 46.1295 50.9862 46.133 50.9641 46.1321C50.8904 46.2236 50.8027 46.303 50.7043 46.3673C50.5815 46.4446 50.4663 46.5354 50.3512 46.6244C50.2633 46.706 50.1482 46.7521 50.0283 46.7538C49.9224 46.7488 49.8265 46.8555 49.7122 46.7765C49.681 46.7555 49.6499 46.7899 49.6197 46.8126C49.5415 46.8731 49.4515 46.9252 49.3733 46.9807C49.2842 47.0806 49.2052 47.1966 49.0664 47.2327C48.9882 47.2941 48.9117 47.3571 48.8318 47.4159C48.8153 47.4316 48.7939 47.4412 48.7711 47.4432C48.7484 47.4452 48.7256 47.4394 48.7066 47.4268C48.7066 47.4839 48.6788 47.5049 48.6225 47.4848C48.6368 47.5352 48.6006 47.5512 48.5636 47.5688C48.5266 47.6091 48.493 47.6528 48.4526 47.6889C48.1314 47.9771 47.78 48.2317 47.4748 48.5359C47.4613 48.5485 47.4496 48.5669 47.4344 48.5728C47.2663 48.6333 47.1671 48.782 47.0409 48.8971C46.9148 49.0122 46.7786 49.0954 46.6491 49.1979C46.5965 49.2352 46.5507 49.2812 46.5138 49.334C46.4145 49.4937 46.2615 49.5987 46.1278 49.7205C45.9597 49.8726 45.8016 50.0423 45.6402 50.2045C45.588 50.2566 45.541 50.3162 45.4569 50.3154C45.3879 50.5128 45.2257 50.6389 45.0903 50.7842C45.0651 50.8111 45.0062 50.8052 44.96 50.8153C44.9497 50.9129 44.9072 51.0044 44.8392 51.0751C44.7711 51.1459 44.6813 51.1919 44.5841 51.206C44.5729 51.2163 44.564 51.2289 44.5581 51.243C44.5531 51.2772 44.5426 51.3104 44.5269 51.3413C44.4218 51.4757 44.31 51.6059 44.1965 51.7311C44.1094 51.8473 43.9897 51.935 43.8526 51.9832C43.8424 51.9924 43.8341 52.0035 43.8282 52.0159C43.8282 52.1949 43.7231 52.2772 43.5575 52.3008C43.5331 52.4932 43.402 52.5848 43.2363 52.6444L43.18 52.7007C43.1819 52.7154 43.1805 52.7302 43.176 52.7443C43.1714 52.7584 43.1638 52.7713 43.1537 52.782C43.1435 52.7928 43.1311 52.8012 43.1174 52.8066C43.1036 52.812 43.0888 52.8143 43.0741 52.8133C43.0092 52.8501 42.9561 52.9046 42.921 52.9704C42.8641 53.0643 42.7936 53.1493 42.7117 53.2225C42.5755 53.3569 42.4535 53.5039 42.3114 53.6358C42.2082 53.7501 42.0957 53.8558 41.9751 53.9517C41.9295 53.984 41.8932 54.0278 41.87 54.0786C41.7616 54.3231 41.5068 54.4407 41.3706 54.66C41.1007 54.8684 40.8846 55.1331 40.6366 55.365C40.4587 55.512 40.3024 55.6834 40.1725 55.8741C39.9547 56.0195 39.8109 56.2388 39.6276 56.4194C39.5755 56.4706 39.5385 56.5387 39.483 56.5874C39.2383 56.7989 39.0051 57.0233 38.7843 57.2596C38.3866 57.657 37.9813 58.0477 37.5878 58.4501C37.4384 58.6122 37.2801 58.7659 37.1136 58.9106C37.0085 59.0006 36.9083 59.0963 36.8135 59.1971C36.7047 59.3217 36.5894 59.4403 36.4679 59.5525C36.3309 59.6642 36.2039 59.7835 36.0778 59.9054C35.765 60.2061 35.4447 60.5002 35.1411 60.8102C34.9166 61.0396 34.7115 61.2892 34.5021 61.5345C34.4323 61.6185 34.3928 61.7076 34.4895 61.8034C34.5324 61.8445 34.5131 61.8874 34.4777 61.9227C34.3777 62.0193 34.2793 62.1125 34.4592 62.226C34.4702 62.2327 34.4727 62.2604 34.4719 62.2772C34.4643 62.3654 34.5164 62.3965 34.5896 62.3881C34.6736 62.3853 34.7554 62.4154 34.8174 62.4721C34.8174 62.6024 34.9578 62.662 34.9755 62.7755C34.9931 62.8889 35.0402 62.8948 35.1252 62.8746C35.1605 62.8662 35.1966 62.8586 35.2092 62.8746C35.2479 62.9586 35.1504 63.0023 35.1924 63.0847L35.5548 62.9889C35.5342 63.0153 35.5159 63.0434 35.5001 63.0729C35.4884 63.0989 35.4926 63.1342 35.5279 63.1292C35.5817 63.1225 35.633 63.0981 35.686 63.0863C35.7213 63.0788 35.77 63.0771 35.7751 63.1225C35.7894 63.2208 35.8592 63.2166 35.9163 63.1922C36.0963 63.1199 36.2653 63.0242 36.4393 62.9401C37.0144 62.6629 37.5677 62.352 38.1142 62.0159C39.6512 61.0917 41.1251 60.0692 42.5931 59.04C42.8358 58.8552 43.0884 58.6838 43.3498 58.5266C43.3624 58.5157 43.3826 58.4922 43.3877 58.4947C43.423 58.5165 43.4036 58.5384 43.3826 58.5585C43.3748 58.6035 43.363 58.6476 43.3473 58.6904C43.201 59.0089 43.0505 59.3256 42.9042 59.6441C42.5118 60.4893 42.1225 61.3348 41.7363 62.1806C41.6666 62.331 41.5959 62.4814 41.527 62.6318L40.8543 64.0895C40.5811 64.6852 40.312 65.2826 40.0329 65.8758C39.8126 66.3421 39.6394 66.8294 39.4065 67.2898C39.3737 67.3554 39.3392 67.4217 39.3106 67.4889C39.0054 68.2006 38.6977 68.9106 38.4354 69.6407C38.2889 70.0196 38.1783 70.4115 38.1049 70.8111C38.0489 71.1757 37.9897 71.5398 37.9275 71.9033C37.8954 72.0677 37.9009 72.2371 37.9435 72.399C37.9746 72.5066 38.0747 72.5545 38.1419 72.6301C38.2092 72.7057 38.1915 72.8704 38.2882 72.9494C38.3412 72.9931 38.3471 73.0653 38.4076 73.0956C38.4337 73.1073 38.4656 73.114 38.474 73.0813C38.4862 73.0373 38.4905 72.9915 38.4867 72.946C38.4584 72.6137 38.5023 72.2793 38.6153 71.9655C38.6568 71.8721 38.6747 71.77 38.6674 71.6681C38.6607 71.637 38.6582 71.6151 38.6901 71.6135C38.7062 71.6153 38.7226 71.6134 38.7378 71.6078C38.753 71.6022 38.7667 71.5931 38.7777 71.5812C38.7888 71.5694 38.7969 71.5551 38.8014 71.5395C38.8059 71.524 38.8066 71.5076 38.8036 71.4916C38.7986 71.3236 38.8961 71.2186 39.0222 71.1304C39.0173 71.2675 38.9984 71.4037 38.9659 71.537C38.9082 71.7202 38.8798 71.9113 38.8818 72.1033C38.8835 72.1397 38.8778 72.1762 38.8651 72.2104C38.8524 72.2446 38.8329 72.2759 38.8078 72.3024C38.7772 72.3308 38.7533 72.3657 38.7379 72.4045C38.7225 72.4433 38.7159 72.4851 38.7187 72.5268C38.7389 72.6486 38.6826 72.7595 38.6927 72.8796C38.7089 72.9982 38.7151 73.1179 38.7112 73.2376C38.7077 73.2792 38.7127 73.321 38.7257 73.3607C38.7386 73.4004 38.7594 73.4371 38.7868 73.4686C38.7979 73.4829 38.8143 73.4923 38.8322 73.4947C38.8633 73.4947 38.8734 73.4669 38.8717 73.4409C38.8577 73.2182 38.8779 72.9946 38.9314 72.778C38.9302 72.852 38.9452 72.9254 38.9752 72.9931C39.0206 73.0603 39.1181 73.093 39.1929 73.1401C39.2006 73.1451 39.2088 73.1493 39.2173 73.1527C39.2401 73.1685 39.2678 73.1755 39.2953 73.1724C39.3228 73.1693 39.3483 73.1563 39.367 73.1359C39.373 73.1289 39.3806 73.1233 39.3891 73.1196C39.3976 73.116 39.4069 73.1143 39.4161 73.1148C39.4254 73.1153 39.4344 73.1179 39.4425 73.1224C39.4506 73.127 39.4576 73.1333 39.4628 73.1409C39.4693 73.1474 39.4742 73.1551 39.4773 73.1637C39.4804 73.1722 39.4816 73.1813 39.4808 73.1904C39.48 73.1994 39.4772 73.2082 39.4727 73.216C39.4681 73.2239 39.4619 73.2307 39.4544 73.2359C39.393 73.288 39.4073 73.3384 39.4687 73.3619C39.5125 73.3748 39.5522 73.399 39.5838 73.432C39.6154 73.465 39.6377 73.5058 39.6486 73.5501C39.6688 73.6182 39.6949 73.6173 39.7327 73.5636C39.7505 73.533 39.772 73.5048 39.7966 73.4795C39.816 73.4675 39.8379 73.4601 39.8606 73.458C39.8833 73.4559 39.9062 73.4591 39.9275 73.4675C39.9487 73.4758 39.9677 73.489 39.983 73.506C39.9982 73.5229 40.0092 73.5432 40.0152 73.5652C40.0203 73.6493 40.0102 73.7333 40.0152 73.8123C40.0203 73.8912 40.0455 73.9416 40.1254 73.9467C40.1484 73.9451 40.1716 73.9482 40.1933 73.9559C40.2151 73.9637 40.2351 73.9758 40.252 73.9915C40.2688 74.0073 40.2823 74.0264 40.2915 74.0476C40.3007 74.0688 40.3054 74.0916 40.3053 74.1147C40.312 74.1677 40.3465 74.2332 40.4104 74.2223C40.5239 74.2021 40.5374 74.3332 40.6046 74.3433C40.7568 74.3659 40.6576 74.4752 40.6887 74.5365C40.6887 74.5432 40.6887 74.5541 40.6887 74.5634C40.6927 74.6002 40.7089 74.6347 40.7346 74.6615C40.7603 74.6882 40.7941 74.7057 40.8308 74.7113C40.9149 74.7205 41.083 74.6575 41.1032 74.6079C41.1088 74.5902 41.1119 74.5718 41.1125 74.5533C41.1142 74.5253 41.1142 74.4973 41.1125 74.4693C41.1066 74.3012 41.2806 74.2685 41.337 74.1441C41.3507 74.1204 41.3694 74.0999 41.3918 74.084C41.4141 74.0681 41.4395 74.0571 41.4664 74.0517C41.4773 74.0485 41.4887 74.0476 41.5 74.049C41.5112 74.0503 41.5221 74.0539 41.5319 74.0596C41.5417 74.0652 41.5503 74.0728 41.5571 74.0818C41.5639 74.0909 41.5688 74.1012 41.5715 74.1122C41.5715 74.1391 41.5715 74.1668 41.5715 74.1962C41.5951 74.4827 41.4362 74.7482 41.4715 75.0364C41.4699 75.0641 41.4596 75.0905 41.4421 75.112C41.4194 75.135 41.4046 75.1644 41.3996 75.1962C41.3946 75.228 41.3998 75.2606 41.4143 75.2893C41.4379 75.3296 41.511 75.3044 41.6043 75.2305C41.6371 75.2036 41.6464 75.1465 41.6977 75.1465C41.705 75.1525 41.7121 75.159 41.7187 75.1658C41.733 75.1877 41.7422 75.2238 41.7616 75.2297C41.7809 75.2355 41.8112 75.2053 41.8103 75.1809C41.8183 75.0431 41.8484 74.9075 41.8995 74.7793C41.9289 74.6827 41.9516 74.5844 41.9835 74.4894C41.9891 74.4769 41.9981 74.4661 42.0094 74.4583C42.0207 74.4505 42.0339 74.446 42.0477 74.4452C42.0614 74.4444 42.0751 74.4474 42.0872 74.4539C42.0993 74.4604 42.1094 74.4701 42.1164 74.4819C42.1367 74.5232 42.1541 74.5659 42.1685 74.6096C42.2173 74.6474 42.2383 74.6861 42.1752 74.7297C42.1631 74.7828 42.1664 74.8381 42.1845 74.8894C42.2341 74.8827 42.2686 74.8583 42.2686 74.8054C42.2812 74.6974 42.3095 74.5918 42.3526 74.492C42.3613 74.4658 42.3776 74.443 42.3995 74.4263C42.4215 74.4097 42.4479 74.4 42.4754 74.3987C42.5141 74.3937 42.5511 74.4239 42.5368 74.4609C42.5225 74.4979 42.4611 74.5399 42.5292 74.5962C42.5662 74.6264 42.5452 74.6802 42.5368 74.723C42.5107 74.8558 42.4384 74.9751 42.4443 75.1171L42.557 75.112C42.6217 75.0381 42.7075 75.0801 42.784 75.07C42.8168 75.0163 42.8504 74.9633 42.8798 74.9079C42.8975 74.8759 42.9109 74.8432 42.9538 74.8407C42.9983 74.8473 43.0438 74.8403 43.0841 74.8205C43.1253 74.7928 43.1506 74.7365 43.2161 74.7415C43.2691 74.8003 43.3271 74.8566 43.3759 74.9205C43.4247 74.9843 43.3843 75.0658 43.449 75.1179C43.4757 75.1175 43.502 75.1244 43.525 75.1377C43.5481 75.151 43.5672 75.1703 43.5802 75.1935L43.782 75.1263C43.8005 74.9137 43.9048 74.7213 43.9317 74.513C43.9451 74.4113 44.0855 74.4289 44.0712 74.3306C44.0549 74.259 44.0549 74.1847 44.0712 74.113C44.115 73.9635 44.1805 73.8198 44.1713 73.6585C44.1728 73.6404 44.1791 73.6231 44.1896 73.6083C44.2001 73.5935 44.2144 73.5818 44.231 73.5745C44.2789 73.5467 44.326 73.5173 44.3748 73.4905C44.4235 73.4636 44.4866 73.4291 44.5009 73.3552C44.5016 73.3435 44.5051 73.3321 44.5113 73.3221C44.5175 73.3122 44.5261 73.3039 44.5362 73.298C44.5464 73.2922 44.5579 73.289 44.5696 73.2887C44.5814 73.2884 44.593 73.291 44.6035 73.2964C44.6606 73.3174 44.6598 73.3653 44.6371 73.409C44.5809 73.545 44.5117 73.6753 44.4303 73.798C44.3982 73.8315 44.3731 73.871 44.3564 73.9143C44.3397 73.9575 44.3316 74.0037 44.3327 74.05C44.3343 74.1149 44.3101 74.1777 44.2655 74.2248C44.2386 74.2609 44.2713 74.2928 44.2865 74.3239C44.3026 74.3671 44.3226 74.4087 44.3462 74.4483C44.3545 74.4627 44.3662 74.4748 44.3804 74.4836C44.3945 74.4924 44.4105 74.4976 44.4271 74.4988C44.4437 74.4999 44.4604 74.497 44.4756 74.4903C44.4908 74.4835 44.5041 74.4731 44.5143 74.46C44.5383 74.4333 44.5608 74.4053 44.5816 74.376C44.6637 74.2529 44.7287 74.1192 44.775 73.9786C44.8037 73.8808 44.8553 73.7913 44.9255 73.7173C44.9373 73.703 44.9533 73.6927 44.9712 73.6877C44.989 73.6828 45.008 73.6834 45.0255 73.6896C45.0676 73.7106 45.0567 73.7501 45.0373 73.7837C45.018 73.8173 44.9911 73.8677 44.9675 73.903C44.9616 73.91 44.9572 73.9182 44.9547 73.9271C44.9522 73.936 44.9516 73.9453 44.9531 73.9544C44.9545 73.9635 44.9579 73.9721 44.963 73.9798C44.9681 73.9875 44.9748 73.9939 44.9827 73.9988C44.9945 74.0048 45.0076 74.008 45.0209 74.008C45.0342 74.008 45.0473 74.0048 45.0592 73.9988C45.1329 73.9437 45.2013 73.8818 45.2635 73.8139C45.5303 73.5182 45.7452 73.1796 45.8991 72.8124C46.1177 72.2638 46.3515 71.7202 46.5642 71.1698C47.0816 69.8351 47.5942 68.498 48.102 67.1588C48.5275 66.0363 48.9428 64.9087 49.3632 63.7854C49.6205 63.1031 49.8778 62.4192 50.1502 61.7429C50.6101 60.6036 51.081 59.4693 51.5518 58.3342C51.82 57.6856 52.0983 57.0411 52.3733 56.395C52.4052 56.3194 52.4431 56.2455 52.4817 56.1715C52.4871 56.1649 52.4939 56.1595 52.5016 56.1559C52.5093 56.1523 52.5178 56.1504 52.5263 56.1505C52.5343 56.1529 52.5415 56.1574 52.5473 56.1634C52.553 56.1694 52.5571 56.1769 52.5591 56.185C52.5591 56.2497 52.5843 56.2917 52.6524 56.2984C52.6667 56.2809 52.6853 56.2675 52.7064 56.2595C52.7275 56.2516 52.7504 56.2493 52.7727 56.253C52.7862 56.2108 52.8131 56.1742 52.8494 56.1487C52.8857 56.1233 52.9293 56.1103 52.9736 56.1119C52.9795 56.1119 52.9904 56.127 52.9887 56.132C52.9585 56.2329 52.8744 56.2539 52.7844 56.2665C52.7735 56.3161 52.7281 56.3253 52.6919 56.3446C52.639 56.4547 52.5389 56.5269 52.4674 56.6202C52.5431 56.7471 52.6247 56.8244 52.7701 56.716C52.8113 56.6849 52.8593 56.7311 52.8475 56.7874C52.7937 57.0596 52.7415 57.331 52.6793 57.6015C52.6171 57.8721 52.5364 58.1107 52.4649 58.3661C52.3018 58.9467 52.2657 59.5483 52.2514 60.1473C52.2469 60.5155 52.2781 60.8833 52.3447 61.2455C52.3598 61.3362 52.3766 61.427 52.3977 61.516C52.4935 61.9201 52.5852 62.3251 52.7903 62.6923C52.9042 62.881 53.0045 63.0775 53.0905 63.2804C53.2023 63.5638 53.3394 63.8365 53.4999 64.0954C53.9238 64.8281 54.569 65.4078 55.343 65.7514C55.6297 65.8775 55.9315 65.9732 56.2199 66.0925C56.4926 66.2069 56.7737 66.3001 57.0607 66.3715C57.7436 66.5425 58.4525 66.585 59.1509 66.4967C60.052 66.3805 60.9193 66.0796 61.6986 65.6128C62.2801 65.2532 62.8265 64.8397 63.3306 64.3777C63.4987 64.2307 63.6585 64.0803 63.8233 63.9316C63.8262 63.9232 63.8314 63.9159 63.8382 63.9103C63.845 63.9046 63.8532 63.901 63.8619 63.8996L64.0587 63.7492C64.056 63.722 64.0594 63.6944 64.0685 63.6686C64.0777 63.6427 64.0924 63.6192 64.1117 63.5997C64.1756 63.5333 64.2369 63.4653 64.2991 63.398C64.3414 63.3633 64.378 63.3222 64.4076 63.2762C64.5194 63.0099 64.7439 62.8276 64.9003 62.5906C64.9644 62.4895 65.0548 62.4076 65.1618 62.3537C65.2583 62.301 65.3364 62.2201 65.3855 62.1218C65.4474 61.9997 65.5305 61.8896 65.631 61.7966C65.6879 61.6589 65.774 61.5351 65.8832 61.4337C65.8757 61.3497 65.9278 61.306 65.9934 61.2707C65.9936 61.2381 66.0046 61.2065 66.0247 61.1808C66.0448 61.1552 66.0728 61.1368 66.1043 61.1287C66.0985 61.0867 66.1043 61.0556 66.1582 61.0715C66.1313 61.0052 66.1422 60.9875 66.2145 60.9623C66.1825 60.8959 66.2145 60.8556 66.2725 60.8229C66.2389 60.6909 66.3196 60.5918 66.3793 60.4927C66.4349 60.3989 66.4836 60.3012 66.5247 60.2003C66.6618 59.8709 66.8089 59.5449 66.9561 59.2198C67.0072 59.1223 67.0445 59.0183 67.0671 58.9106C67.0696 58.8736 67.0818 58.8379 67.1024 58.807C67.1231 58.7762 67.1515 58.7514 67.1848 58.735C67.202 58.5747 67.239 58.4173 67.2949 58.2661C67.2764 58.0128 67.2945 57.7581 67.3487 57.51C67.3858 57.2468 67.4458 56.9873 67.5278 56.7345C67.5655 56.5671 67.5649 56.3933 67.5261 56.2262ZM38.2823 71.7294C38.2454 71.8714 38.2058 72.0134 38.1655 72.1537C38.149 72.1851 38.1403 72.2199 38.1403 72.2554C38.1487 72.3209 38.168 72.4234 38.0797 72.4301C38.0183 72.4301 38.0259 72.3259 38.0049 72.268C37.9948 72.227 37.9892 72.185 37.9881 72.1428C38.0222 72.0489 38.0301 71.9475 38.0108 71.8496C38.0106 71.7483 38.0264 71.6476 38.0578 71.5513C38.0806 71.4479 38.1083 71.4521 38.2067 71.5168C38.2434 71.5366 38.2715 71.5693 38.2855 71.6085C38.2995 71.6478 38.2984 71.6909 38.2823 71.7294ZM38.5522 70.8976C38.5438 70.9136 38.5068 70.9195 38.4825 70.9211C38.4757 70.9211 38.4581 70.8917 38.4598 70.8766C38.4821 70.6692 38.5389 70.4671 38.6279 70.2784C38.6336 70.2721 38.6406 70.2672 38.6485 70.2641C38.6564 70.2611 38.6649 70.2599 38.6733 70.2607C38.6868 70.2607 38.6977 70.2826 38.7095 70.2944C38.6641 70.4977 38.6506 70.7086 38.5522 70.8976ZM39.0138 69.3012C39.0101 69.3831 38.9948 69.464 38.9684 69.5415C38.897 69.7356 38.8364 69.9348 38.7574 70.1751C38.7202 70.1019 38.7106 70.0178 38.7305 69.9381C38.7969 69.7121 38.8516 69.4802 38.9953 69.2853C39.0062 69.1748 39.0384 69.0675 39.0904 68.9694C39.0962 68.9559 39.1189 68.9492 39.1332 68.9391C39.1416 68.9534 39.1601 68.9719 39.1568 68.9828C39.1223 69.0929 39.129 69.2248 39.0138 69.2979V69.3012ZM39.4342 68.3023C39.4242 68.3249 39.4124 68.3241 39.4057 68.3023C39.4057 68.2964 39.4107 68.2888 39.4132 68.2821C39.4157 68.2754 39.4275 68.2821 39.43 68.2821C39.433 68.2872 39.4342 68.2931 39.4334 68.2989L39.4342 68.3023ZM42.05 62.5444C41.8608 62.8805 41.7405 63.2535 41.5783 63.6056C41.5093 63.7551 41.4437 63.9072 41.374 64.0576C41.1408 64.5662 40.9037 65.0748 40.6626 65.5834C40.6013 65.7145 40.5895 65.8733 40.4575 65.9674C40.4605 66.1063 40.4189 66.2426 40.3389 66.3564C40.2753 66.4583 40.2191 66.5647 40.1708 66.6748C40.1611 66.7007 40.1463 66.7245 40.1272 66.7445C40.1082 66.7646 40.0852 66.7806 40.0598 66.7916C40.0633 66.8928 40.0416 66.9932 39.9967 67.084C39.9337 67.2159 39.8874 67.3562 39.8345 67.4931C39.8277 67.51 39.8345 67.5352 39.8235 67.5461C39.6755 67.7066 39.6478 67.9275 39.5351 68.1048C39.5308 68.113 39.5244 68.12 39.5166 68.125C39.5023 68.13 39.478 68.1393 39.4729 68.1334C39.4671 68.1268 39.4629 68.119 39.4604 68.1106C39.4579 68.1022 39.4573 68.0933 39.4586 68.0846C39.5099 67.9569 39.5646 67.8326 39.6184 67.704C39.729 67.4218 39.8544 67.1455 39.9942 66.8764C40.0136 66.8471 40.035 66.819 40.0581 66.7924C40.1422 66.4916 40.2263 66.1942 40.4373 65.9522C40.4376 65.8687 40.4556 65.7862 40.4903 65.7103C40.608 65.4582 40.7257 65.2061 40.8384 64.9541C41.046 64.4911 41.2495 64.0299 41.4572 63.5627C41.6254 63.1841 41.7972 62.8063 41.9726 62.4293C41.9936 62.3831 42.0231 62.3318 42.092 62.3318C42.1315 62.4142 42.0828 62.4814 42.0491 62.541L42.05 62.5444ZM44.8078 72.883C44.7935 72.9141 44.7666 72.946 44.7237 72.9149C44.6943 72.8922 44.6682 72.8595 44.6875 72.8225C44.7107 72.7841 44.739 72.7491 44.7716 72.7183C44.7983 72.6943 44.8264 72.6719 44.8557 72.6511L44.8843 72.6839C44.8624 72.7502 44.8406 72.8183 44.8078 72.883ZM53.7337 48.0864C53.727 48.0984 53.7166 48.1079 53.704 48.1134C53.6913 48.1188 53.6772 48.12 53.6639 48.1166C53.6511 48.1133 53.6395 48.1062 53.631 48.0961C53.6224 48.086 53.6171 48.0735 53.616 48.0603C53.6131 48.0425 53.6131 48.0243 53.616 48.0065C53.6454 47.8984 53.6963 47.7972 53.7656 47.7091C53.7782 47.8687 53.8102 47.9813 53.7337 48.0864ZM54.2382 48.4224C54.2684 48.4224 54.276 48.451 54.2743 48.4787C54.2726 48.5064 54.2558 48.5283 54.223 48.5224C54.2166 48.5217 54.2103 48.5197 54.2047 48.5165C54.1991 48.5132 54.1942 48.5089 54.1903 48.5037C54.1864 48.4985 54.1837 48.4925 54.1822 48.4862C54.1808 48.4799 54.1806 48.4733 54.1818 48.467C54.1833 48.454 54.1897 48.4422 54.1998 48.4339C54.2098 48.4256 54.2227 48.4215 54.2356 48.4224H54.2382ZM54.3626 64.8734C54.3556 64.8761 54.3478 64.8761 54.3407 64.8734C54.3172 64.8507 54.2962 64.8255 54.2743 64.8012C54.2609 64.7979 54.2487 64.7909 54.2392 64.7809C54.2296 64.7709 54.2232 64.7584 54.2205 64.7449C54.202 64.7264 54.1844 64.7071 54.1659 64.6877L54.1078 64.6356L54.054 64.5777C54.0219 64.5514 53.9913 64.5234 53.9624 64.4937C53.9557 64.4869 53.9624 64.4592 53.9716 64.4517C53.9786 64.4495 53.986 64.4491 53.9932 64.4504C54.0003 64.4517 54.0071 64.4547 54.0128 64.4592C54.0291 64.4734 54.0418 64.4912 54.0498 64.5112C54.0579 64.5312 54.061 64.5528 54.0591 64.5743C54.073 64.5764 54.086 64.5823 54.0966 64.5916C54.1072 64.6008 54.1149 64.6129 54.1188 64.6264L54.1692 64.6869C54.1828 64.6896 54.1954 64.6959 54.2056 64.7053C54.2159 64.7146 54.2233 64.7266 54.2272 64.7398C54.2411 64.7419 54.2539 64.7481 54.264 64.7577C54.2741 64.7674 54.2809 64.7799 54.2836 64.7936C54.2999 64.7919 54.3165 64.7948 54.3313 64.8019C54.3462 64.809 54.3587 64.8201 54.3676 64.8339C54.3735 64.8398 54.3643 64.8591 54.3601 64.8734H54.3626ZM54.4904 64.9415C54.4945 64.9471 54.4976 64.9533 54.4997 64.96L54.4744 64.9381C54.4769 64.939 54.4845 64.9381 54.4879 64.9415H54.4904ZM54.5081 64.981C54.5053 64.9753 54.5031 64.9694 54.5013 64.9633C54.5088 64.9702 54.5158 64.9775 54.5224 64.9852C54.5148 64.9843 54.5081 64.9843 54.5055 64.981H54.5081ZM61.8507 57.1764C61.8552 57.1763 61.8596 57.1774 61.8634 57.1797C61.8672 57.1821 61.8702 57.1855 61.8721 57.1895C61.874 57.1935 61.8746 57.198 61.874 57.2024C61.8733 57.2068 61.8714 57.2109 61.8684 57.2142C61.8582 57.2263 61.8463 57.2368 61.8331 57.2453C61.8335 57.2292 61.8352 57.2132 61.8381 57.1974C61.8373 57.1899 61.8449 57.1756 61.8482 57.1764H61.8507ZM59.2695 55.2776C59.0828 55.2776 58.9096 55.4128 58.702 55.3406C58.8861 55.2154 59.0778 55.249 59.2695 55.2776ZM58.4077 50.0642C58.4478 50.0452 58.4906 50.0328 58.5346 50.0272C58.6145 50.0222 58.6952 50.0272 58.776 50.0272C58.6574 50.0894 58.5473 50.165 58.4178 50.1373C58.4035 50.1373 58.3825 50.1179 58.3816 50.1079C58.3818 50.0992 58.384 50.0908 58.3881 50.0832C58.3922 50.0756 58.3981 50.0691 58.4052 50.0642H58.4077ZM56.214 50.3675C56.1468 50.4725 56.0324 50.5137 55.9332 50.575C55.7548 50.6848 55.5682 50.7806 55.3749 50.8615C55.6017 50.6215 55.8917 50.4503 56.2115 50.3675H56.214ZM60.5374 60.2061C60.5291 60.2215 60.517 60.2344 60.5023 60.2438C60.4876 60.2532 60.4708 60.2588 60.4533 60.2599L60.397 60.3145C60.3976 60.3361 60.3921 60.3575 60.3813 60.3761C60.3705 60.3948 60.3547 60.4101 60.3356 60.4204L60.2978 60.438C60.3028 60.4254 60.3087 60.412 60.3146 60.3994C60.3148 60.3778 60.3202 60.3565 60.3305 60.3375C60.3407 60.3185 60.3555 60.3022 60.3735 60.2902L60.4248 60.2322C60.4491 60.2095 60.4727 60.1843 60.4987 60.1641C60.5248 60.144 60.5315 60.1591 60.5383 60.1809C60.5405 60.1892 60.5402 60.198 60.5374 60.2061ZM59.7546 60.0642C59.3307 60.4786 58.8517 60.8329 58.3312 61.1169C57.9465 61.3207 57.521 61.4356 57.086 61.453C56.9478 61.4478 56.8107 61.4266 56.6773 61.39C56.578 61.3627 56.4921 61.2999 56.436 61.2135C56.2276 60.9538 56.0483 60.6721 55.9013 60.3733C55.5377 59.6531 55.3458 58.8586 55.3405 58.0519C55.3405 57.8839 55.3455 57.7158 55.3405 57.5528C55.3278 57.3201 55.3926 57.0957 55.4111 56.8655C55.4151 56.7868 55.4439 56.7113 55.4934 56.6498C55.543 56.5884 55.6107 56.5442 55.6869 56.5236C56.4192 56.2715 57.1498 56.0052 57.9082 55.8371C58.294 55.7422 58.6855 55.6723 59.0803 55.6279C59.1644 55.6204 59.2434 55.591 59.3258 55.5859C59.6479 55.5658 59.969 55.5069 60.3398 55.5364C60.4138 55.5364 60.5349 55.5431 60.6543 55.5364C60.822 55.5304 60.9875 55.5768 61.1277 55.6691C61.2462 55.7405 61.358 55.8237 61.48 55.8901C61.6599 55.9875 61.712 56.1741 61.7894 56.3354C61.8541 56.4698 61.8238 56.6219 61.7826 56.7689C61.5733 57.5066 61.2168 58.1704 60.7972 58.8064C60.499 59.2642 60.1492 59.6862 59.7546 60.0642ZM61.9886 57.6015C61.9683 57.6898 61.9419 57.7765 61.9096 57.8612C61.8634 57.9788 61.8087 58.0931 61.7566 58.2082C61.7442 58.2373 61.7232 58.2619 61.6965 58.2789C61.6698 58.2958 61.6386 58.3043 61.6069 58.3031C61.596 58.3275 61.58 58.3703 61.575 58.3686C61.4825 58.3476 61.443 58.4073 61.4018 58.4703C61.3976 58.479 61.3902 58.4857 61.3812 58.4889C61.3721 58.4922 61.3621 58.4917 61.3534 58.4875C61.3447 58.4834 61.338 58.476 61.3348 58.4669C61.3315 58.4579 61.3321 58.4479 61.3362 58.4392C61.3444 58.4038 61.3559 58.3692 61.3707 58.3359C61.506 58.0435 61.6228 57.743 61.7204 57.436C61.7339 57.3636 61.7719 57.2981 61.8281 57.2503C61.8281 57.3461 61.8054 57.4512 61.9441 57.4856C61.9937 57.4982 61.9996 57.5587 61.9886 57.6015ZM62.52 49.6348C62.4767 49.6229 62.4345 49.6072 62.3939 49.5878C62.3729 49.5777 62.372 49.5584 62.3863 49.5475C62.3938 49.543 62.4017 49.5393 62.4099 49.5365C62.4322 49.5316 62.4554 49.5318 62.4776 49.5371C62.4999 49.5423 62.5207 49.5524 62.5385 49.5668C62.5496 49.5801 62.5584 49.5951 62.5646 49.6113C62.5486 49.6197 62.5318 49.6382 62.52 49.6348ZM62.874 49.6348C62.8243 49.6499 62.7709 49.6466 62.7235 49.6256C62.7235 49.6256 62.7235 49.6113 62.7235 49.6105C62.7704 49.5884 62.8241 49.5854 62.8732 49.6021C62.8799 49.6021 62.8849 49.6121 62.8917 49.618C62.8849 49.6197 62.8849 49.6331 62.874 49.634V49.6348ZM63.1885 49.7483C63.175 49.7483 63.1624 49.734 63.1489 49.7264C63.1632 49.7197 63.1775 49.7079 63.1918 49.7088C63.2061 49.7096 63.2187 49.7231 63.2322 49.7306C63.2213 49.7365 63.2028 49.7483 63.1885 49.7474V49.7483ZM66.8644 52.6469C66.8577 52.6506 66.8502 52.6525 66.8426 52.6525C66.8349 52.6525 66.8274 52.6506 66.8207 52.6469C66.745 52.5427 66.6702 52.4386 66.5987 52.3319C66.5799 52.3054 66.5666 52.2753 66.5597 52.2436C66.5527 52.2118 66.5523 52.1789 66.5584 52.147C66.5584 52.1327 66.5794 52.1218 66.5903 52.1084C66.6063 52.1142 66.6315 52.1151 66.6383 52.126C66.7334 52.2733 66.8134 52.4298 66.877 52.5932C66.8793 52.6021 66.8793 52.6114 66.8771 52.6203C66.8749 52.6293 66.8706 52.6375 66.8644 52.6444V52.6469ZM67.0881 53.4115C67.0418 53.4317 67.0292 53.3829 67.0208 53.3552C66.9737 53.1872 66.8812 53.0334 66.8838 52.8511C66.8838 52.8259 66.8838 52.7965 66.9334 52.7982C66.9468 52.8141 66.972 52.8309 66.9788 52.8545C67.0214 53.0135 67.0617 53.1732 67.0998 53.3334C67.1057 53.3586 67.1015 53.4048 67.0889 53.4107L67.0881 53.4115Z" fill="#E0E721"/>
<path d="M38.971 70.9603L38.9769 70.9385L38.9819 70.9603H38.971Z" fill="#E0E721"/>
<path d="M42.1399 62.2243L42.1492 62.21L42.1349 62.2075L42.1399 62.2243Z" fill="#E0E721"/>
<path d="M48.5569 47.5672C48.5199 47.6075 48.4863 47.6512 48.4459 47.6873C48.1247 47.9755 47.7733 48.2301 47.4681 48.5342C47.4546 48.5468 47.4429 48.5653 47.4277 48.5712C47.2596 48.6317 47.1603 48.7804 47.0342 48.8955C46.9081 49.0106 46.7719 49.0938 46.6424 49.1963C46.5898 49.2336 46.544 49.2796 46.507 49.3324C46.4078 49.492 46.2548 49.5971 46.1211 49.7189C45.953 49.871 45.7949 50.0407 45.6335 50.2029C45.5813 50.2549 45.5342 50.3146 45.4502 50.3138C45.4566 50.2301 45.4941 50.1519 45.5553 50.0945C45.7772 49.8869 45.9647 49.6424 46.222 49.4727C46.2532 49.4527 46.2799 49.4264 46.3002 49.3954C46.4191 49.2203 46.5604 49.0616 46.7206 48.9232C46.8442 48.8031 46.9653 48.6813 47.088 48.5603C47.1142 48.5346 47.1458 48.5151 47.1805 48.5031C47.2783 48.4707 47.3618 48.4054 47.4168 48.3183C47.585 48.0662 47.8523 47.9301 48.0642 47.7302C48.2761 47.5302 48.5275 47.3672 48.6898 47.116C48.7104 47.0862 48.7398 47.0636 48.7738 47.0513C48.9075 46.9908 49.0513 46.9412 49.0959 46.7765C49.2363 46.6656 49.3943 46.5598 49.5718 46.6161C49.6767 46.6429 49.7876 46.6352 49.8879 46.5942C49.9064 46.5929 49.9249 46.5929 49.9434 46.5942C49.9392 46.6018 49.9356 46.6097 49.9325 46.6177C49.9325 46.6404 49.914 46.6724 49.924 46.685C49.9341 46.6976 49.972 46.6959 49.993 46.6791C50.014 46.6623 50.035 46.6404 50.0115 46.6186C49.988 46.5967 49.9644 46.6035 49.94 46.5967C49.9467 46.5707 49.94 46.5346 49.961 46.5211C50.1107 46.4018 50.2637 46.2884 50.4134 46.1699C50.4874 46.1119 50.5437 46.0859 50.616 46.1817C50.6522 46.2321 50.7245 46.1926 50.7236 46.1288C50.7236 46.1111 50.7094 46.0935 50.7085 46.0767C50.7085 46.0145 50.7674 45.9733 50.8145 46.0086C50.863 46.0487 50.9087 46.0919 50.9515 46.138C50.8778 46.2296 50.7901 46.3089 50.6917 46.3732C50.5689 46.4505 50.4538 46.5413 50.3386 46.6303C50.2507 46.7119 50.1356 46.7581 50.0157 46.7597C49.9098 46.7547 49.8139 46.8614 49.6996 46.7824C49.6684 46.7614 49.6373 46.7959 49.6071 46.8185C49.5289 46.879 49.4389 46.9311 49.3607 46.9866C49.3184 46.9664 49.2704 46.961 49.2247 46.9714C49.1789 46.9817 49.138 47.0072 49.1085 47.0437C49.058 47.0983 49.0067 47.1546 49.0513 47.2378C48.9731 47.2991 48.8966 47.3622 48.8167 47.421C48.8002 47.4367 48.7787 47.4463 48.756 47.4483C48.7332 47.4503 48.7105 47.4445 48.6914 47.4319C48.6822 47.4294 48.6725 47.429 48.663 47.4305C48.6536 47.4321 48.6446 47.4357 48.6366 47.441C48.6287 47.4463 48.6219 47.4533 48.6169 47.4614C48.6118 47.4696 48.6086 47.4787 48.6074 47.4882C48.5662 47.4899 48.551 47.5193 48.5569 47.5672Z" fill="#E0E721"/>
<path d="M65.8807 61.4346C65.8731 61.3506 65.9253 61.3069 65.9908 61.2716C66.0985 61.238 66.0985 61.238 66.1035 61.1297C66.1455 61.1297 66.1598 61.1095 66.1615 61.0717C66.2229 61.0549 66.2279 61.0095 66.2195 60.9574C66.286 60.9297 66.2918 60.8734 66.2767 60.8154C66.2431 60.6835 66.3238 60.5844 66.3835 60.4852C66.4391 60.3915 66.4878 60.2938 66.5289 60.1928C66.666 59.8635 66.8131 59.5375 66.9603 59.2123C67.0114 59.1149 67.0487 59.0108 67.0713 58.9031C67.0738 58.8661 67.086 58.8304 67.1066 58.7996C67.1273 58.7688 67.1557 58.7439 67.189 58.7275C67.2209 58.8116 67.173 58.8889 67.1562 58.9687C67.0565 59.4741 66.9026 59.9674 66.6971 60.4399C66.5316 60.8299 66.3277 61.2026 66.0884 61.5523C65.9446 61.7548 65.8 61.9572 65.6579 62.1614C65.5506 62.3223 65.4209 62.4672 65.2728 62.5916C65.2345 62.6311 65.2012 62.6751 65.1736 62.7227C65.1428 62.7574 65.1009 62.7803 65.055 62.7874C65.0601 62.7521 65.0752 62.7033 65.0281 62.6949C64.9962 62.6901 64.9636 62.6976 64.9369 62.7158C64.9102 62.734 64.8914 62.7617 64.8843 62.7932C64.881 62.8041 64.88 62.8155 64.8812 62.8268C64.8824 62.8381 64.886 62.849 64.8915 62.8589C64.8971 62.8688 64.9046 62.8775 64.9137 62.8844C64.9227 62.8913 64.933 62.8963 64.944 62.8991C64.9171 63.0671 64.7885 63.1638 64.675 63.2629C64.5469 63.3641 64.4282 63.4766 64.3202 63.599C64.2492 63.6671 64.1626 63.7167 64.0679 63.7435C64.0653 63.7162 64.0686 63.6887 64.0778 63.6628C64.0869 63.637 64.1017 63.6135 64.1209 63.5939C64.1848 63.5276 64.2462 63.4595 64.3084 63.3923C64.3507 63.3576 64.3873 63.3165 64.4169 63.2705C64.5287 63.0041 64.7532 62.8218 64.9096 62.5849C64.9737 62.4837 65.0641 62.4018 65.1711 62.3479C65.2676 62.2953 65.3456 62.2144 65.3947 62.116C65.4566 61.994 65.5398 61.8839 65.6402 61.7909C65.6645 61.8041 65.6924 61.809 65.7197 61.8049C65.747 61.8008 65.7722 61.7879 65.7916 61.7682C65.8832 61.6825 65.9395 61.575 65.8807 61.4346Z" fill="#E0E721"/>
<path d="M54.6712 49.4238C54.6132 49.386 54.5871 49.3028 54.4946 49.3112C54.4482 49.3108 54.4038 49.292 54.371 49.2591C54.3306 49.2362 54.3001 49.1991 54.2855 49.155C54.2709 49.1109 54.2732 49.063 54.292 49.0205C54.3424 48.8743 54.3996 48.7298 54.4602 48.5853C54.4602 48.5735 54.4862 48.5676 54.4997 48.5584C54.5081 48.5718 54.5224 48.5853 54.5241 48.5987C54.5299 48.6676 54.5804 48.6827 54.635 48.7012C54.6897 48.7197 54.7309 48.776 54.7586 48.6878C54.7885 48.5746 54.7945 48.4564 54.7763 48.3408C54.7759 48.3273 54.7726 48.3141 54.7667 48.3021C54.7607 48.29 54.7522 48.2794 54.7417 48.2709C54.7312 48.2625 54.7191 48.2564 54.706 48.2531C54.693 48.2498 54.6794 48.2493 54.6661 48.2517L54.5821 48.2568C54.5669 48.1963 54.551 48.1358 54.5308 48.0568C54.4284 48.1186 54.3338 48.1925 54.2491 48.2769C54.2385 48.2847 54.2264 48.2903 54.2135 48.2934C54.2006 48.2964 54.1873 48.2968 54.1743 48.2946C54.1297 48.2895 54.1205 48.2484 54.1179 48.2105C54.1124 48.1742 54.1141 48.137 54.123 48.1013C54.1459 48.0271 54.1511 47.9485 54.1381 47.8719C54.1251 47.7953 54.0943 47.7228 54.0482 47.6602C54.0203 47.6238 54.0049 47.5792 54.0044 47.5334C54.0077 47.4874 53.9999 47.4413 53.9818 47.3989C53.9637 47.3565 53.9357 47.3191 53.9002 47.2897C53.8657 47.2586 53.8346 47.2208 53.8607 47.1696C53.8729 47.1447 53.8929 47.1245 53.9176 47.112C53.9423 47.0994 53.9704 47.0951 53.9977 47.0998C54.0238 47.0998 54.0498 47.1057 54.0759 47.1057C54.0759 47.1057 54.0877 47.0931 54.0877 47.0855C54.0877 47.078 54.0877 47.062 54.081 47.0603C54.0473 47.0472 54.0123 47.0376 53.9767 47.0318C53.9535 47.0303 53.9314 47.0213 53.9138 47.0061C53.8962 46.9909 53.8841 46.9704 53.8792 46.9477L53.9338 46.9402C53.9885 46.9309 54.0515 46.9284 54.054 46.8562C54.0543 46.8329 54.0471 46.8101 54.0335 46.7912C54.0198 46.7723 54.0005 46.7583 53.9784 46.7511C53.9616 46.7435 53.9437 46.7387 53.9254 46.7368C53.9019 46.7368 53.8918 46.7226 53.9069 46.7032C53.9127 46.6963 53.9201 46.6909 53.9284 46.6876C53.9368 46.6842 53.9459 46.6829 53.9548 46.6839C54.0145 46.7049 54.0852 46.7242 54.086 46.8049C54.0807 46.8506 54.0924 46.8967 54.1189 46.9344C54.1454 46.9721 54.1849 46.9986 54.2298 47.0091C54.2601 47.0214 54.2857 47.0432 54.3026 47.0712C54.3196 47.0992 54.3271 47.1319 54.3239 47.1645C54.3347 47.2751 54.3209 47.3867 54.2836 47.4913C54.2602 47.5514 54.2405 47.6129 54.2247 47.6753C54.2155 47.6966 54.2124 47.7199 54.2158 47.7428C54.2193 47.7657 54.229 47.7871 54.2441 47.8047C54.2727 47.8325 54.35 47.8199 54.3912 47.7753C54.4131 47.7526 54.4047 47.6972 54.4585 47.7106C54.4816 47.7131 54.5037 47.7211 54.5231 47.734C54.5424 47.7468 54.5583 47.7642 54.5695 47.7846C54.5879 47.8364 54.6001 47.8903 54.6056 47.945C54.6093 47.9864 54.6272 48.0252 54.6561 48.055C54.685 48.0849 54.7233 48.1039 54.7645 48.1089C54.915 48.1484 54.9276 48.1669 54.9276 48.3122C54.9357 48.45 54.9097 48.5876 54.852 48.713C54.7461 48.8994 54.716 49.1192 54.7679 49.3272C54.7889 49.4246 54.7107 49.4019 54.6712 49.4238Z" fill="#E0E721"/>
<path d="M62.5083 49.4163C62.4718 49.413 62.435 49.4165 62.3998 49.4264C62.2434 49.5104 62.0954 49.4264 61.9449 49.4062C61.8962 49.4012 61.892 49.3399 61.8835 49.2945C61.9071 49.2466 61.9046 49.2105 61.8457 49.192C61.3893 49.0224 60.9022 48.9514 60.4164 48.9836C60.3704 48.9809 60.325 48.9949 60.2886 49.0231C60.244 49.0231 60.1835 49.0399 60.1565 49.0181C60.0599 48.934 59.9379 48.934 59.832 48.8887C59.8715 48.7912 59.964 48.7794 60.0498 48.7576C60.0564 48.7726 60.0667 48.7857 60.0797 48.7958C60.0927 48.8058 60.108 48.8124 60.1242 48.815C60.1404 48.8176 60.1571 48.816 60.1725 48.8106C60.188 48.8051 60.2019 48.7958 60.2129 48.7836C60.2501 48.7488 60.2967 48.7257 60.347 48.7174C60.3973 48.709 60.4489 48.7157 60.4954 48.7366C60.5414 48.7564 60.5912 48.766 60.6413 48.7647C60.6913 48.7634 60.7406 48.7512 60.7855 48.729C60.8317 48.7055 60.8889 48.7005 60.8695 48.7887C60.8928 48.7985 60.9175 48.8042 60.9427 48.8055C61.0066 48.8005 61.0697 48.7904 61.1327 48.7803C61.1778 48.7688 61.2247 48.7669 61.2705 48.7749C61.3163 48.7829 61.3599 48.8005 61.3984 48.8265C61.5758 48.971 61.7986 49.0088 62.0004 49.092C62.2841 49.2246 62.5895 49.3046 62.9017 49.3281C63.0022 49.3423 63.0997 49.3721 63.191 49.4163C63.359 49.4616 63.5238 49.5178 63.6845 49.5844C63.8093 49.6439 63.9274 49.7166 64.0368 49.8011C64.1094 49.8697 64.1952 49.9226 64.2891 49.9566C64.3084 49.9624 64.3177 50.0011 64.3311 50.0246C64.0193 49.9608 63.7189 49.8507 63.4399 49.6978C63.4181 49.6817 63.3983 49.6631 63.381 49.6423C63.3978 49.6247 63.3961 49.6062 63.3734 49.6003C63.3507 49.5944 63.302 49.5902 63.2667 49.5852H63.2725C63.2305 49.5213 63.1574 49.5457 63.0993 49.5255H63.1069C63.043 49.4558 62.9547 49.4835 62.8774 49.4667H62.8849C62.7832 49.3987 62.6604 49.4054 62.5486 49.3743C62.5402 49.3852 62.5226 49.4062 62.5083 49.4163Z" fill="#E0E721"/>
<path d="M67.2924 58.2667C67.2739 58.0134 67.292 57.7587 67.3462 57.5105C67.3833 57.2474 67.4433 56.9879 67.5253 56.735C67.5629 56.5691 67.5629 56.3969 67.5253 56.2309C67.5184 56.2052 67.5164 56.1784 67.5194 56.152C67.5707 55.915 67.532 55.6806 67.5194 55.4428C67.5001 55.1126 67.4354 54.79 67.395 54.4648C67.4397 54.4987 67.4697 54.5483 67.4791 54.6035C67.4866 54.6396 67.5009 54.6925 67.5337 54.6875C67.7019 54.6749 67.6691 54.8076 67.6783 54.8908C67.6968 55.0589 67.7002 55.2387 67.7019 55.4126C67.7015 55.8711 67.6661 56.329 67.596 56.7821C67.5766 56.9174 67.5564 57.051 67.5455 57.1879C67.5304 57.3694 67.4934 57.5492 67.4614 57.729C67.4354 57.8727 67.3992 58.0155 67.3698 58.1583C67.3649 58.1807 67.3556 58.2019 67.3423 58.2205C67.329 58.2391 67.312 58.2549 67.2924 58.2667Z" fill="#E0E721"/>
<path d="M56.0013 49.8716C56.0115 49.8866 56.0233 49.9004 56.0366 49.9128C56.0686 49.9363 56.0963 49.9699 56.0509 49.9968C55.6095 50.2488 55.2101 50.558 54.7712 50.8118C54.7473 50.8257 54.7226 50.8383 54.6972 50.8496C54.6821 50.86 54.6639 50.8651 54.6455 50.8642C54.6271 50.8633 54.6096 50.8564 54.5955 50.8445C54.5861 50.8346 54.5799 50.8221 54.5777 50.8086C54.5755 50.7952 54.5773 50.7813 54.5829 50.7689C54.5972 50.716 54.609 50.6622 54.6224 50.6093L54.8318 50.5353C54.8545 50.5773 54.8713 50.5647 54.8864 50.5303V50.5345L54.9444 50.4664C55.1361 50.2808 55.3884 50.19 55.6104 50.0531C55.7366 49.9842 55.8672 49.9236 56.0013 49.8716Z" fill="#E0E721"/>
<path d="M67.3294 53.9769C67.3075 53.8005 67.2335 53.6274 67.3059 53.4468C67.4135 53.5468 67.4278 53.6904 67.474 53.8173C67.5579 54.0517 67.6107 54.296 67.6312 54.5441C67.5362 54.5029 67.5732 54.4189 67.5354 54.376C67.4976 54.3332 67.5001 54.2693 67.437 54.2525C67.4608 54.1871 67.4629 54.1158 67.4429 54.0492C67.4412 54.0365 67.4367 54.0244 67.4298 54.0136C67.4229 54.0028 67.4137 53.9937 67.4029 53.9868C67.3921 53.98 67.3799 53.9755 67.3672 53.9738C67.3545 53.9721 67.3416 53.9732 67.3294 53.9769Z" fill="#E0E721"/>
<path d="M44.5488 51.2437C44.5438 51.2779 44.5333 51.3111 44.5177 51.342C44.4126 51.4764 44.3008 51.6066 44.1873 51.7318C44.1002 51.848 43.9805 51.9357 43.8434 51.9839C43.8434 51.9276 43.8501 51.857 43.8947 51.8326C44.0124 51.7688 44.0704 51.6562 44.1545 51.5646C44.2386 51.473 44.3378 51.4209 44.4067 51.3125C44.4294 51.2747 44.4992 51.2655 44.5488 51.2437Z" fill="#E0E721"/>
<path d="M45.4493 50.3145C45.3804 50.5119 45.2181 50.6379 45.0828 50.7833C45.0575 50.8102 44.9987 50.8043 44.9524 50.8144C44.9544 50.7858 44.9598 50.7576 44.9684 50.7303C45.0773 50.5416 45.2467 50.395 45.4493 50.3145Z" fill="#E0E721"/>
<path d="M53.2914 46.4664C53.0653 46.5655 52.9551 46.6193 53.0014 46.2563L53.1611 46.2782C53.2048 46.2841 53.2637 46.2723 53.2839 46.3168C53.3041 46.3614 53.2839 46.4009 53.2839 46.4412C53.2814 46.4496 53.2881 46.458 53.2914 46.4664Z" fill="#E0E721"/>
<path d="M44.9507 50.8159C44.9405 50.9135 44.898 51.005 44.8299 51.0757C44.7619 51.1465 44.6721 51.1926 44.5749 51.2066C44.5674 51.1556 44.5775 51.1035 44.6034 51.059C44.6294 51.0144 44.6697 50.9799 44.7178 50.9613C44.8078 50.9277 44.8625 50.8462 44.9507 50.8159Z" fill="#E0E721"/>
<path d="M43.5466 52.2983C43.5222 52.4907 43.391 52.5823 43.2254 52.642C43.3002 52.4975 43.3625 52.3412 43.5466 52.2983Z" fill="#E0E721"/>
<path d="M54.6703 50.2003C54.6482 50.1783 54.6306 50.1521 54.6186 50.1233C54.6066 50.0945 54.6004 50.0635 54.6004 50.0323C54.6004 50.0011 54.6066 49.9701 54.6186 49.9413C54.6306 49.9125 54.6482 49.8863 54.6703 49.8643C54.7982 49.9777 54.7334 50.0886 54.6703 50.2003Z" fill="#E0E721"/>
<path d="M53.7076 46.4874C53.6563 46.4815 53.6009 46.4924 53.5597 46.4487C53.5597 46.395 53.5664 46.3404 53.5723 46.2874C53.5723 46.2614 53.579 46.2278 53.6152 46.2362C53.6402 46.2434 53.6623 46.2584 53.6782 46.279C53.7134 46.3425 53.7239 46.4167 53.7076 46.4874Z" fill="#E0E721"/>
<path d="M43.819 52.0127C43.819 52.1917 43.7139 52.274 43.5483 52.2975C43.6093 52.1786 43.7033 52.0797 43.819 52.0127Z" fill="#E0E721"/>
<path d="M59.5621 48.9138C59.5042 48.9323 59.4423 48.9349 59.383 48.9214C59.4671 48.8113 59.4671 48.8113 59.5621 48.9138Z" fill="#E0E721"/>
<path d="M67.3857 54.3627C67.3319 54.3308 67.3252 54.2938 67.3748 54.251H67.4387L67.3857 54.3627Z" fill="#E0E721"/>
<path d="M67.2201 53.2056C67.1975 53.1909 67.1811 53.1683 67.1743 53.1422C67.1674 53.1161 67.1706 53.0884 67.1831 53.0645C67.195 53.0711 67.2055 53.08 67.2139 53.0908C67.2223 53.1016 67.2284 53.1139 67.2318 53.1271C67.2353 53.1403 67.236 53.1541 67.234 53.1676C67.232 53.1811 67.2273 53.194 67.2201 53.2056Z" fill="#E0E721"/>
<path d="M43.1691 52.6982C43.171 52.7129 43.1696 52.7278 43.1651 52.7419C43.1605 52.7559 43.1529 52.7688 43.1428 52.7796C43.1326 52.7903 43.1202 52.7987 43.1065 52.8041C43.0927 52.8095 43.0779 52.8118 43.0632 52.8108C43.0624 52.7964 43.0645 52.782 43.0695 52.7684C43.0744 52.7548 43.0821 52.7424 43.092 52.7318C43.1019 52.7213 43.1138 52.7129 43.1271 52.7071C43.1403 52.7014 43.1546 52.6983 43.1691 52.6982Z" fill="#E0E721"/>
<path d="M43.4516 75.1143C43.4783 75.1139 43.5045 75.1207 43.5276 75.134C43.5507 75.1474 43.5697 75.1667 43.5828 75.1899C43.4878 75.2327 43.4869 75.2327 43.4516 75.1143Z" fill="#E0E721"/>
<path d="M65.0483 62.7958C65.0483 62.868 65.0164 62.9117 64.9373 62.9067C64.9615 62.8585 65.0003 62.8194 65.0483 62.7949V62.7958Z" fill="#E0E721"/>
<path d="M51.3332 45.9774C51.3204 45.9961 51.303 46.0113 51.2827 46.0216C51.2625 46.0319 51.2399 46.0369 51.2172 46.0362C51.2199 46.024 51.2252 46.0126 51.2328 46.0028C51.2405 45.9929 51.2502 45.9849 51.2613 45.9793C51.2724 45.9737 51.2846 45.9706 51.297 45.9702C51.3095 45.9699 51.3218 45.9723 51.3332 45.9774Z" fill="#E0E721"/>
<path d="M63.8224 63.9323C63.8254 63.924 63.8305 63.9166 63.8373 63.911C63.8442 63.9054 63.8524 63.9017 63.8611 63.9004C63.8586 63.9239 63.8468 63.9357 63.8224 63.9323Z" fill="#E0E721"/>
<path d="M54.8864 50.5278C54.8713 50.5623 54.8545 50.5749 54.8318 50.5329L54.8864 50.5278Z" fill="#E0E721"/>
<path d="M54.9411 50.4639L54.8831 50.5319C54.8814 50.4916 54.9108 50.4773 54.9411 50.4639Z" fill="#E0E721"/>
<path d="M64.406 50.0601C64.399 50.0628 64.3916 50.0641 64.3842 50.0639C64.3767 50.0637 64.3694 50.062 64.3625 50.059C64.3557 50.056 64.3496 50.0516 64.3445 50.0462C64.3394 50.0407 64.3354 50.0343 64.3328 50.0273L64.406 50.0601Z" fill="#E0E721"/>
<path d="M60.0523 48.7577L60.0573 48.751L60.0506 48.7569L60.0523 48.7577Z" fill="#E0E721"/>
<path d="M61.7726 57.6904C61.8096 57.6904 61.8466 57.6803 61.8567 57.6392C61.8608 57.6259 61.8599 57.6115 61.8541 57.5989C61.8484 57.5862 61.8382 57.576 61.8255 57.5703C61.7886 57.5535 61.7793 57.5837 61.7751 57.6098C61.7733 57.6377 61.7733 57.6658 61.7751 57.6938C61.7683 57.6953 61.7618 57.6978 61.7558 57.7013C61.7558 57.7013 61.7558 57.7114 61.7558 57.7165L61.7726 57.6904Z" fill="#E0E721"/>
<path d="M61.0999 49.165C61.1093 49.1585 61.1199 49.1539 61.131 49.1516C61.1422 49.1493 61.1537 49.1493 61.1649 49.1516C61.176 49.1539 61.1866 49.1584 61.196 49.1649C61.2053 49.1714 61.2133 49.1797 61.2193 49.1894C61.163 49.26 61.1487 49.2574 61.0999 49.165Z" fill="#E0E721"/>
<path d="M61.8298 57.2486C61.8298 57.2318 61.8298 57.2142 61.8357 57.1974C61.8415 57.1806 61.8449 57.1755 61.8483 57.1764C61.8527 57.1762 61.8571 57.1774 61.8609 57.1797C61.8647 57.182 61.8677 57.1854 61.8696 57.1894C61.8715 57.1935 61.8721 57.198 61.8715 57.2024C61.8708 57.2067 61.8689 57.2109 61.8659 57.2142C61.8549 57.2268 61.8422 57.2378 61.8281 57.2469L61.8298 57.2486Z" fill="#E0E721"/>
<path d="M54.1053 64.6328L54.0515 64.5749L54.0566 64.5698C54.0705 64.5719 54.0835 64.5779 54.0941 64.5871C54.1047 64.5963 54.1124 64.6084 54.1163 64.6219L54.1053 64.6328Z" fill="#E0E721"/>
<path d="M54.1163 64.6221L54.1667 64.6826L54.1087 64.6305L54.1163 64.6221Z" fill="#E0E721"/>
<path d="M54.1667 64.6826C54.1803 64.6853 54.1929 64.6916 54.2031 64.701C54.2134 64.7103 54.2208 64.7223 54.2247 64.7355L54.218 64.7423C54.1995 64.7238 54.1819 64.7045 54.1634 64.6851L54.1667 64.6826Z" fill="#E0E721"/>
<path d="M42.1399 62.2243L42.1349 62.2075L42.1492 62.21L42.1399 62.2243Z" fill="#E0E721"/>
<path d="M61.7743 57.6923C61.7725 57.6643 61.7725 57.6363 61.7743 57.6083C61.7785 57.5823 61.7877 57.552 61.8247 57.5688C61.8374 57.5745 61.8476 57.5847 61.8533 57.5974C61.859 57.6101 61.8599 57.6244 61.8558 57.6377C61.8432 57.6789 61.8062 57.6856 61.7717 57.689L61.7743 57.6923Z" fill="#E0E721"/>
<path d="M61.6078 58.3013C61.5397 58.2249 61.5397 58.2249 61.6078 58.1333C61.6078 58.1888 61.6078 58.2442 61.6078 58.3013Z" fill="#E0E721"/>
<path d="M61.6053 58.1341C61.6053 58.1165 61.6053 58.098 61.6137 58.0803C61.6221 58.0627 61.6254 58.0593 61.6296 58.0602C61.6344 58.0602 61.6391 58.0616 61.6431 58.0642C61.647 58.0668 61.6502 58.0706 61.652 58.0749C61.6539 58.0793 61.6545 58.0842 61.6536 58.0889C61.6528 58.0936 61.6506 58.0979 61.6473 58.1013C61.6356 58.1144 61.6227 58.1262 61.6086 58.1366L61.6053 58.1341Z" fill="#E0E721"/>
<path d="M61.7726 57.6904L61.7507 57.7148C61.7507 57.7098 61.7507 57.7022 61.7507 57.6997C61.7567 57.6962 61.7633 57.6936 61.7701 57.6921L61.7726 57.6904Z" fill="#E0E721"/>
</g>
<defs>
<clipPath id="clip0_66_882">
<rect width="100" height="77" fill="white" transform="translate(0 0.679199)"/>
</clipPath>
</defs>
</svg>
